<svg xmlns="http://www.w3.org/2000/svg" width="24" height="16" viewBox="0 0 24 16"><g fill="none"><path d="M23.5 16L0.4 16C0.2 16 0 15.8 0 15.6L0 0.4C0 0.2 0.2 0 0.4 0L23.5 0C23.8 0 24 0.2 24 0.4L24 15.6C24 15.8 23.8 16 23.5 16Z" fill="#41479B"/><path d="M24 0.4C24 0.2 23.8 0 23.5 0L21.7 0 14 5.1 14 0 9.9 0 9.9 5.1 2.3 0 0.4 0C0.2 0 0 0.2 0 0.4L0 1.5 6.6 5.9 0 5.9 0 10.1 6.6 10.1 0 14.5 0 15.6C0 15.8 0.2 16 0.4 16L2.3 16 9.9 10.9 9.9 16 14 16 14 10.9 21.7 16 23.5 16C23.8 16 24 15.8 24 15.6L24 14.5 17.4 10.1 24 10.1 24 5.9 17.4 5.9 24 1.5 24 0.4Z" fill="#F5F5F5"/><g fill="#FF4B55"><polygon points="24 6.7 13.2 6.7 13.2 0 10.7 0 10.7 6.7 0 6.7 0 9.3 10.7 9.3 10.7 16 13.2 16 13.2 9.3 24 9.3"/><path d="M8.4 10.1L0 15.6C0 15.8 0.2 16 0.4 16L1 16 9.9 10.1 8.4 10.1 8.4 10.1Z"/><path d="M16.2 10.1L14.7 10.1 23.6 16C23.8 16 24 15.8 24 15.6L24 15.2 16.2 10.1Z"/><path d="M0 0.9L7.6 5.9 9.1 5.9 0.2 0.1C0.1 0.1 0 0.3 0 0.4L0 0.9Z"/><path d="M15.6 5.9L23.9 0.4C23.9 0.2 23.7 0 23.5 0L22.9 0 14 5.9 15.6 5.9Z"/></g></g></svg>
