<svg width="296" height="36" fill="none" xmlns="http://www.w3.org/2000/svg"><path d="M207.54 13.6314h12.14v2.3014h-4.78v12.9735h-2.62V15.9328h-4.76l.02-2.3014zm11.62 4.2159h2.24v2.1385h.04c.08-.3055.22-.5907.42-.8758.2-.2851.44-.5499.74-.7739.28-.2444.6-.4277.96-.5703.34-.1426.7-.224 1.06-.224.28 0 .48.0203.58.0203.1.0204.22.0408.32.0408v2.3421c-.16-.0407-.34-.0611-.52-.0814-.18-.0204-.34-.0408-.52-.0408-.4 0-.78.0815-1.14.2444-.36.163-.66.4074-.94.7129-.26.3258-.48.7128-.64 1.1812-.16.4685-.24 1.0184-.24 1.6294v5.2545h-2.4l.04-10.9979zm17.36 11.059h-2.36v-1.5478h-.04c-.3.5702-.74.9979-1.32 1.3442-.58.3462-1.18.5091-1.78.5091-1.42 0-2.46-.3462-3.1-1.0794-.64-.7128-.96-1.8126-.96-3.2587v-7.0264h2.4v6.782c0 .9776.18 1.6701.56 2.0571.36.4073.88.611 1.54.611.5 0 .92-.0815 1.26-.2444.34-.163.62-.3666.82-.6314.22-.2648.36-.5906.46-.9572.1-.3666.14-.774.14-1.2017v-6.4154h2.4v11.059h-.02zm4.08-3.5438c.08.7129.34 1.2017.8 1.5072.46.2851 1.02.4277 1.66.4277.22 0 .48-.0204.76-.0611.28-.0408.56-.1019.8-.2037.26-.1018.46-.2444.62-.4481.16-.2036.24-.448.22-.7535-.02-.3055-.12-.5703-.34-.774-.22-.2036-.48-.3462-.8-.4888-.32-.1222-.7-.224-1.12-.3055-.42-.0814-.84-.1833-1.28-.2851-.44-.1018-.88-.224-1.3-.3666-.42-.1425-.78-.3259-1.12-.5906-.32-.2444-.6-.5499-.78-.9369-.2-.3869-.3-.835-.3-1.4053 0-.611.14-1.0998.44-1.5071.28-.4073.66-.7332 1.1-.9776.44-.2444.94-.4277 1.48-.5295.54-.1019 1.06-.1426 1.54-.1426.56 0 1.1.0611 1.6.1833.5.1222.98.3055 1.38.5906.42.2648.76.6314 1.02 1.0591.28.4277.44.9572.52 1.5682H245c-.12-.5906-.38-.9776-.78-1.1812-.42-.2037-.88-.3055-1.42-.3055-.16 0-.38.0203-.6.0407-.24.0407-.44.0815-.66.1629-.2.0815-.38.2037-.52.3463-.14.1425-.22.3462-.22.5906 0 .3055.1.5295.3.7128.2.1833.46.3259.8.4685.32.1222.7.224 1.12.3055.42.0814.86.1833 1.3.2851.44.1018.86.224 1.28.3666.42.1425.8.3259 1.12.5906.32.2444.6.5499.8.9165.2.3666.3.835.3 1.3646 0 .6517-.14 1.2016-.44 1.67-.3.4481-.68.8351-1.14 1.1202-.46.2851-1 .4888-1.56.6314-.58.1222-1.14.2036-1.7.2036-.68 0-1.32-.0814-1.9-.2444-.58-.1629-1.1-.4073-1.52-.7128-.42-.3259-.76-.7128-1-1.2016-.24-.4685-.38-1.0387-.4-1.7108h2.42v.0203h.02zm7.9-7.5152h1.82v-3.3402h2.4v3.3198h2.16v1.8126h-2.16v5.9063c0 .2648.02.4685.04.6721.02.1833.08.3463.14.4685.08.1222.2.224.34.2851.16.0611.36.1018.64.1018.16 0 .34 0 .5-.0203.16-.0204.34-.0408.5-.0815v1.8941c-.26.0407-.52.0611-.78.0815-.26.0407-.5.0407-.78.0407-.64 0-1.14-.0611-1.52-.1833-.38-.1222-.68-.3055-.9-.5295-.22-.2444-.36-.5296-.44-.8758-.08-.3462-.12-.7739-.14-1.222v-6.5173h-1.82v-1.8534.0408zm8.06 0h2.26v1.5071h.04c.34-.6517.8-1.0998 1.4-1.3849.6-.2852 1.24-.4277 1.96-.4277.86 0 1.6.1425 2.24.4684.64.3055 1.16.7128 1.58 1.2627.42.5296.74 1.1609.94 1.8738.2.7128.32 1.4867.32 2.281 0 .7536-.1 1.4664-.28 2.1589-.2.6924-.48 1.3238-.86 1.8533-.38.5296-.86.9573-1.46 1.2831-.6.3259-1.28.4888-2.08.4888-.34 0-.7-.0407-1.04-.1018-.34-.0611-.68-.1629-1-.3055-.32-.1426-.62-.3259-.88-.5499-.28-.224-.5-.4888-.68-.7739h-.04V33h-2.4V17.8473h-.02zm8.38 5.5397c0-.4888-.06-.9776-.2-1.446-.12-.4685-.32-.8758-.58-1.2424-.26-.3666-.58-.6517-.94-.8758-.38-.224-.82-.3258-1.3-.3258-1 0-1.76.3462-2.28 1.059-.5.7129-.76 1.6701-.76 2.8513 0 .5703.06 1.0795.2 1.5479.14.4684.32.8758.6 1.222.26.3462.58.611.96.8147.38.2036.8.3055 1.3.3055.56 0 1-.1222 1.38-.3463.38-.224.68-.5295.94-.8757.24-.3666.42-.774.52-1.2424.1-.4888.16-.9572.16-1.446zm4.22-9.7556h2.4v2.3014h-2.4v-2.3014zm0 4.2159h2.4v11.059h-2.4v-11.059zm4.54-4.2159h2.4v15.2749h-2.4V13.6314zm9.72 15.5804c-.86 0-1.64-.1425-2.32-.448-.68-.3055-1.24-.6925-1.72-1.2017-.46-.5091-.82-1.1405-1.06-1.8533-.24-.7129-.38-1.5072-.38-2.3422s.12-1.6089.38-2.3218c.24-.7128.6-1.3238 1.06-1.8533.46-.5092 1.04-.9165 1.72-1.2017.68-.2851 1.46-.448 2.32-.448.86 0 1.64.1425 2.32.448.68.2852 1.24.6925 1.72 1.2017.46.5091.82 1.1405 1.06 1.8533.24.7129.38 1.4868.38 2.3218 0 .8554-.12 1.6293-.38 2.3422-.26.7128-.6 1.3238-1.06 1.8533-.46.5092-1.04.9165-1.72 1.2017-.68.2851-1.44.448-2.32.448zm0-1.9348c.52 0 1-.1222 1.38-.3462.4-.2241.7-.5296.96-.8962.26-.3666.44-.7943.56-1.2423.12-.4685.18-.9369.18-1.4257 0-.4684-.06-.9369-.18-1.4053-.12-.4684-.3-.8757-.56-1.2423-.26-.3666-.58-.6518-.96-.8758-.4-.224-.86-.3462-1.38-.3462-.52 0-1 .1222-1.38.3462-.4.224-.7.5295-.96.8758-.26.3666-.44.7739-.56 1.2423-.12.4684-.18.9369-.18 1.4053 0 .4888.06.9572.18 1.4257.12.4684.3.8757.56 1.2423.26.3666.58.6721.96.8962.4.2444.86.3462 1.38.3462zm6.2-9.4297h1.82v-3.3402h2.4v3.3198H296v1.8126h-2.16v5.9063c0 .2648.02.4685.04.6721.02.1833.08.3463.14.4685.08.1222.2.224.34.2851.16.0611.36.1018.64.1018.16 0 .34 0 .5-.0203.16-.0204.34-.0408.5-.0815v1.8941c-.26.0407-.52.0611-.78.0815-.26.0407-.5.0407-.78.0407-.64 0-1.14-.0611-1.52-.1833-.38-.1222-.68-.3055-.9-.5295-.22-.2444-.36-.5296-.44-.8758-.08-.3462-.12-.7739-.14-1.222v-6.5173h-1.82v-1.8534.0408z" fill="#000"/><path d="M204.74 13.6314h-10.98l-3.38-10.63136-3.4 10.63136L176 13.611l8.88 6.5785-3.4 10.6313 8.88-6.5784 8.88 6.5784-3.38-10.6313 8.88-6.5581z" fill="#00B67A"/><path d="M196.62 22.5927l-.76-2.4033-5.48 4.053 6.24-1.6497z" fill="#005128"/><path d="M2.37266 14.76V29h1.84v-6h2.5c1.52 0 2.18.54 2.76 2.24L10.7727 29h2l-1.46-4.1c-.64-1.76-1.1-2.36-2.14004-2.68v-.04c1.64004-.38 2.72004-1.74 2.72004-3.56 0-2.42-1.56-3.86-5.00004-3.86h-4.52zm1.84 1.58h2.54c2.08 0 3.26004.76 3.26004 2.42 0 1.54-.92004 2.68-3.14004 2.68h-2.66v-5.1zm14.23294 2.22c-2.58 0-3.98 1.46-4.08 3.38h1.76c.06-1.2.84-2.02 2.32-2.02 1.36 0 2.3.7 2.3 2.38v.4c-.8.06-2.04.2-2.94.34-2.92.46-3.86 1.52-3.86 3.2 0 1.72 1.32 2.98 3.44 2.98 1.64 0 2.82-.62 3.52-1.7h.04c0 .46.04 1.02.14 1.48h1.6c-.14-.62-.24-1.48-.24-2.6v-3.9c0-2.68-1.52-3.94-4-3.94zm2.3 6.1c0 1.2-.2 1.76-.82 2.4-.5.52-1.28.8-2.1.8-1.32 0-2.08-.7-2.08-1.74 0-1 .6-1.5 2.34-1.76.78-.14 1.88-.26 2.66-.32v.62zm8.0897 2.96c-1.02 0-1.4-.48-1.4-1.64v-5.74h2.02v-1.4h-2.02v-2.46h-1.76v2.46h-1.76v1.4h1.76v5.92c0 2.1.82 2.92 2.76 2.92.36 0 .82-.04 1.12-.12v-1.44c-.18.06-.46.1-.72.1zm6.5538.3c-1.66 0-2.94-1.14-3.02-3.64h7.6c0-.88-.06-1.6-.2-2.18-.52-2.18-2.14-3.54-4.44-3.54-2.96 0-4.72 2.22-4.72 5.22 0 3.32 1.78 5.5 4.78 5.5 2.6 0 4.14-1.54 4.48-3.32h-1.8c-.24 1.14-1.2 1.96-2.68 1.96zm-.06-8c1.56 0 2.72 1.04 2.9 3.02h-5.84c.18-1.94 1.32-3.02 2.94-3.02zM50.9405 29V14.76h-1.76v5.48h-.04c-.56-1.02-1.74-1.66-3.1-1.66-2.58 0-4.24 2.08-4.24 5.32s1.66 5.34 4.26 5.34c1.38 0 2.56-.66 3.12-1.72h.04V29h1.72zm-4.44-9c1.68 0 2.78 1.5 2.78 3.9 0 2.42-1.1 3.92-2.78 3.92-1.74 0-2.86-1.54-2.86-3.92s1.12-3.9 2.86-3.9zm22.0928-2.72v-2.52h-9.84V29h10.02v-2.52h-7.08V23h6.44v-2.5h-6.44v-3.22h6.9zm7.9762 6.5l3.26-4.94h-3.22l-1.74 2.98h-.04l-1.74-2.98h-3.22l3.26 4.94-3.48 5.22h3.26l1.92-3.44h.04l1.92 3.44h3.26l-3.48-5.22zm8.981-5.26c-3.1 0-5.12 2.12-5.12 5.4 0 3.28 2.02 5.4 5.12 5.4 2.74 0 4.58-1.72 4.8-4.3h-2.94c-.08 1.32-.8 2.14-1.88 2.14-1.36 0-2.18-1.24-2.18-3.24s.82-3.24 2.18-3.24c1.08 0 1.8.74 1.9 1.94h2.92c-.22-2.38-2.06-4.1-4.8-4.1zm11.2876 8.82c-1.2 0-2.22-.74-2.3-2.84h7.2999c0-1.12-.1-1.9-.32-2.6-.64-2.06-2.3599-3.38-4.6999-3.38-3.18 0-5.04 2.32-5.04 5.32 0 3.24 1.86 5.48 5.06 5.48 2.7 0 4.4599-1.54 4.8599-3.4h-2.8599c-.14.82-.88 1.42-2 1.42zm-.02-6.84c1.12 0 2.04.7 2.22 2.24h-4.44c.22-1.54 1.08-2.24 2.22-2.24zm9.8849 8.5V14.76h-2.8V29h2.8zm5.527 0V14.76h-2.8V29h2.8zm7.128-1.66c-1.2 0-2.22-.74-2.3-2.84h7.3c0-1.12-.1-1.9-.32-2.6-.64-2.06-2.36-3.38-4.7-3.38-3.18 0-5.04 2.32-5.04 5.32 0 3.24 1.86 5.48 5.06 5.48 2.7 0 4.46-1.54 4.86-3.4h-2.86c-.14.82-.88 1.42-2 1.42zm-.02-6.84c1.12 0 2.04.7 2.22 2.24h-4.44c.22-1.54 1.08-2.24 2.22-2.24zm12.725-1.9c-1.3 0-2.32.62-2.98 1.52h-.04v-1.28h-2.62V29h2.8v-5.44c0-1.84.839-2.76 2-2.76 1.1 0 1.78.7 1.78 2.24V29h2.8v-6.24c0-2.76-1.46-4.16-3.74-4.16zm10.795 8.3c-.96 0-1.32-.44-1.32-1.56v-4.42h1.94v-2.08h-1.94V16.2h-2.8v2.64h-1.64v2.08h1.64v4.92c0 2.36 1.02 3.3 3.36 3.3.48 0 1.1-.08 1.48-.2V26.8c-.18.06-.46.1-.72.1zm11.477-8.34c-2.98 0-4.82 2.04-4.82 5.36 0 3.32 1.84 5.36 4.82 5.36 2.98 0 4.84-2.04 4.84-5.36 0-3.32-1.86-5.36-4.84-5.36zm0 1.44c1.86 0 3 1.5 3 3.92s-1.14 3.92-3 3.92c-1.84 0-2.98-1.5-2.98-3.92s1.14-3.92 2.98-3.92zm12.049-1.38c-1.36 0-2.46.62-3.08 1.56h-.04v-1.34h-1.7V29h1.76v-5.82c0-2.04 1.2-3.12 2.64-3.12 1.46 0 2.34.76 2.34 2.88V29h1.76v-6.2c0-2.78-1.36-4.18-3.68-4.18z" fill="#000"/></svg>