<svg xmlns="http://www.w3.org/2000/svg" viewBox="0 0 135.34 67.95"><path d="M30.4 33.23h4.08v-3.31c0-.84-.1-.96-1.17-1.08v-.68h5.48v.68c-1.06.11-1.16.24-1.16 1.08v7.78c0 .84.1.96 1.16 1.08v.67h-5.48v-.67c1.08-.11 1.17-.24 1.17-1.08v-3.47H30.4v3.47c0 .84.1.96 1.16 1.08v.67h-5.48v-.67c1.08-.11 1.17-.24 1.17-1.08v-7.78c0-.84-.1-.96-1.17-1.08v-.68h5.48v.68c-1.06.11-1.16.24-1.16 1.08v3.31zM47.08 37.68c0 .39.05.72.43.72.23 0 .43-.05.55-.1l.11.43c-.53.53-1.22.87-2.12.87-.93 0-1.61-.5-1.85-1.35-.47.68-1.24 1.3-2.43 1.3-1.35 0-2.3-.77-2.3-2.15 0-1.4.98-1.98 2.12-2.38l2.56-.9v-1.64c0-.74-.21-1.24-.84-1.24s-.87.51-.87 1.27c0 .37.06.74.14 1.13l-1.78.24c-.47-.16-.79-.55-.79-1.13 0-1.46 1.51-2.14 3.46-2.14 2.25 0 3.6.71 3.6 2.8v4.27zm-2.93.11v-2.97l-.88.34c-.56.21-.93.51-.93 1.43 0 .82.31 1.43 1.11 1.43.25 0 .44-.08.7-.23zM49.17 32.55l-.89-.55v-.45l3.36-.93h.56l-.06 1.56c.45-.72 1.33-1.56 2.7-1.56 1.9 0 3.25 1.32 3.25 3.96 0 3.3-2.01 5.03-4.55 5.03-.61 0-1.13-.11-1.4-.34v2.27c0 .58.29.61 1.24.69v.63h-5.11v-.63c.64-.05.9-.11.9-.63v-9.05zm5.9 2.93c0-2.12-.76-3.1-1.98-3.1-.34 0-.66.08-.95.27v4.52c0 1.05.29 1.69 1.14 1.69 1.16-.01 1.79-1.48 1.79-3.38zM59.54 32.55l-.89-.55v-.45l3.36-.93h.56l-.06 1.56c.45-.72 1.33-1.56 2.7-1.56 1.9 0 3.25 1.32 3.25 3.96 0 3.3-2.01 5.03-4.55 5.03-.61 0-1.13-.11-1.4-.34v2.27c0 .58.29.61 1.24.69v.63h-5.11v-.63c.64-.05.9-.11.9-.63v-9.05zm5.9 2.93c0-2.12-.76-3.1-1.98-3.1-.34 0-.66.08-.95.27v4.52c0 1.05.29 1.69 1.14 1.69 1.16-.01 1.79-1.48 1.79-3.38zM73 38.2c0 .51.26.58.9.63v.63h-4.76v-.63c.64-.05.9-.11.9-.63v-5.64l-.88-.56v-.45l3.34-.93h.5v7.58zm-3.02-9.78c0-.8.58-1.48 1.58-1.48.96 0 1.58.68 1.58 1.48 0 .8-.61 1.5-1.58 1.5-1.01-.01-1.58-.7-1.58-1.5zM80.83 33.5c0-.71-.24-1.13-1.08-1.13-.51 0-.96.14-1.38.35v5.47c0 .51.23.58.87.63v.63h-4.73v-.63c.64-.05.9-.11.9-.63v-5.64l-.88-.55v-.45l3.36-.93h.55l-.06 1.61c.61-.77 1.54-1.61 2.99-1.61 1.56 0 2.44.87 2.44 2.64v4.94c0 .51.26.58.9.63v.63h-4.73v-.63c.64-.05.85-.11.85-.63v-4.7zM92.99 34.14v.4h-5.13c-.03 1.91 1.03 3.1 2.49 3.1 1.03 0 1.78-.37 2.4-1.17l.31.19c-.43 1.77-1.67 2.94-3.7 2.94-2.38 0-4.18-1.59-4.18-4.29 0-2.86 1.98-4.7 4.29-4.7 2.33.01 3.52 1.49 3.52 3.53zm-5.12-.33h2.57c0-1.56-.31-2.51-1.17-2.51-.88 0-1.32 1.01-1.4 2.51zM94.03 38.79l-.1-2.17h.74c.32 1.32 1.16 2.32 2.41 2.32.76 0 1.37-.37 1.37-1.09 0-.82-.63-1.09-1.72-1.45-1.82-.56-2.8-1.32-2.8-2.96 0-1.8 1.38-2.81 3.31-2.81 1.09 0 2.07.29 2.77.74v1.93h-.69c-.19-1.06-.9-1.99-2.03-1.99-.69 0-1.16.39-1.16 1 0 .68.48.95 1.54 1.32 1.93.64 2.97 1.3 2.97 3.06 0 1.88-1.4 2.94-3.57 2.94-1.32-.02-2.35-.34-3.04-.84zM101.7 38.79l-.1-2.17h.74c.32 1.32 1.16 2.32 2.41 2.32.76 0 1.37-.37 1.37-1.09 0-.82-.63-1.09-1.72-1.45-1.82-.56-2.8-1.32-2.8-2.96 0-1.8 1.38-2.81 3.31-2.81 1.09 0 2.07.29 2.77.74v1.93h-.69c-.19-1.06-.9-1.99-2.03-1.99-.69 0-1.16.39-1.16 1 0 .68.48.95 1.54 1.32 1.93.64 2.97 1.3 2.97 3.06 0 1.88-1.4 2.94-3.57 2.94-1.32-.02-2.35-.34-3.04-.84z"/><g><path d="M25.38 50.28c-.26.22-.47.48-.47.8 0 .27.18.47.48.47h3.49c2.17 0 3.09.93 3.09 2.4 0 2.07-1.99 3.22-4.9 3.22-2.54 0-4.12-.69-4.12-1.96 0-.8.77-1.19 1.48-1.3-.68-.26-1.06-.92-1.06-1.61 0-1.05.74-1.72 1.58-2.17-.88-.42-1.53-1.14-1.53-2.32 0-1.93 1.62-3.06 3.84-3.06.64 0 1.11.1 1.53.23l2.86-.06V46h-.72l-.98-.03c.58.39 1 1.01 1 1.82 0 1.78-1.64 2.78-3.79 2.78-.61-.02-1.22-.1-1.78-.29zm-.61 3.97c-.11.13-.14.35-.14.59 0 .98 1.01 1.56 2.52 1.56 1.45 0 2.78-.39 2.78-1.43 0-.51-.32-.72-.92-.72h-4.24zm3.44-6.51c0-1.22-.32-2.32-1.08-2.32-.72 0-.97.79-.97 2.12 0 1.29.35 2.38 1.09 2.38.74.01.96-.78.96-2.18zM41.2 51.73c0 .55.03.79.55.8l.39.02v.63l-3.39.56h-.56l.05-1.56c-.58.74-1.43 1.56-2.86 1.56s-2.43-.85-2.43-2.7V47.1c0-.47-.11-.8-.63-.93l-.24-.08v-.59l3.39-.74H36l-.1 2.04v3.94c0 .82.32 1.29 1.09 1.29.48 0 .8-.13 1.24-.32V47.1c0-.47-.11-.8-.61-.93l-.24-.08v-.59l3.38-.74h.53l-.08 2.04v4.93zM50.21 51.81c0 .39.05.72.43.72.23 0 .43-.05.55-.1l.11.43c-.53.53-1.22.87-2.12.87-.93 0-1.61-.5-1.85-1.35-.47.68-1.24 1.3-2.43 1.3-1.35 0-2.3-.77-2.3-2.15 0-1.4.98-1.98 2.12-2.38l2.56-.9v-1.64c0-.74-.21-1.24-.84-1.24s-.87.51-.87 1.27c0 .37.06.74.14 1.13l-1.78.24c-.47-.16-.79-.55-.79-1.13 0-1.46 1.51-2.14 3.46-2.14 2.25 0 3.6.71 3.6 2.8v4.27zm-2.93.11v-2.97l-.88.34c-.56.21-.93.51-.93 1.43 0 .82.31 1.43 1.11 1.43.25 0 .45-.08.7-.23zM55.47 52.08c0 .69.37.76 1.29.87v.63h-5.15v-.63c.64-.05.9-.11.9-.63v-5.64l-.88-.55v-.45l3.36-.93h.55l-.06 2.48c.66-1.88 1.22-2.48 2.24-2.48.37 0 .64.11.8.27v2.24h-.39c-1.01 0-1.91.03-2.65.58v4.24zM66.39 51.81c0 .39.05.72.43.72.23 0 .43-.05.55-.1l.11.43c-.53.53-1.22.87-2.12.87-.93 0-1.61-.5-1.85-1.35-.47.68-1.24 1.3-2.43 1.3-1.35 0-2.3-.77-2.3-2.15 0-1.4.98-1.98 2.12-2.38l2.56-.9v-1.64c0-.74-.21-1.24-.84-1.24s-.87.51-.87 1.27c0 .37.06.74.14 1.13l-1.78.24c-.47-.16-.79-.55-.79-1.13 0-1.46 1.51-2.14 3.46-2.14 2.25 0 3.6.71 3.6 2.8v4.27zm-2.93.11v-2.97l-.88.34c-.56.21-.93.51-.93 1.43 0 .82.31 1.43 1.11 1.43.25 0 .44-.08.7-.23zM74.11 47.63c0-.71-.24-1.13-1.08-1.13-.51 0-.97.14-1.38.35v5.47c0 .51.22.58.87.63v.63h-4.73v-.63c.64-.05.9-.11.9-.63v-5.64l-.88-.55v-.45l3.36-.93h.55l-.06 1.61c.61-.77 1.54-1.61 2.99-1.61 1.56 0 2.44.87 2.44 2.64v4.94c0 .51.26.58.9.63v.63h-4.73v-.63c.64-.05.85-.11.85-.63v-4.7zM82.08 44.91h1.88v.87h-1.88v5.32c0 .77.31 1.11.92 1.11.42 0 .77-.14 1.16-.4l.24.35c-.61 1-1.51 1.58-2.8 1.58-1.48 0-2.51-.74-2.51-2.64v-5.32h-.92v-.53c1.29-.48 2.44-1.42 3.28-2.52h.63v2.18zM92.47 48.27v.4h-5.13c-.03 1.91 1.03 3.1 2.49 3.1 1.03 0 1.78-.37 2.4-1.17l.31.19c-.43 1.77-1.67 2.94-3.7 2.94-2.38 0-4.18-1.59-4.18-4.29 0-2.86 1.98-4.7 4.29-4.7 2.33.01 3.52 1.49 3.52 3.53zm-5.11-.34h2.57c0-1.56-.31-2.51-1.17-2.51-.89 0-1.32 1.02-1.4 2.51zM101.09 48.27v.4h-5.13c-.03 1.91 1.03 3.1 2.49 3.1 1.03 0 1.78-.37 2.4-1.17l.31.19c-.43 1.77-1.67 2.94-3.7 2.94-2.38 0-4.18-1.59-4.18-4.29 0-2.86 1.98-4.7 4.29-4.7 2.33.01 3.52 1.49 3.52 3.53zm-5.11-.34h2.57c0-1.56-.31-2.51-1.17-2.51-.89 0-1.32 1.02-1.4 2.51zM106.86 42.21v-.48l3.36-.74h.5v10.74c0 .55.03.79.55.8l.39.02v.63l-3.41.56h-.55l.05-1.51c-.66.98-1.53 1.51-2.61 1.51-1.9 0-3.25-1.48-3.25-4.1 0-3.14 1.9-4.82 4.26-4.82.66 0 1.22.18 1.59.48v-2.64l-.88-.45zm-1.99 6.53c0 1.98.71 3.33 1.96 3.33.32 0 .63-.06.92-.22v-4.47c0-1.08-.31-1.66-1.14-1.66-1.15-.01-1.74 1.2-1.74 3.02z"/></g><path d="M52.68 15.26c-.52-1.46-.86-3.02-1.04-4.64-.48-.37-1.03.26-1.03.26.15 1.84.5 3.59 1.06 5.16.22.6 1.21-.23 1.01-.78zM20.96 19.32c-1.01-1.17-1.9-2.51-2.64-3.96-.58-.17-.87.62-.87.62.81 1.66 1.77 3.17 2.85 4.43.42.48 1.04-.65.66-1.09zM10.07 39.06c-1.55.01-3.14-.19-4.72-.56-.51.34-.1 1.06-.1 1.06 1.79.47 3.55.72 5.22.71.64 0 .18-1.21-.4-1.21zM85.89 17.57c.8-1.33 1.45-2.79 1.94-4.34.55-.26.96.46.96.46-.52 1.78-1.21 3.42-2.07 4.84-.33.55-1.13-.47-.83-.96zM117.8 20.16c1.14-1.06 2.16-2.28 3.06-3.64.6-.1.8.71.8.71-.99 1.57-2.11 2.95-3.33 4.09-.46.43-.95-.76-.53-1.16zM123.36 38.57c1.55.09 3.14-.03 4.75-.32.49.36.04 1.07.04 1.07-1.81.38-3.59.53-5.25.44-.64-.04-.12-1.23.46-1.19z"/></svg>