<svg width="394" height="146" viewBox="0 0 394 146" fill="none" xmlns="http://www.w3.org/2000/svg">
<path d="M128.725 94.4286C135.275 93.4076 139.789 89.5998 138.943 84.1739C138.562 81.7298 136.994 80.0216 135.051 79.1227L138.048 78.7557L140.248 78.4128L139.737 75.1377L131.067 76.6895C129.735 76.4966 128.272 76.4243 126.317 76.7291C119.571 77.7806 115.167 81.9718 116.082 87.8376C116.638 91.406 118.936 93.3009 121.823 94.1527C119.494 95.9176 117.566 98.3211 118.061 101.498C118.389 103.6 119.874 105.422 122.049 105.884C119.952 106.561 117.788 108.1 118.169 110.544C118.771 114.406 123.889 115.761 131.612 114.557C140.46 113.178 145.98 108.762 144.997 102.457C144.304 98.0085 141.076 95.6077 134.477 96.6364L123.869 98.2898C122.941 98.4346 122.312 97.9318 122.182 97.1008C122.03 96.1232 122.543 95.242 123.219 94.4358C125.021 94.7557 126.917 94.7106 128.725 94.4286ZM136.148 104.788C137.957 104.506 139.033 104.989 139.277 106.553C139.772 109.73 135.898 111.536 131.499 112.222C126.904 112.938 123.55 111.658 123.085 108.676C122.971 107.943 122.962 107.243 123.243 106.799L136.148 104.788ZM128.77 92.4689C126.522 92.8194 124.928 89.6631 124.318 85.7526C123.686 81.6954 124.046 79.1859 126.246 78.843C128.543 78.4849 130.039 81.6565 130.618 85.3715C131.281 89.6242 130.97 92.126 128.77 92.4689Z" fill="#447964"/>
<path d="M171.269 79.7942L171.37 73.5073L169.738 73.5452L159.405 76.0619L159.446 77.8424L160.194 78.0724C161.736 78.4324 162.107 79.463 162.14 80.8973L162.47 95.0919C161.149 95.7164 160.169 96.1351 158.685 96.1696C156.311 96.2248 155.288 94.8135 155.23 92.2912L154.948 80.1738L155.099 73.8857L153.466 73.9237L143.084 76.4415L143.125 78.222L143.873 78.452C145.465 78.8109 145.835 79.8414 145.868 81.2757L146.15 93.393C146.282 99.0808 149.41 101.631 153.812 101.528C158.213 101.426 160.776 98.8427 162.504 96.5262L162.467 101.327L164.198 101.287L174.593 99.3131L174.548 97.3842L173.36 97.3624C171.776 97.3497 171.66 96.6101 171.621 94.9285L171.269 79.7942Z" fill="#447964"/>
<path d="M187.21 97.4006C184.747 97.17 183.986 95.2106 184.221 92.6985C184.484 89.8909 185.705 89.0611 187.489 88.5822L190.294 87.8014L189.441 96.9139C188.612 97.2834 187.998 97.4744 187.21 97.4006ZM199.66 84.3554C200.26 77.9521 196.325 75.3975 189.429 74.7518C183.469 74.1938 178.646 75.8291 178.226 80.3114C178.06 82.0847 178.934 83.3591 180.317 83.9854L185.853 83.7584C185.718 82.5532 185.627 81.4018 185.733 80.269C185.95 77.9539 186.836 76.4469 188.757 76.6267C190.678 76.8066 191.175 78.3935 190.963 80.6593L190.493 85.6834L182.403 87.7085C178.79 88.6125 175.62 90.1045 175.218 94.3898C174.822 98.6258 177.507 101.262 181.644 101.65C185.289 101.991 187.833 100.291 189.455 98.3562C189.95 101.036 191.876 102.757 194.732 103.024C197.491 103.282 199.706 102.446 201.483 100.973L201.263 99.6107C200.904 99.7262 200.25 99.814 199.561 99.7495C198.379 99.6388 198.328 98.5906 198.438 97.4084L199.66 84.3554Z" fill="#447964"/>
<path d="M216.322 88.0435C218.862 86.7973 221.606 87.1973 224.672 87.7567L225.84 87.9699L227.074 81.205C226.676 80.6295 225.911 80.1378 224.792 79.9336C221.725 79.3741 219.694 80.8641 216.659 86.1941L218.221 78.7348L216.567 78.4328L205.88 79.3996L205.631 80.7623L208.006 82.9054L204.889 99.988C204.605 101.545 203.791 101.598 201.817 101.389L201.471 103.287L217.045 106.129L217.391 104.23C214.679 103.384 213.595 102.985 213.977 100.892L216.322 88.0435Z" fill="#447964"/>
<path d="M235.222 105.817C232.829 105.189 232.398 103.132 233.038 100.692C233.754 97.9642 235.094 97.3439 236.932 97.1615L239.827 96.8476L237.503 105.7C236.625 105.93 235.988 106.018 235.222 105.817ZM249.629 94.9707C251.262 88.7502 247.795 85.5896 241.096 83.831C235.306 82.3111 230.281 83.14 229.137 87.4944C228.685 89.217 229.341 90.6167 230.603 91.4594L236.103 92.136C236.165 90.9248 236.262 89.774 236.551 88.6734C237.142 86.4244 238.261 85.0816 240.128 85.5715C241.994 86.0614 242.226 87.7081 241.649 89.9092L240.367 94.79L232.056 95.4723C228.344 95.7767 224.973 96.7331 223.88 100.896C222.8 105.011 225.02 108.049 229.04 109.104C232.581 110.034 235.367 108.771 237.283 107.125C237.335 109.85 238.955 111.861 241.73 112.589C244.41 113.293 246.731 112.828 248.725 111.663L248.729 110.284C248.356 110.339 247.697 110.319 247.027 110.144C245.878 109.842 245.999 108.8 246.3 107.651L249.629 94.9707Z" fill="#447964"/>
<path d="M270.413 115.862C270.044 117.401 269.372 117.443 267.413 117.126L266.963 119.002L281.106 122.396L281.556 120.52C279.667 119.914 278.943 119.537 279.313 117.998L282.857 103.229C284.127 97.9376 282.105 94.7048 277.439 93.5848C273.109 92.5457 269.719 94.3775 267.337 96.2478L268.684 91.4834L267.048 91.0908L256.324 91.4678L256.001 92.8147L258.254 95.0854L254.201 111.97C253.832 113.51 253.016 113.517 251.057 113.2L250.607 115.076L264.75 118.471L265.2 116.595C263.311 115.988 262.683 115.634 263.053 114.095L266.979 97.739C268.379 97.4139 269.83 97.3042 271.37 97.6737C273.871 98.2741 274.293 99.698 273.785 101.815L270.413 115.862Z" fill="#447964"/>
<path d="M301.192 91.6601L299.285 91.3654C296.221 94.3461 292.263 96.6378 288.125 97.5001L287.876 99.1136L290.662 99.5442L288.162 115.727C287.27 121.496 290.052 124.229 294.55 124.924C298.461 125.529 301.471 124.192 303.797 121.447L303.23 120.258C301.936 120.859 300.792 121.133 299.521 120.937C297.663 120.65 296.893 119.479 297.256 117.133L299.756 100.949L305.477 101.833L305.885 99.1933L300.164 98.3093L301.192 91.6601Z" fill="#447964"/>
<path d="M320.463 100.029C313.357 99.5196 306.884 104.71 306.254 113.493C305.66 121.783 310.837 127.065 318.14 127.588C324.357 128.034 328.415 124.704 330.136 119.372L329.241 118.712C327.189 121.045 324.789 122.014 321.631 121.787C317.14 121.466 314.145 117.581 314.665 111.716L330.406 112.844L330.494 111.61C330.944 105.344 327.618 100.542 320.463 100.029ZM319.722 102.059C322.386 102.25 323.115 105.229 322.772 110.015L314.877 109.449C315.453 104.878 317.008 101.865 319.722 102.059Z" fill="#447964"/>
<path d="M346.515 100.395C339.397 100.691 333.552 106.579 333.919 115.377C334.265 123.682 340.004 128.344 347.32 128.04C353.548 127.78 357.204 124.014 358.312 118.521L357.348 117.967C355.573 120.516 353.297 121.75 350.133 121.882C345.635 122.069 342.221 118.547 342.075 112.661L357.842 112.004L357.791 110.769C357.529 104.491 353.682 100.096 346.515 100.395ZM346.008 102.495C348.678 102.384 349.738 105.261 349.938 110.056L342.029 110.385C342.085 105.778 343.29 102.609 346.008 102.495Z" fill="#447964"/>
<path d="M373.621 100.266C376.148 99.7809 377.407 101.353 378.032 104.608L380.625 118.114C379.844 118.768 378.958 119.14 377.987 119.326C374.197 120.054 371.276 116.383 370.128 110.407C369.074 104.917 370.172 100.928 373.621 100.266ZM375.298 90.3726L376.828 98.3404C375.534 97.6319 373.731 97.424 371.739 97.8065C364.597 99.1779 359.843 105.38 361.663 114.854C363.183 122.773 368.123 126.459 373.856 125.358C377.111 124.733 379.426 122.626 380.849 119.28L381.58 123.875L383.232 123.558L393.206 119.88L392.842 117.985L391.666 118.16C390.102 118.41 389.865 117.7 389.548 116.048L383.316 83.5939L381.81 83.8831L372.085 88.0678L372.365 89.5253L375.298 90.3726Z" fill="#447964"/>
<path d="M14.7113 70.3055C13.1425 68.2667 13.1363 67.772 15.5128 65.5063L14.2456 63.8596L0.87605 74.1478L2.14322 75.7945C4.98128 74.0475 5.45789 74.1801 7.02677 76.2189L21.6294 95.1951C23.1983 97.2339 23.2044 97.7286 20.7887 100.024L22.0559 101.671L35.4255 91.3829L34.1583 89.7362C31.3595 91.453 30.8828 91.3204 29.314 89.2816L22.7971 80.8129L32.7557 73.1496L39.2725 81.6183C40.8414 83.657 40.8476 84.1517 38.4319 86.4476L39.699 88.0943L53.0686 77.8061L51.8015 76.1594C49.0026 77.8762 48.526 77.7436 46.9571 75.7048L32.3545 56.7286C30.7856 54.6899 30.7795 54.1952 33.156 51.9295L31.8888 50.2828L18.5192 60.571L19.7864 62.2177C22.6244 60.4707 23.101 60.6033 24.6699 62.6421L30.8851 70.7187L20.9265 78.3821L14.7113 70.3055Z" fill="#447964"/>
<path d="M62.317 68.7098C60.1187 69.844 58.4214 68.6043 57.2646 66.3621C55.9716 63.856 56.5519 62.499 57.7958 61.1335L59.7375 58.9627L63.9339 67.0962C63.4346 67.8549 63.0204 68.3469 62.317 68.7098ZM65.7657 51.0094C62.8169 45.2939 58.1258 45.2648 51.9707 48.4405C46.6509 51.1851 43.4708 55.1639 45.535 59.1647C46.3516 60.7475 47.7753 61.349 49.2771 61.1308L53.817 57.9535C53.0528 57.0117 52.3552 56.0913 51.8335 55.0801C50.7674 53.0137 50.701 51.2666 52.4156 50.3819C54.1303 49.4973 55.405 50.5653 56.4484 52.5877L58.7621 57.0722L53.0419 63.1409C50.4875 65.8505 48.6222 68.8169 50.5956 72.6419C52.5464 76.4229 56.2291 77.1949 59.9222 75.2895C63.1756 73.611 64.4013 70.8075 64.7236 68.3032C66.5853 70.2931 69.135 70.7033 71.685 69.3877C74.147 68.1174 75.5612 66.2188 76.2635 64.0194L75.3433 62.9911C75.1036 63.2818 74.6001 63.7086 73.9846 64.0261C72.9294 64.5705 72.3212 63.7153 71.7768 62.6602L65.7657 51.0094Z" fill="#447964"/>
<path d="M90.6427 59.4704C88.157 60.3047 86.6831 58.712 85.66 55.6634L81.2368 42.4843C81.8921 41.6382 82.7514 41.0888 83.7363 40.7583C87.3008 39.562 90.4653 41.6831 92.5431 47.874C94.4006 53.4083 94.0196 58.3371 90.6427 59.4704ZM81.3278 71.5201C81.8315 73.021 81.1441 73.4604 79.3153 74.2308L79.9292 76.0599L94.8436 71.0543L94.2297 69.2251C91.3839 69.9193 90.5082 70.1089 89.9415 68.4204L87.722 61.8074C88.7397 62.1965 90.3507 62.021 92.133 61.4229C99.5433 58.9358 103.706 51.9029 100.479 42.2883C97.8975 34.5965 92.667 32.0729 87.1327 33.9303C83.1462 35.2683 81.3852 38.5729 80.7803 41.1242L79.441 36.5118L77.7995 37.0628L68.9102 43.0729L69.3509 44.3861L72.4657 45.115L81.3278 71.5201Z" fill="#447964"/>
<path d="M119.516 52.2149C116.932 52.6578 115.72 50.8578 115.176 47.6884L112.828 33.9866C113.605 33.2511 114.539 32.8401 115.563 32.6646C119.268 32.0294 122.07 34.611 123.173 41.0474C124.159 46.8012 123.027 51.6131 119.516 52.2149ZM108.462 62.6925C108.73 64.2529 107.983 64.5816 106.058 65.0622L106.384 66.9639L121.89 64.3062L121.564 62.4045C118.645 62.6538 117.75 62.7067 117.45 60.9513L116.271 54.0761C117.217 54.6166 118.836 54.6905 120.689 54.3729C128.393 53.0524 133.586 46.7416 131.872 36.7456C130.502 28.7488 125.72 25.4525 119.967 26.4387C115.822 27.1491 113.575 30.1443 112.585 32.5726L111.97 27.8093L110.263 28.1018L100.557 32.6767L100.791 34.042L103.757 35.2402L108.462 62.6925Z" fill="#447964"/>
<path d="M145.412 23.9833L143.881 24.0761L133.783 27.5626L133.867 28.9453L136.685 30.4596L137.735 47.7925C137.831 49.3727 137.053 49.6181 135.087 49.8859L135.203 51.8118L149.82 50.926L149.703 49.0001C147.719 48.9717 146.917 48.822 146.821 47.2418L145.412 23.9833ZM140.836 22.0798C143.799 21.9003 145.547 19.6632 145.397 17.1941C145.247 14.7251 143.245 12.7648 140.282 12.9443C137.221 13.1298 135.569 15.3116 135.718 17.7806C135.868 20.2497 137.774 22.2654 140.836 22.0798Z" fill="#447964"/>
<path d="M170.823 47.4542C170.755 49.0358 170.104 49.206 168.121 49.2693L168.038 51.1969L182.569 51.8211L182.652 49.8935C180.681 49.6603 179.899 49.4286 179.967 47.847L180.619 32.6731C180.852 27.2362 178.248 24.4504 173.454 24.2445C169.006 24.0534 166.029 26.5005 164.049 28.7922L164.459 23.8581L162.778 23.7859L152.325 26.2089L152.265 27.5929L154.912 29.3901L154.166 46.7387C154.099 48.3204 153.299 48.4841 151.316 48.5475L151.233 50.4751L165.764 51.0993L165.847 49.1716C163.876 48.9384 163.193 48.711 163.261 47.1294L163.983 30.3245C165.295 29.7371 166.698 29.3517 168.28 29.4197C170.85 29.5301 171.536 30.847 171.443 33.0217L170.823 47.4542Z" fill="#447964"/>
<path d="M200.977 27.3464C193.937 26.2603 187.063 30.9065 185.721 39.6096C184.454 47.8237 189.183 53.5089 196.419 54.6251C202.58 55.5754 206.895 52.5869 209.045 47.4122L208.206 46.6822C205.971 48.8403 203.5 49.6104 200.371 49.1277C195.921 48.4414 193.253 44.3255 194.248 38.5222L209.845 40.9281L210.033 39.7058C210.991 33.4963 208.067 28.44 200.977 27.3464ZM200.074 29.3094C202.714 29.7167 203.198 32.7447 202.467 37.4874L194.644 36.2807C195.59 31.7713 197.385 28.8946 200.074 29.3094Z" fill="#447964"/>
<path d="M217.223 58.6612C223.725 60.1881 228.661 57.9934 229.985 52.3585C231.218 47.1089 228.551 44.3991 223.224 41.1154C220.305 39.2612 219.053 38.1031 219.528 36.0804C219.958 34.2502 221.626 33.4223 223.697 33.9087C227.068 34.7004 228.531 37.9915 228.362 41.3058L230.433 41.7922L231.791 36.0128C230.036 34.1779 227.302 32.6211 224.027 31.852C218.248 30.4947 213.393 32.5562 212.127 37.9503C210.973 42.8628 213.379 45.8163 218.426 48.78C221.452 50.6087 223.138 51.8686 222.561 54.3248C222.052 56.4921 219.962 57.17 217.698 56.6384C213.941 55.7562 212.138 52.182 212.103 48.0066L209.887 47.4863L208.649 54.0559C210.369 56.0353 213.226 57.7224 217.223 58.6612Z" fill="#447964"/>
<path d="M240.731 64.9685C247.155 66.7954 252.188 64.8321 253.772 59.2646C255.247 54.0779 252.708 51.2473 247.54 47.72C244.71 45.7324 243.513 44.5175 244.081 42.5189C244.595 40.7107 246.3 39.9611 248.346 40.543C251.677 41.4902 252.986 44.8456 252.664 48.1486L254.71 48.7305L256.334 43.0203C254.667 41.106 252.008 39.424 248.772 38.5038C243.062 36.8799 238.117 38.714 236.601 44.0435C235.221 48.8972 237.487 51.9592 242.391 55.1538C245.329 57.1209 246.955 58.4576 246.265 60.8844C245.656 63.0257 243.536 63.606 241.3 62.97C237.588 61.9144 235.953 58.2605 236.111 54.0879L233.922 53.4654L232.38 59.9706C234.007 62.0276 236.782 63.8453 240.731 64.9685Z" fill="#447964"/>
</svg>
