<svg width="4070" height="376" viewBox="0 0 4070 376" fill="none" xmlns="http://www.w3.org/2000/svg">
<path d="M37.3865 201.114C34.2805 197.335 34.2387 196.395 38.6174 191.944L36.1087 188.891L11.3248 209.26L13.8336 212.312C19.1212 208.819 20.0352 209.042 23.1413 212.821L52.0516 247.999C55.1577 251.778 55.1995 252.718 50.748 257.229L53.2568 260.281L78.0407 239.912L75.5319 236.86C70.3169 240.293 69.403 240.07 66.2969 236.291L53.3948 220.592L71.8555 205.42L84.7576 221.119C87.8637 224.898 87.9055 225.838 83.454 230.349L85.9628 233.402L110.747 213.033L108.238 209.98C103.023 213.414 102.109 213.191 99.0029 209.412L70.0926 174.234C66.9865 170.455 66.9447 169.515 71.3235 165.064L68.8147 162.012L44.0308 182.38L46.5396 185.433C51.8273 181.94 52.7412 182.163 55.8473 185.942L68.1521 200.914L49.6914 216.086L37.3865 201.114Z" fill="#447964"/>
<path d="M126.825 195.777C122.732 198.096 119.415 195.867 117.05 191.692C114.406 187.027 115.408 184.405 117.67 181.718L121.197 177.448L129.777 192.59C128.885 194.069 128.135 195.035 126.825 195.777ZM132.059 161.887C126.031 151.246 117.115 151.54 105.655 158.033C95.7515 163.644 90.0053 171.442 94.2256 178.89C95.8952 181.837 98.6452 182.873 101.483 182.347L109.872 175.971C108.35 174.239 106.956 172.542 105.889 170.659C103.71 166.812 103.453 163.497 106.646 161.689C109.838 159.88 112.339 161.815 114.473 165.58L119.203 173.928L108.786 185.886C104.134 191.225 100.811 197.001 104.846 204.122C108.834 211.161 115.889 212.353 122.765 208.458C128.822 205.026 130.942 199.608 131.368 194.825C135.053 198.467 139.929 199.057 144.676 196.367C149.26 193.77 151.805 190.057 152.976 185.825L151.151 183.94C150.717 184.51 149.792 185.359 148.646 186.008C146.682 187.121 145.462 185.541 144.349 183.577L132.059 161.887Z" fill="#447964"/>
<path d="M178.205 176.219C173.582 178.088 170.602 175.234 168.311 169.564L158.404 145.055C159.551 143.374 161.119 142.233 162.951 141.493C169.579 138.813 175.829 142.477 180.483 153.99C184.643 164.282 184.485 173.681 178.205 176.219ZM161.905 200.159C163.033 202.95 161.779 203.863 158.396 205.535L159.771 208.937L187.507 197.726L186.132 194.324C180.81 195.968 179.169 196.428 177.9 193.288L172.929 180.99C174.905 181.612 177.943 181.094 181.258 179.755C195.038 174.184 202.133 160.358 194.906 142.477C189.124 128.173 178.907 123.983 168.615 128.143C161.201 131.139 158.237 137.614 157.382 142.526L154.311 133.925L151.258 135.158L135.074 147.585L136.061 150.028L142.057 151.054L161.905 200.159Z" fill="#447964"/>
<path d="M234.985 157.737C230.147 158.942 227.595 155.699 226.118 149.765L219.733 124.112C221.103 122.608 222.815 121.697 224.732 121.22C231.671 119.493 237.347 123.994 240.347 136.044C243.028 146.816 241.558 156.101 234.985 157.737ZM215.5 179.165C216.227 182.086 214.858 182.815 211.274 183.998L212.16 187.558L241.191 180.332L240.305 176.772C234.805 177.656 233.116 177.883 232.298 174.596L229.094 161.724C230.964 162.616 234.045 162.528 237.514 161.664C251.938 158.074 260.895 145.375 256.237 126.66C252.51 111.688 242.979 106.111 232.206 108.792C224.447 110.724 220.607 116.721 219.074 121.465L217.235 112.519L214.039 113.314L196.278 123.358L196.914 125.914L202.707 127.768L215.5 179.165Z" fill="#447964"/>
<path d="M279.9 100.447L277.012 100.856L258.402 109L258.771 111.608L264.342 114.05L268.969 146.745C269.39 149.726 267.953 150.309 264.266 151.116L264.78 154.749L292.352 150.847L291.838 147.215C288.073 147.462 286.53 147.301 286.108 144.32L279.9 100.447ZM270.937 97.5349C276.525 96.744 279.498 92.2378 278.839 87.5804C278.18 82.923 274.087 79.5116 268.498 80.3024C262.723 81.1196 259.923 85.5064 260.582 90.1638C261.241 94.8212 265.161 98.352 270.937 97.5349Z" fill="#447964"/>
<path d="M330.763 141.214C330.872 144.222 329.664 144.643 325.913 145.062L326.047 148.728L353.687 147.722L353.553 144.055C349.783 143.91 348.265 143.589 348.155 140.581L347.105 111.718C346.728 101.377 341.373 96.4882 332.253 96.8202C323.792 97.1282 318.517 102.215 315.109 106.858L315.143 97.4431L311.946 97.5594L292.496 103.727L292.592 106.36L297.879 109.368L299.08 142.367C299.189 145.375 297.699 145.806 293.949 146.225L294.082 149.892L321.722 148.886L321.589 145.219C317.818 145.074 316.488 144.746 316.379 141.737L315.215 109.773C317.615 108.461 320.216 107.519 323.225 107.41C328.114 107.232 329.613 109.625 329.763 113.762L330.763 141.214Z" fill="#447964"/>
<path d="M381.524 98.6562C368.022 97.56 355.62 107.313 354.265 124.004C352.987 139.757 362.735 149.892 376.612 151.019C388.427 151.978 396.203 145.719 399.572 135.61L397.882 134.341C393.938 138.74 389.356 140.539 383.355 140.051C374.822 139.359 369.197 131.917 370.29 120.774L400.202 123.203L400.392 120.858C401.359 108.95 395.12 99.76 381.524 98.6562ZM380.079 102.503C385.143 102.914 386.475 108.591 385.737 117.687L370.734 116.469C371.911 107.786 374.922 102.084 380.079 102.503Z" fill="#447964"/>
<path d="M417.622 156.241C430.128 158.454 439.269 153.766 441.187 142.927C442.974 132.83 437.624 127.966 427.163 122.294C421.426 119.081 418.926 117.015 419.614 113.124C420.237 109.604 423.317 107.856 427.301 108.561C433.785 109.708 436.91 115.802 436.94 122.113L440.924 122.818L442.891 111.701C439.366 108.403 434.01 105.735 427.711 104.621C416.595 102.654 407.595 107.08 405.759 117.456C404.087 126.905 408.968 132.258 418.862 137.353C424.801 140.506 428.135 142.72 427.299 147.444C426.562 151.613 422.664 153.121 418.31 152.35C411.085 151.072 407.284 144.476 406.775 136.552L402.514 135.798L400.857 148.402C404.332 151.979 409.933 154.88 417.622 156.241Z" fill="#447964"/>
<path d="M461.347 165.805C473.615 169.092 483.128 165.212 485.976 154.58C488.63 144.675 483.721 139.367 473.79 132.811C468.353 129.114 466.04 126.839 467.063 123.022C467.988 119.569 471.208 118.094 475.115 119.141C481.476 120.845 484.062 127.187 483.546 133.477L487.454 134.523L490.375 123.619C487.149 120.028 482.044 116.907 475.865 115.251C464.96 112.33 455.612 115.961 452.885 126.139C450.402 135.408 454.801 141.164 464.217 147.095C469.861 150.75 472.991 153.244 471.749 157.879C470.654 161.968 466.641 163.133 462.37 161.989C455.282 160.09 452.066 153.19 452.245 145.251L448.065 144.131L445.323 156.545C448.476 160.409 453.805 163.784 461.347 165.805Z" fill="#447964"/>
<path d="M531.557 169.492C543.248 174.208 554.329 172.39 558.236 162.706C559.996 158.343 559.101 154.026 556.805 150.665L562.056 152.986L565.982 154.57L568.34 148.725L552.67 142.809C550.683 141.196 548.365 139.651 544.875 138.243C532.835 133.386 521.56 135.938 517.336 146.407C514.766 152.776 516.672 158.11 520.556 162.314C515.033 162.927 509.542 164.972 507.254 170.642C505.74 174.394 506.391 178.816 509.492 181.69C505.407 180.752 500.375 181.156 498.615 185.518C495.834 192.411 502.87 199.611 516.655 205.173C532.446 211.544 545.763 209.714 550.304 198.46C553.507 190.521 550.575 183.454 538.797 178.702L519.866 171.064C518.208 170.396 517.671 168.961 518.269 167.478C518.973 165.733 520.67 164.795 522.559 164.137C525.19 166.416 528.329 168.19 531.557 169.492ZM533.582 193.641C536.81 194.943 538.097 196.781 536.971 199.573C534.683 205.244 526.597 204.416 518.745 201.248C510.544 197.94 506.315 192.581 508.462 187.26C508.99 185.951 509.658 184.8 510.55 184.348L533.582 193.641ZM533.541 166.336C529.528 164.717 530.002 158.01 532.818 151.03C535.739 143.789 538.773 140.042 542.699 141.626C546.799 143.28 546.15 149.917 543.475 156.547C540.413 164.138 537.467 167.92 533.541 166.336Z" fill="#447964"/>
<path d="M613.944 183.714L619.75 173.262L616.979 171.862L597.394 166.817L595.867 169.84L596.915 170.896C599.179 172.883 598.876 174.943 597.646 177.378L585.472 201.478C582.695 201.34 580.677 201.164 578.158 199.891C574.127 197.855 573.678 194.572 575.841 190.289L586.233 169.716L592.124 159.306L589.353 157.907L569.684 152.819L568.157 155.842L569.205 156.898C571.552 158.927 571.249 160.988 570.019 163.423L559.627 183.996C554.749 193.652 557.707 200.733 565.18 204.508C572.654 208.283 579.267 206.249 584.242 203.913L579.875 211.931L582.814 213.415L602.017 219.427L603.671 216.152L601.698 215.05C599.053 213.608 599.522 212.264 600.964 209.409L613.944 183.714Z" fill="#447964"/>
<path d="M632.942 228.634C628.678 226.647 628.568 222.652 630.594 218.303C632.858 213.442 635.575 212.736 639.076 213.018L644.6 213.412L637.25 229.188C635.528 229.32 634.306 229.27 632.942 228.634ZM663.577 213.224C668.742 202.138 663.327 195.049 651.388 189.487C641.07 184.679 631.385 184.526 627.77 192.286C626.339 195.356 627.091 198.198 629.167 200.202L639.229 203.333C639.756 201.088 640.328 198.968 641.242 197.006C643.11 192.999 645.66 190.866 648.986 192.415C652.311 193.965 652.188 197.125 650.361 201.047L646.309 209.745L630.525 208.204C623.477 207.515 616.845 208.161 613.389 215.58C609.972 222.914 613.096 229.351 620.259 232.688C626.57 235.628 632.212 234.21 636.354 231.78C635.527 236.896 637.877 241.208 642.823 243.512C647.599 245.737 652.1 245.655 656.225 244.152L656.701 241.571C655.985 241.549 654.757 241.288 653.563 240.732C651.516 239.778 652.095 237.869 653.048 235.822L663.577 213.224Z" fill="#447964"/>
<path d="M689.453 225.14C694.632 223.676 699.627 225.36 705.171 227.454L707.284 228.251L711.902 216.018C711.355 214.805 710.091 213.624 708.067 212.86C702.522 210.767 698.212 212.86 690.716 221.795L696.185 208.374L693.193 207.244L672.871 205.404L671.94 207.869L675.651 212.689L663.988 243.581C662.925 246.398 661.384 246.218 657.764 245.153L656.468 248.585L684.632 259.218L685.928 255.786C681.144 253.276 679.252 252.159 680.681 248.375L689.453 225.14Z" fill="#447964"/>
<path d="M724.323 263.28C719.8 261.989 719.062 258.061 720.378 253.447C721.85 248.291 724.421 247.165 727.923 246.893L733.44 246.413L728.665 263.149C726.985 263.55 725.771 263.693 724.323 263.28ZM752.151 243.24C755.506 231.479 749.043 225.331 736.378 221.717C725.431 218.594 715.843 219.967 713.494 228.199C712.565 231.456 713.755 234.144 716.12 235.797L726.549 237.305C726.717 235.005 726.948 232.821 727.542 230.74C728.755 226.488 730.938 223.98 734.466 224.987C737.994 225.994 738.37 229.134 737.183 233.295L734.55 242.523L718.721 243.485C711.652 243.914 705.205 245.596 702.959 253.467C700.739 261.247 704.838 267.112 712.437 269.28C719.131 271.19 724.48 268.901 728.188 265.85C728.177 271.032 731.176 274.92 736.423 276.417C741.49 277.863 745.922 277.073 749.759 274.939L749.822 272.316C749.112 272.407 747.858 272.343 746.592 271.981C744.421 271.362 744.691 269.385 745.311 267.213L752.151 243.24Z" fill="#447964"/>
<path d="M790.433 279.368C789.912 282.333 788.643 282.492 784.888 282.12L784.253 285.733L811.495 290.514L812.13 286.901C808.472 285.972 807.054 285.341 807.575 282.376L812.567 253.93C814.356 243.737 810.138 237.839 801.15 236.262C792.811 234.798 786.591 238.673 782.289 242.503L784.286 233.302L781.135 232.749L760.826 234.724L760.371 237.319L764.914 241.364L759.206 273.887C758.686 276.853 757.138 276.963 753.383 276.59L752.749 280.204L779.991 284.985L780.625 281.371C776.968 280.443 775.735 279.845 776.256 276.88L781.785 245.375C784.405 244.593 787.146 244.215 790.111 244.735C794.93 245.581 795.897 248.234 795.181 252.311L790.433 279.368Z" fill="#447964"/>
<path d="M844.51 229.2L840.852 228.915C835.471 235.007 828.295 239.922 820.572 242.152L820.332 245.247L825.678 245.663L823.263 276.709C822.402 287.776 828.069 292.558 836.698 293.229C844.201 293.813 849.716 290.845 853.733 285.307L852.486 283.134C850.118 284.459 847.989 285.143 845.551 284.953C841.987 284.676 840.358 282.568 840.708 278.066L843.123 247.02L854.097 247.874L854.491 242.809L843.517 241.956L844.51 229.2Z" fill="#447964"/>
<path d="M885.084 242.182C871.538 242.309 860.067 253.142 860.225 269.887C860.373 285.691 870.996 294.905 884.919 294.774C896.772 294.663 903.951 287.728 906.394 277.356L904.596 276.244C901.065 280.981 896.664 283.186 890.644 283.243C882.083 283.323 875.809 276.42 875.892 265.224L905.901 264.942L905.879 262.59C905.767 250.643 898.725 242.054 885.084 242.182ZM883.992 246.143C889.072 246.096 890.912 251.629 890.997 260.754L875.946 260.895C876.334 252.142 878.818 246.192 883.992 246.143Z" fill="#447964"/>
<path d="M931.909 239.269C918.438 240.703 908.067 252.593 909.84 269.244C911.513 284.96 922.976 293.106 936.821 291.632C948.608 290.377 955.084 282.782 956.514 272.222L954.617 271.289C951.561 276.345 947.393 278.964 941.406 279.602C932.893 280.508 925.982 274.243 924.984 263.091L954.826 259.914L954.577 257.575C953.312 245.695 945.473 237.825 931.909 239.269ZM931.205 243.318C936.256 242.78 938.621 248.11 939.587 257.184L924.619 258.778C924.161 250.028 926.059 243.865 931.205 243.318Z" fill="#447964"/>
<path d="M981.298 237.001C986.079 235.968 988.542 238.901 989.873 245.062L995.397 270.625C993.941 271.902 992.273 272.647 990.434 273.045C983.261 274.595 977.546 267.745 975.102 256.434C972.857 246.044 974.769 238.412 981.298 237.001ZM984.051 218.119L987.31 233.2C984.817 231.909 981.381 231.593 977.61 232.408C964.093 235.329 955.329 247.329 959.204 265.26C962.442 280.248 971.995 287.039 982.845 284.694C989.006 283.363 993.316 279.255 995.874 272.832L997.466 281.535L1000.59 280.859L1019.39 273.428L1018.62 269.842L1016.39 270.227C1013.43 270.771 1012.94 269.432 1012.27 266.305L998.996 204.88L996.146 205.496L977.841 213.879L978.437 216.637L984.051 218.119Z" fill="#447964"/>
<path d="M1050.54 193.56C1047.44 189.78 1047.4 188.84 1051.77 184.389L1049.27 181.337L1024.48 201.705L1026.99 204.758C1032.28 201.265 1033.19 201.488 1036.3 205.267L1065.21 240.444C1068.31 244.224 1068.36 245.163 1063.91 249.674L1066.41 252.727L1091.2 232.358L1088.69 229.306C1083.47 232.739 1082.56 232.516 1079.45 228.737L1066.55 213.038L1085.01 197.866L1097.91 213.565C1101.02 217.344 1101.06 218.284 1096.61 222.795L1099.12 225.847L1123.9 205.479L1121.4 202.426C1116.18 205.86 1115.27 205.637 1112.16 201.857L1083.25 166.68C1080.14 162.901 1080.1 161.961 1084.48 157.51L1081.97 154.457L1057.19 174.826L1059.7 177.879C1064.98 174.385 1065.9 174.608 1069 178.388L1081.31 193.36L1062.85 208.532L1050.54 193.56Z" fill="#447964"/>
<path d="M1139.98 188.223C1135.89 190.541 1132.57 188.312 1130.21 184.138C1127.56 179.472 1128.56 176.851 1130.83 174.163L1134.35 169.894L1142.93 185.036C1142.04 186.515 1141.29 187.481 1139.98 188.223ZM1145.22 154.332C1139.19 143.692 1130.27 143.986 1118.81 150.479C1108.91 156.09 1103.16 163.887 1107.38 171.336C1109.05 174.282 1111.8 175.319 1114.64 174.793L1123.03 168.417C1121.51 166.685 1120.11 164.988 1119.05 163.105C1116.87 159.258 1116.61 155.943 1119.8 154.134C1122.99 152.326 1125.5 154.26 1127.63 158.025L1132.36 166.374L1121.94 178.332C1117.29 183.671 1113.97 189.446 1118 196.567C1121.99 203.606 1129.05 204.799 1135.92 200.903C1141.98 197.472 1144.1 192.053 1144.52 187.271C1148.21 190.913 1153.09 191.503 1157.83 188.813C1162.42 186.216 1164.96 182.503 1166.13 178.271L1164.31 176.386C1163.87 176.956 1162.95 177.804 1161.8 178.454C1159.84 179.567 1158.62 177.987 1157.51 176.023L1145.22 154.332Z" fill="#447964"/>
<path d="M1191.36 168.665C1186.74 170.533 1183.76 167.679 1181.47 162.01L1171.56 137.501C1172.71 135.82 1174.28 134.679 1176.11 133.938C1182.74 131.259 1188.99 134.922 1193.64 146.435C1197.8 156.727 1197.64 166.127 1191.36 168.665ZM1175.06 192.605C1176.19 195.396 1174.94 196.309 1171.55 197.981L1172.93 201.382L1200.66 190.171L1199.29 186.77C1193.97 188.414 1192.33 188.874 1191.06 185.734L1186.09 173.436C1188.06 174.058 1191.1 173.54 1194.41 172.2C1208.2 166.63 1215.29 152.803 1208.06 134.923C1202.28 120.619 1192.06 116.428 1181.77 120.588C1174.36 123.585 1171.39 130.06 1170.54 134.972L1167.47 126.37L1164.42 127.604L1148.23 140.031L1149.22 142.473L1155.21 143.5L1175.06 192.605Z" fill="#447964"/>
<path d="M1248.14 150.183C1243.3 151.387 1240.75 148.145 1239.27 142.211L1232.89 116.558C1234.26 115.054 1235.97 114.143 1237.89 113.666C1244.83 111.939 1250.5 116.439 1253.5 128.49C1256.19 139.262 1254.72 148.547 1248.14 150.183ZM1228.66 171.611C1229.38 174.532 1228.01 175.261 1224.43 176.444L1225.32 180.004L1254.35 172.778L1253.46 169.218C1247.96 170.102 1246.27 170.328 1245.46 167.042L1242.25 154.17C1244.12 155.062 1247.2 154.974 1250.67 154.11C1265.09 150.52 1274.05 137.82 1269.39 119.106C1265.67 104.134 1256.14 98.5568 1245.36 101.238C1237.6 103.17 1233.76 109.166 1232.23 113.911L1230.39 104.965L1227.2 105.76L1209.43 115.804L1210.07 118.36L1215.86 120.214L1228.66 171.611Z" fill="#447964"/>
<path d="M1293.06 92.8928L1290.17 93.3014L1271.56 101.446L1271.93 104.054L1277.5 106.496L1282.13 139.191C1282.55 142.172 1281.11 142.755 1277.42 143.562L1277.94 147.194L1305.51 143.293L1305 139.66C1301.23 139.908 1299.69 139.746 1299.27 136.766L1293.06 92.8928ZM1284.09 89.9805C1289.68 89.1897 1292.66 84.6835 1292 80.0261C1291.34 75.3687 1287.24 71.9573 1281.66 72.7481C1275.88 73.5653 1273.08 77.952 1273.74 82.6094C1274.4 87.2669 1278.32 90.7977 1284.09 89.9805Z" fill="#447964"/>
<path d="M1343.92 133.659C1344.03 136.668 1342.82 137.088 1339.07 137.507L1339.2 141.174L1366.84 140.168L1366.71 136.501C1362.94 136.356 1361.42 136.035 1361.31 133.026L1360.26 104.164C1359.89 93.8224 1354.53 88.9339 1345.41 89.2659C1336.95 89.5739 1331.67 94.6611 1328.27 99.3038L1328.3 89.8887L1325.1 90.0051L1305.65 96.1732L1305.75 98.8056L1311.04 101.814L1312.24 134.813C1312.35 137.821 1310.86 138.252 1307.11 138.671L1307.24 142.337L1334.88 141.331L1334.75 137.665C1330.98 137.52 1329.65 137.191 1329.54 134.183L1328.37 102.218C1330.77 100.907 1333.37 99.9651 1336.38 99.8556C1341.27 99.6777 1342.77 102.071 1342.92 106.207L1343.92 133.659Z" fill="#447964"/>
<path d="M1394.68 91.1019C1381.18 90.0057 1368.78 99.7588 1367.42 116.449C1366.14 132.202 1375.89 142.338 1389.77 143.465C1401.58 144.424 1409.36 138.165 1412.73 128.056L1411.04 126.786C1407.1 131.185 1402.51 132.984 1396.51 132.497C1387.98 131.804 1382.35 124.363 1383.45 113.22L1413.36 115.648L1413.55 113.304C1414.52 101.396 1408.28 92.2057 1394.68 91.1019ZM1393.24 94.9487C1398.3 95.3598 1399.63 101.037 1398.89 110.132L1383.89 108.914C1385.07 100.232 1388.08 94.5301 1393.24 94.9487Z" fill="#447964"/>
<path d="M1430.78 148.687C1443.29 150.899 1452.43 146.211 1454.34 135.373C1456.13 125.275 1450.78 120.412 1440.32 114.739C1434.58 111.527 1432.08 109.46 1432.77 105.57C1433.39 102.049 1436.47 100.301 1440.46 101.006C1446.94 102.154 1450.07 108.248 1450.1 114.559L1454.08 115.263L1456.05 104.147C1452.52 100.848 1447.17 98.181 1440.87 97.0664C1429.75 95.0994 1420.75 99.5259 1418.92 109.901C1417.24 119.35 1422.13 124.704 1432.02 129.799C1437.96 132.951 1441.29 135.165 1440.46 139.89C1439.72 144.058 1435.82 145.566 1431.47 144.796C1424.24 143.517 1420.44 136.921 1419.93 128.997L1415.67 128.243L1414.01 140.848C1417.49 144.424 1423.09 147.326 1430.78 148.687Z" fill="#447964"/>
<path d="M1474.5 158.251C1486.77 161.537 1496.28 157.658 1499.13 147.026C1501.79 137.121 1496.88 131.813 1486.95 125.256C1481.51 121.56 1479.2 119.284 1480.22 115.468C1481.15 112.015 1484.36 110.54 1488.27 111.587C1494.63 113.291 1497.22 119.633 1496.7 125.922L1500.61 126.969L1503.53 116.065C1500.31 112.473 1495.2 109.353 1489.02 107.697C1478.12 104.776 1468.77 108.407 1466.04 118.584C1463.56 127.853 1467.96 133.609 1477.37 139.541C1483.02 143.196 1486.15 145.69 1484.91 150.324C1483.81 154.413 1479.8 155.578 1475.53 154.434C1468.44 152.535 1465.22 145.635 1465.4 137.697L1461.22 136.577L1458.48 148.991C1461.63 152.855 1466.96 156.23 1474.5 158.251Z" fill="#447964"/>
<path d="M1544.71 161.938C1556.41 166.654 1567.49 164.835 1571.39 155.151C1573.15 150.789 1572.26 146.471 1569.96 143.11L1575.21 145.432L1579.14 147.016L1581.5 141.171L1565.83 135.254C1563.84 133.641 1561.52 132.097 1558.03 130.689C1545.99 125.832 1534.72 128.384 1530.49 138.853C1527.92 145.222 1529.83 150.556 1533.71 154.76C1528.19 155.372 1522.7 157.417 1520.41 163.088C1518.9 166.84 1519.55 171.261 1522.65 174.136C1518.56 173.198 1513.53 173.602 1511.77 177.964C1508.99 184.856 1516.03 192.057 1529.81 197.619C1545.6 203.989 1558.92 202.16 1563.46 190.905C1566.66 182.966 1563.73 175.9 1551.95 171.148L1533.02 163.51C1531.37 162.841 1530.83 161.407 1531.43 159.924C1532.13 158.179 1533.83 157.241 1535.72 156.583C1538.35 158.861 1541.49 160.635 1544.71 161.938ZM1546.74 186.086C1549.97 187.389 1551.25 189.227 1550.13 192.019C1547.84 197.69 1539.75 196.862 1531.9 193.694C1523.7 190.385 1519.47 185.027 1521.62 179.705C1522.15 178.397 1522.81 177.246 1523.71 176.794L1546.74 186.086ZM1546.7 158.781C1542.68 157.162 1543.16 150.455 1545.97 143.476C1548.9 136.235 1551.93 132.488 1555.86 134.072C1559.96 135.726 1559.31 142.363 1556.63 148.993C1553.57 156.583 1550.62 160.365 1546.7 158.781Z" fill="#447964"/>
<path d="M1627.1 176.16L1632.91 165.708L1630.14 164.308L1610.55 159.263L1609.02 162.286L1610.07 163.342C1612.34 165.328 1612.03 167.389 1610.8 169.824L1598.63 193.923C1595.85 193.786 1593.83 193.609 1591.31 192.337C1587.28 190.301 1586.83 187.017 1589 182.735L1599.39 162.162L1605.28 151.752L1602.51 150.352L1582.84 145.265L1581.31 148.288L1582.36 149.344C1584.71 151.373 1584.41 153.433 1583.18 155.869L1572.78 176.441C1567.91 186.098 1570.86 193.178 1578.34 196.953C1585.81 200.729 1592.42 198.694 1597.4 196.359L1593.03 204.377L1595.97 205.861L1615.17 211.872L1616.83 208.597L1614.86 207.495C1612.21 206.054 1612.68 204.71 1614.12 201.855L1627.1 176.16Z" fill="#447964"/>
<path d="M1646.1 221.08C1641.84 219.093 1641.72 215.098 1643.75 210.749C1646.02 205.888 1648.73 205.182 1652.23 205.464L1657.76 205.858L1650.41 221.634C1648.69 221.766 1647.46 221.715 1646.1 221.08ZM1676.73 205.67C1681.9 194.584 1676.48 187.494 1664.55 181.932C1654.23 177.125 1644.54 176.972 1640.93 184.732C1639.5 187.802 1640.25 190.643 1642.32 192.648L1652.39 195.779C1652.91 193.534 1653.49 191.413 1654.4 189.452C1656.27 185.444 1658.82 183.311 1662.14 184.861C1665.47 186.41 1665.35 189.57 1663.52 193.493L1659.47 202.191L1643.68 200.649C1636.63 199.961 1630 200.607 1626.55 208.026C1623.13 215.36 1626.25 221.797 1633.42 225.134C1639.73 228.074 1645.37 226.655 1649.51 224.226C1648.68 229.341 1651.03 233.654 1655.98 235.958C1660.76 238.183 1665.26 238.1 1669.38 236.597L1669.86 234.017C1669.14 233.995 1667.91 233.734 1666.72 233.178C1664.67 232.224 1665.25 230.314 1666.21 228.268L1676.73 205.67Z" fill="#447964"/>
<path d="M1702.61 217.585C1707.79 216.121 1712.78 217.806 1718.33 219.899L1720.44 220.697L1725.06 208.463C1724.51 207.251 1723.25 206.07 1721.22 205.306C1715.68 203.212 1711.37 205.306 1703.87 214.241L1709.34 200.82L1706.35 199.69L1686.03 197.85L1685.1 200.314L1688.81 205.134L1677.15 236.027C1676.08 238.843 1674.54 238.664 1670.92 237.599L1669.62 241.031L1697.79 251.664L1699.08 248.232C1694.3 245.721 1692.41 244.605 1693.84 240.821L1702.61 217.585Z" fill="#447964"/>
<path d="M1737.48 255.725C1732.96 254.435 1732.22 250.507 1733.54 245.893C1735.01 240.736 1737.58 239.611 1741.08 239.339L1746.6 238.858L1741.82 255.595C1740.14 255.996 1738.93 256.138 1737.48 255.725ZM1765.31 235.686C1768.66 223.925 1762.2 217.776 1749.53 214.163C1738.59 211.039 1729 212.413 1726.65 220.645C1725.72 223.902 1726.91 226.589 1729.28 228.243L1739.71 229.751C1739.87 227.45 1740.11 225.266 1740.7 223.186C1741.91 218.934 1744.1 216.426 1747.62 217.433C1751.15 218.439 1751.53 221.579 1750.34 225.741L1747.71 234.968L1731.88 235.93C1724.81 236.359 1718.36 238.042 1716.12 245.912C1713.9 253.692 1718 259.558 1725.59 261.726C1732.29 263.636 1737.64 261.347 1741.35 258.296C1741.33 263.477 1744.33 267.366 1749.58 268.863C1754.65 270.308 1759.08 269.519 1762.92 267.385L1762.98 264.762C1762.27 264.852 1761.02 264.788 1759.75 264.427C1757.58 263.807 1757.85 261.83 1758.47 259.659L1765.31 235.686Z" fill="#447964"/>
<path d="M1803.59 271.813C1803.07 274.778 1801.8 274.938 1798.04 274.565L1797.41 278.179L1824.65 282.96L1825.29 279.346C1821.63 278.418 1820.21 277.787 1820.73 274.822L1825.72 246.375C1827.51 236.183 1823.3 230.285 1814.31 228.707C1805.97 227.244 1799.75 231.119 1795.45 234.948L1797.44 225.748L1794.29 225.195L1773.98 227.17L1773.53 229.765L1778.07 233.809L1772.36 266.333C1771.84 269.298 1770.3 269.409 1766.54 269.036L1765.91 272.65L1793.15 277.431L1793.78 273.817C1790.12 272.889 1788.89 272.29 1789.41 269.325L1794.94 237.821C1797.56 237.039 1800.3 236.661 1803.27 237.181C1808.09 238.027 1809.05 240.68 1808.34 244.757L1803.59 271.813Z" fill="#447964"/>
<path d="M1857.67 221.645L1854.01 221.361C1848.63 227.453 1841.45 232.368 1833.73 234.598L1833.49 237.693L1838.84 238.109L1836.42 269.154C1835.56 280.222 1841.23 285.003 1849.85 285.675C1857.36 286.258 1862.87 283.29 1866.89 277.752L1865.64 275.58C1863.28 276.905 1861.15 277.589 1858.71 277.399C1855.14 277.122 1853.51 275.013 1853.87 270.511L1856.28 239.466L1867.25 240.32L1867.65 235.255L1856.67 234.401L1857.67 221.645Z" fill="#447964"/>
<path d="M1898.24 234.628C1884.69 234.755 1873.22 245.587 1873.38 262.332C1873.53 278.136 1884.15 287.351 1898.08 287.22C1909.93 287.109 1917.11 280.174 1919.55 269.802L1917.75 268.69C1914.22 273.427 1909.82 275.632 1903.8 275.688C1895.24 275.769 1888.97 268.866 1889.05 257.669L1919.06 257.388L1919.04 255.036C1918.92 243.089 1911.88 234.5 1898.24 234.628ZM1897.15 238.589C1902.23 238.542 1904.07 244.075 1904.15 253.2L1889.1 253.341C1889.49 244.588 1891.98 238.638 1897.15 238.589Z" fill="#447964"/>
<path d="M1945.07 231.715C1931.6 233.149 1921.22 245.038 1923 261.69C1924.67 277.406 1936.13 285.552 1949.98 284.078C1961.76 282.823 1968.24 275.227 1969.67 264.668L1967.77 263.735C1964.72 268.791 1960.55 271.41 1954.56 272.047C1946.05 272.954 1939.14 266.688 1938.14 255.536L1967.98 252.36L1967.73 250.021C1966.47 238.14 1958.63 230.271 1945.07 231.715ZM1944.36 235.763C1949.41 235.226 1951.78 240.556 1952.74 249.63L1937.78 251.223C1937.32 242.473 1939.22 236.311 1944.36 235.763Z" fill="#447964"/>
<path d="M1994.46 229.447C1999.24 228.414 2001.7 231.346 2003.03 237.507L2008.55 263.07C2007.1 264.348 2005.43 265.093 2003.59 265.49C1996.42 267.04 1990.7 260.19 1988.26 248.88C1986.01 238.489 1987.93 230.858 1994.46 229.447ZM1997.21 210.565L2000.47 225.645C1997.97 224.355 1994.54 224.039 1990.77 224.854C1977.25 227.775 1968.49 239.774 1972.36 257.705C1975.6 272.694 1985.15 279.485 1996 277.14C2002.16 275.809 2006.47 271.701 2009.03 265.277L2010.62 273.981L2013.75 273.305L2032.55 265.874L2031.77 262.288L2029.55 262.673C2026.58 263.217 2026.1 261.877 2025.43 258.751L2012.15 197.326L2009.3 197.942L1991 206.324L1991.59 209.083L1997.21 210.565Z" fill="#447964"/>
<path d="M2063.7 186.005C2060.6 182.226 2060.55 181.286 2064.93 176.835L2062.42 173.783L2037.64 194.151L2040.15 197.204C2045.44 193.71 2046.35 193.934 2049.46 197.713L2078.37 232.89C2081.47 236.669 2081.51 237.609 2077.06 242.12L2079.57 245.173L2104.36 224.804L2101.85 221.751C2096.63 225.185 2095.72 224.962 2092.61 221.183L2079.71 205.484L2098.17 190.312L2111.07 206.011C2114.18 209.79 2114.22 210.73 2109.77 215.241L2112.28 218.293L2137.06 197.924L2134.55 194.872C2129.34 198.305 2128.42 198.082 2125.32 194.303L2096.41 159.126C2093.3 155.347 2093.26 154.407 2097.64 149.956L2095.13 146.903L2070.35 167.272L2072.85 170.324C2078.14 166.831 2079.06 167.054 2082.16 170.833L2094.47 185.806L2076.01 200.977L2063.7 186.005Z" fill="#447964"/>
<path d="M2153.14 180.668C2149.05 182.987 2145.73 180.758 2143.36 176.584C2140.72 171.918 2141.72 169.296 2143.98 166.609L2147.51 162.34L2156.09 177.482C2155.2 178.961 2154.45 179.926 2153.14 180.668ZM2158.37 146.778C2152.35 136.137 2143.43 136.432 2131.97 142.924C2122.07 148.536 2116.32 156.333 2120.54 163.781C2122.21 166.728 2124.96 167.765 2127.8 167.239L2136.19 160.863C2134.67 159.13 2133.27 157.433 2132.2 155.551C2130.02 151.704 2129.77 148.389 2132.96 146.58C2136.15 144.772 2138.65 146.706 2140.79 150.471L2145.52 158.82L2135.1 170.777C2130.45 176.116 2127.13 181.892 2131.16 189.013C2135.15 196.052 2142.2 197.245 2149.08 193.349C2155.14 189.917 2157.26 184.499 2157.68 179.716C2161.37 183.359 2166.24 183.948 2170.99 181.259C2175.57 178.661 2178.12 174.948 2179.29 170.717L2177.47 168.832C2177.03 169.402 2176.11 170.25 2174.96 170.9C2173 172.013 2171.78 170.433 2170.66 168.468L2158.37 146.778Z" fill="#447964"/>
<path d="M2204.52 161.111C2199.9 162.979 2196.92 160.125 2194.63 154.456L2184.72 129.947C2185.87 128.266 2187.43 127.124 2189.27 126.384C2195.89 123.705 2202.14 127.368 2206.8 138.881C2210.96 149.173 2210.8 158.572 2204.52 161.111ZM2188.22 185.051C2189.35 187.842 2188.09 188.755 2184.71 190.427L2186.09 193.828L2213.82 182.617L2212.45 179.216C2207.12 180.859 2205.48 181.32 2204.21 178.18L2199.24 165.882C2201.22 166.503 2204.26 165.986 2207.57 164.646C2221.35 159.076 2228.45 145.249 2221.22 127.369C2215.44 113.065 2205.22 108.874 2194.93 113.034C2187.52 116.031 2184.55 122.505 2183.7 127.417L2180.63 118.816L2177.57 120.05L2161.39 132.477L2162.38 134.919L2168.37 135.946L2188.22 185.051Z" fill="#447964"/>
<path d="M2261.3 142.629C2256.46 143.833 2253.91 140.591 2252.43 134.657L2246.05 109.004C2247.42 107.499 2249.13 106.589 2251.05 106.111C2257.99 104.384 2263.66 108.885 2266.66 120.936C2269.34 131.708 2267.87 140.993 2261.3 142.629ZM2241.82 164.057C2242.54 166.978 2241.17 167.707 2237.59 168.889L2238.48 172.45L2267.51 165.224L2266.62 161.664C2261.12 162.548 2259.43 162.774 2258.61 159.488L2255.41 146.616C2257.28 147.508 2260.36 147.419 2263.83 146.556C2278.25 142.966 2287.21 130.266 2282.55 111.551C2278.83 96.5798 2269.29 91.0026 2258.52 93.6839C2250.76 95.6154 2246.92 101.612 2245.39 106.357L2243.55 97.4105L2240.35 98.2058L2222.59 108.25L2223.23 110.806L2229.02 112.66L2241.82 164.057Z" fill="#447964"/>
<path d="M2306.21 85.3386L2303.33 85.7472L2284.72 93.8914L2285.09 96.4995L2290.66 98.9416L2295.28 131.637C2295.71 134.617 2294.27 135.201 2290.58 136.008L2291.1 139.64L2318.67 135.739L2318.15 132.106C2314.39 132.354 2312.84 132.192 2312.42 129.211L2306.21 85.3386ZM2297.25 82.4263C2302.84 81.6355 2305.81 77.1293 2305.15 72.4719C2304.5 67.8145 2300.4 64.4031 2294.81 65.1939C2289.04 66.0111 2286.24 70.3978 2286.9 75.0552C2287.56 79.7127 2291.48 83.2435 2297.25 82.4263Z" fill="#447964"/>
<path d="M2357.08 126.105C2357.19 129.114 2355.98 129.534 2352.23 129.953L2352.36 133.62L2380 132.613L2379.87 128.947C2376.1 128.802 2374.58 128.48 2374.47 125.472L2373.42 96.6098C2373.04 86.2682 2367.69 81.3797 2358.57 81.7117C2350.11 82.0197 2344.83 87.1069 2341.42 91.7496L2341.46 82.3345L2338.26 82.4509L2318.81 88.619L2318.91 91.2514L2324.19 94.2596L2325.39 127.258C2325.5 130.267 2324.01 130.698 2320.26 131.117L2320.4 134.783L2348.04 133.777L2347.9 130.11C2344.13 129.965 2342.8 129.637 2342.69 126.629L2341.53 94.664C2343.93 93.3529 2346.53 92.4109 2349.54 92.3014C2354.43 92.1235 2355.93 94.5165 2356.08 98.6531L2357.08 126.105Z" fill="#447964"/>
<path d="M2407.84 83.5477C2394.34 82.4515 2381.94 92.2046 2380.58 108.895C2379.3 124.648 2389.05 134.784 2402.93 135.91C2414.74 136.87 2422.52 130.611 2425.89 120.502L2424.2 119.232C2420.25 123.631 2415.67 125.43 2409.67 124.943C2401.14 124.25 2395.51 116.809 2396.6 105.666L2426.52 108.094L2426.71 105.75C2427.67 93.8414 2421.44 84.6515 2407.84 83.5477ZM2406.39 87.3945C2411.46 87.8056 2412.79 93.4825 2412.05 102.578L2397.05 101.36C2398.23 92.6777 2401.24 86.9759 2406.39 87.3945Z" fill="#447964"/>
<path d="M2443.94 141.132C2456.44 143.345 2465.58 138.657 2467.5 127.819C2469.29 117.721 2463.94 112.858 2453.48 107.185C2447.74 103.973 2445.24 101.906 2445.93 98.0154C2446.55 94.4952 2449.63 92.7473 2453.62 93.4521C2460.1 94.5995 2463.23 100.694 2463.26 107.004L2467.24 107.709L2469.21 96.5928C2465.68 93.2941 2460.33 90.6268 2454.03 89.5122C2442.91 87.5452 2433.91 91.9717 2432.07 102.347C2430.4 111.796 2435.28 117.15 2445.18 122.244C2451.12 125.397 2454.45 127.611 2453.61 132.336C2452.88 136.504 2448.98 138.012 2444.63 137.242C2437.4 135.963 2433.6 129.367 2433.09 121.443L2428.83 120.689L2427.17 133.294C2430.65 136.87 2436.25 139.772 2443.94 141.132Z" fill="#447964"/>
<path d="M2487.66 150.697C2499.93 153.983 2509.44 150.104 2512.29 139.472C2514.94 129.567 2510.04 124.259 2500.11 117.702C2494.67 114.005 2492.36 111.73 2493.38 107.914C2494.3 104.461 2497.52 102.986 2501.43 104.033C2507.79 105.737 2510.38 112.078 2509.86 118.368L2513.77 119.415L2516.69 108.51C2513.46 104.919 2508.36 101.798 2502.18 100.143C2491.28 97.2215 2481.93 100.853 2479.2 111.03C2476.72 120.299 2481.12 126.055 2490.53 131.987C2496.18 135.641 2499.31 138.136 2498.06 142.77C2496.97 146.859 2492.96 148.024 2488.68 146.88C2481.6 144.981 2478.38 138.081 2478.56 130.143L2474.38 129.023L2471.64 141.437C2474.79 145.3 2480.12 148.676 2487.66 150.697Z" fill="#447964"/>
<path d="M2557.87 154.383C2569.56 159.1 2580.64 157.281 2584.55 147.597C2586.31 143.235 2585.42 138.917 2583.12 135.556L2588.37 137.878L2592.3 139.462L2594.66 133.617L2578.99 127.7C2577 126.087 2574.68 124.543 2571.19 123.135C2559.15 118.278 2547.87 120.83 2543.65 131.299C2541.08 137.667 2542.99 143.001 2546.87 147.206C2541.35 147.818 2535.86 149.863 2533.57 155.534C2532.06 159.285 2532.71 163.707 2535.81 166.581C2531.72 165.643 2526.69 166.048 2524.93 170.41C2522.15 177.302 2529.19 184.503 2542.97 190.064C2558.76 196.435 2572.08 194.606 2576.62 183.351C2579.82 175.412 2576.89 168.346 2565.11 163.594L2546.18 155.956C2544.52 155.287 2543.99 153.853 2544.58 152.37C2545.29 150.625 2546.99 149.687 2548.87 149.028C2551.51 151.307 2554.64 153.081 2557.87 154.383ZM2559.9 178.532C2563.13 179.835 2564.41 181.673 2563.29 184.465C2561 190.135 2552.91 189.308 2545.06 186.14C2536.86 182.831 2532.63 177.473 2534.78 172.151C2535.31 170.842 2535.97 169.691 2536.86 169.24L2559.9 178.532ZM2559.86 151.227C2555.84 149.608 2556.32 142.901 2559.13 135.922C2562.05 128.681 2565.09 124.934 2569.01 126.518C2573.11 128.172 2572.47 134.808 2569.79 141.439C2566.73 149.029 2563.78 152.811 2559.86 151.227Z" fill="#447964"/>
<path d="M2640.26 168.605L2646.07 158.153L2643.29 156.754L2623.71 151.708L2622.18 154.731L2623.23 155.788C2625.49 157.774 2625.19 159.835 2623.96 162.27L2611.79 186.369C2609.01 186.232 2606.99 186.055 2604.47 184.783C2600.44 182.746 2599.99 179.463 2602.16 175.18L2612.55 154.608L2618.44 144.198L2615.67 142.798L2596 137.711L2594.47 140.734L2595.52 141.79C2597.87 143.819 2597.56 145.879 2596.33 148.314L2585.94 168.887C2581.06 178.544 2584.02 185.624 2591.5 189.399C2598.97 193.174 2605.58 191.14 2610.56 188.804L2606.19 196.822L2609.13 198.307L2628.33 204.318L2629.99 201.043L2628.01 199.941C2625.37 198.5 2625.84 197.156 2627.28 194.301L2640.26 168.605Z" fill="#447964"/>
<path d="M2659.26 213.525C2654.99 211.539 2654.88 207.544 2656.91 203.195C2659.17 198.334 2661.89 197.627 2665.39 197.909L2670.92 198.304L2663.57 214.08C2661.84 214.211 2660.62 214.161 2659.26 213.525ZM2689.89 198.115C2695.06 187.03 2689.64 179.94 2677.7 174.378C2667.38 169.571 2657.7 169.418 2654.08 177.178C2652.65 180.248 2653.41 183.089 2655.48 185.094L2665.54 188.225C2666.07 185.98 2666.64 183.859 2667.56 181.898C2669.42 177.89 2671.97 175.757 2675.3 177.307C2678.63 178.856 2678.5 182.016 2676.68 185.939L2672.62 194.637L2656.84 193.095C2649.79 192.406 2643.16 193.053 2639.7 200.472C2636.29 207.805 2639.41 214.243 2646.57 217.58C2652.88 220.52 2658.53 219.101 2662.67 216.672C2661.84 221.787 2664.19 226.099 2669.14 228.404C2673.91 230.629 2678.41 230.546 2682.54 229.043L2683.02 226.463C2682.3 226.44 2681.07 226.18 2679.88 225.623C2677.83 224.67 2678.41 222.76 2679.36 220.713L2689.89 198.115Z" fill="#447964"/>
<path d="M2715.77 210.031C2720.95 208.567 2725.94 210.252 2731.49 212.345L2733.6 213.143L2738.22 200.909C2737.67 199.697 2736.41 198.516 2734.38 197.751C2728.84 195.658 2724.53 197.751 2717.03 206.687L2722.5 193.266L2719.51 192.136L2699.19 190.296L2698.26 192.76L2701.97 197.58L2690.3 228.473C2689.24 231.289 2687.7 231.109 2684.08 230.044L2682.78 233.477L2710.95 244.11L2712.24 240.677C2707.46 238.167 2705.57 237.051 2707 233.266L2715.77 210.031Z" fill="#447964"/>
<path d="M2750.64 248.171C2746.11 246.881 2745.38 242.952 2746.69 238.339C2748.16 233.182 2750.74 232.057 2754.24 231.784L2759.76 231.304L2754.98 248.04C2753.3 248.442 2752.09 248.584 2750.64 248.171ZM2778.47 228.131C2781.82 216.371 2775.36 210.222 2762.69 206.608C2751.75 203.485 2742.16 204.859 2739.81 213.091C2738.88 216.348 2740.07 219.035 2742.44 220.688L2752.86 222.196C2753.03 219.896 2753.26 217.712 2753.86 215.632C2755.07 211.38 2757.25 208.872 2760.78 209.879C2764.31 210.885 2764.69 214.025 2763.5 218.187L2760.87 227.414L2745.04 228.376C2737.97 228.805 2731.52 230.487 2729.27 238.358C2727.05 246.138 2731.15 252.003 2738.75 254.172C2745.45 256.082 2750.8 253.792 2754.5 250.741C2754.49 255.923 2757.49 259.812 2762.74 261.309C2767.8 262.754 2772.24 261.964 2776.07 259.831L2776.14 257.207C2775.43 257.298 2774.17 257.234 2772.91 256.873C2770.74 256.253 2771.01 254.276 2771.63 252.105L2778.47 228.131Z" fill="#447964"/>
<path d="M2816.75 264.259C2816.23 267.224 2814.96 267.384 2811.2 267.011L2810.57 270.625L2837.81 275.406L2838.44 271.792C2834.79 270.864 2833.37 270.233 2833.89 267.268L2838.88 238.821C2840.67 228.628 2836.45 222.73 2827.46 221.153C2819.13 219.689 2812.91 223.565 2808.6 227.394L2810.6 218.193L2807.45 217.64L2787.14 219.616L2786.69 222.21L2791.23 226.255L2785.52 258.779C2785 261.744 2783.45 261.854 2779.7 261.482L2779.06 265.096L2806.31 269.877L2806.94 266.263C2803.28 265.335 2802.05 264.736 2802.57 261.771L2808.1 230.267C2810.72 229.485 2813.46 229.106 2816.43 229.627C2821.24 230.472 2822.21 233.125 2821.5 237.202L2816.75 264.259Z" fill="#447964"/>
<path d="M2870.82 214.091L2867.17 213.807C2861.79 219.899 2854.61 224.814 2846.89 227.044L2846.65 230.139L2851.99 230.555L2849.58 261.6C2848.72 272.668 2854.38 277.449 2863.01 278.12C2870.52 278.704 2876.03 275.736 2880.05 270.198L2878.8 268.025C2876.43 269.351 2874.3 270.035 2871.87 269.845C2868.3 269.568 2866.67 267.459 2867.02 262.957L2869.44 231.912L2880.41 232.766L2880.81 227.701L2869.83 226.847L2870.82 214.091Z" fill="#447964"/>
<path d="M2911.4 227.073C2897.85 227.2 2886.38 238.033 2886.54 254.778C2886.69 270.582 2897.31 279.796 2911.23 279.666C2923.09 279.555 2930.27 272.619 2932.71 262.248L2930.91 261.136C2927.38 265.873 2922.98 268.078 2916.96 268.134C2908.4 268.215 2902.12 261.311 2902.21 250.115L2932.22 249.834L2932.19 247.482C2932.08 235.535 2925.04 226.945 2911.4 227.073ZM2910.31 231.035C2915.39 230.987 2917.23 236.521 2917.31 245.646L2902.26 245.787C2902.65 237.034 2905.13 231.083 2910.31 231.035Z" fill="#447964"/>
<path d="M2958.22 224.161C2944.75 225.595 2934.38 237.484 2936.15 254.135C2937.83 269.851 2949.29 277.997 2963.14 276.524C2974.92 275.269 2981.4 267.673 2982.83 257.114L2980.93 256.181C2977.88 261.236 2973.71 263.856 2967.72 264.493C2959.21 265.399 2952.3 259.134 2951.3 247.982L2981.14 244.805L2980.89 242.467C2979.63 230.586 2971.79 222.717 2958.22 224.161ZM2957.52 228.209C2962.57 227.671 2964.94 233.002 2965.9 242.076L2950.93 243.669C2950.48 234.919 2952.37 228.757 2957.52 228.209Z" fill="#447964"/>
<path d="M3007.61 221.893C3012.39 220.859 3014.86 223.792 3016.19 229.953L3021.71 255.516C3020.26 256.793 3018.59 257.539 3016.75 257.936C3009.58 259.486 3003.86 252.636 3001.42 241.326C2999.17 230.935 3001.08 223.303 3007.61 221.893ZM3010.37 203.011L3013.62 218.091C3011.13 216.801 3007.7 216.485 3003.93 217.3C2990.41 220.22 2981.64 232.22 2985.52 250.151C2988.76 265.14 2998.31 271.93 3009.16 269.586C3015.32 268.254 3019.63 264.147 3022.19 257.723L3023.78 266.426L3026.91 265.751L3045.71 258.32L3044.93 254.734L3042.7 255.119C3039.74 255.663 3039.26 254.323 3038.58 251.197L3025.31 189.771L3022.46 190.387L3004.16 198.77L3004.75 201.529L3010.37 203.011Z" fill="#447964"/>
<path d="M3076.86 178.451C3073.75 174.672 3073.71 173.732 3078.09 169.281L3075.58 166.228L3050.8 186.597L3053.31 189.65C3058.59 186.156 3059.51 186.379 3062.61 190.159L3091.52 225.336C3094.63 229.115 3094.67 230.055 3090.22 234.566L3092.73 237.618L3117.51 217.25L3115 214.197C3109.79 217.631 3108.88 217.408 3105.77 213.628L3092.87 197.929L3111.33 182.757L3124.23 198.456C3127.34 202.236 3127.38 203.176 3122.93 207.686L3125.43 210.739L3150.22 190.37L3147.71 187.318C3142.5 190.751 3141.58 190.528 3138.48 186.749L3109.56 151.572C3106.46 147.792 3106.42 146.853 3110.8 142.401L3108.29 139.349L3083.5 159.718L3086.01 162.77C3091.3 159.277 3092.21 159.5 3095.32 163.279L3107.62 178.251L3089.16 193.423L3076.86 178.451Z" fill="#447964"/>
<path d="M3166.3 173.114C3162.2 175.433 3158.89 173.204 3156.52 169.029C3153.88 164.364 3154.88 161.742 3157.14 159.055L3160.67 154.785L3169.25 169.928C3168.36 171.406 3167.61 172.372 3166.3 173.114ZM3171.53 139.224C3165.5 128.583 3156.59 128.877 3145.13 135.37C3135.22 140.982 3129.48 148.779 3133.7 156.227C3135.37 159.174 3138.12 160.211 3140.95 159.684L3149.34 153.309C3147.82 151.576 3146.43 149.879 3145.36 147.997C3143.18 144.15 3142.93 140.835 3146.12 139.026C3149.31 137.217 3151.81 139.152 3153.94 142.917L3158.68 151.266L3148.26 163.223C3143.61 168.562 3140.28 174.338 3144.32 181.459C3148.31 188.498 3155.36 189.691 3162.24 185.795C3168.29 182.363 3170.41 176.945 3170.84 172.162C3174.53 175.805 3179.4 176.394 3184.15 173.704C3188.73 171.107 3191.28 167.394 3192.45 163.163L3190.62 161.277C3190.19 161.848 3189.26 162.696 3188.12 163.345C3186.15 164.458 3184.93 162.879 3183.82 160.914L3171.53 139.224Z" fill="#447964"/>
<path d="M3217.68 153.557C3213.05 155.425 3210.07 152.571 3207.78 146.902L3197.88 122.393C3199.02 120.711 3200.59 119.57 3202.42 118.83C3209.05 116.15 3215.3 119.814 3219.96 131.327C3224.12 141.619 3223.96 151.018 3217.68 153.557ZM3201.38 177.497C3202.51 180.288 3201.25 181.201 3197.87 182.872L3199.24 186.274L3226.98 175.063L3225.6 171.661C3220.28 173.305 3218.64 173.765 3217.37 170.625L3212.4 158.327C3214.38 158.949 3217.42 158.432 3220.73 157.092C3234.51 151.522 3241.61 137.695 3234.38 119.815C3228.6 105.511 3218.38 101.32 3208.09 105.48C3200.67 108.477 3197.71 114.951 3196.85 119.863L3193.78 111.262L3190.73 112.496L3174.55 124.923L3175.53 127.365L3181.53 128.391L3201.38 177.497Z" fill="#447964"/>
<path d="M3274.46 135.075C3269.62 136.279 3267.07 133.036 3265.59 127.102L3259.2 101.45C3260.58 99.9453 3262.29 99.0344 3264.2 98.5572C3271.14 96.8303 3276.82 101.331 3279.82 113.381C3282.5 124.154 3281.03 133.439 3274.46 135.075ZM3254.97 156.502C3255.7 159.424 3254.33 160.152 3250.75 161.335L3251.63 164.896L3280.66 157.67L3279.78 154.109C3274.28 154.994 3272.59 155.22 3271.77 151.934L3268.57 139.062C3270.44 139.953 3273.52 139.865 3276.99 139.002C3291.41 135.412 3300.37 122.712 3295.71 103.997C3291.98 89.0256 3282.45 83.4484 3271.68 86.1297C3263.92 88.0612 3260.08 94.058 3258.55 98.8023L3256.71 89.8563L3253.51 90.6516L3235.75 100.695L3236.39 103.252L3242.18 105.106L3254.97 156.502Z" fill="#447964"/>
<path d="M3319.37 77.7844L3316.48 78.193L3297.87 86.3372L3298.24 88.9453L3303.81 91.3874L3308.44 124.082C3308.86 127.063 3307.42 127.647 3303.74 128.453L3304.25 132.086L3331.82 128.185L3331.31 124.552C3327.54 124.8 3326 124.638 3325.58 121.657L3319.37 77.7844ZM3310.41 74.8721C3316 74.0813 3318.97 69.5751 3318.31 64.9177C3317.65 60.2603 3313.56 56.8489 3307.97 57.6397C3302.2 58.4569 3299.4 62.8436 3300.05 67.501C3300.71 72.1585 3304.63 75.6893 3310.41 74.8721Z" fill="#447964"/>
<path d="M3370.23 118.551C3370.34 121.559 3369.14 121.98 3365.39 122.399L3365.52 126.065L3393.16 125.059L3393.03 121.393C3389.25 121.248 3387.74 120.926 3387.63 117.918L3386.58 89.0556C3386.2 78.714 3380.84 73.8255 3371.73 74.1575C3363.26 74.4655 3357.99 79.5527 3354.58 84.1954L3354.61 74.7803L3351.42 74.8967L3331.97 81.0648L3332.06 83.6972L3337.35 86.7054L3338.55 119.704C3338.66 122.713 3337.17 123.144 3333.42 123.562L3333.55 127.229L3361.19 126.223L3361.06 122.556C3357.29 122.411 3355.96 122.083 3355.85 119.075L3354.69 87.1098C3357.09 85.7987 3359.69 84.8567 3362.7 84.7472C3367.59 84.5693 3369.08 86.9623 3369.24 91.0989L3370.23 118.551Z" fill="#447964"/>
<path d="M3421 75.9935C3407.49 74.8973 3395.09 84.6504 3393.74 101.341C3392.46 117.094 3402.21 127.23 3416.08 128.356C3427.9 129.315 3435.68 123.057 3439.04 112.948L3437.35 111.678C3433.41 116.077 3428.83 117.876 3422.83 117.389C3414.29 116.696 3408.67 109.255 3409.76 98.1115L3439.67 100.54L3439.86 98.1957C3440.83 86.2872 3434.59 77.0973 3421 75.9935ZM3419.55 79.8403C3424.61 80.2514 3425.95 85.9283 3425.21 95.0238L3410.21 93.8058C3411.38 85.1235 3414.39 79.4217 3419.55 79.8403Z" fill="#447964"/>
<path d="M3457.09 133.578C3469.6 135.791 3478.74 131.103 3480.66 120.265C3482.45 110.167 3477.1 105.303 3466.64 99.631C3460.9 96.4185 3458.4 94.352 3459.09 90.4612C3459.71 86.941 3462.79 85.1931 3466.77 85.8979C3473.26 87.0453 3476.38 93.1395 3476.41 99.4502L3480.4 100.155L3482.36 89.0386C3478.84 85.7399 3473.48 83.0726 3467.18 81.958C3456.07 79.991 3447.07 84.4175 3445.23 94.7928C3443.56 104.242 3448.44 109.596 3458.33 114.69C3464.27 117.843 3467.61 120.057 3466.77 124.781C3466.03 128.95 3462.14 130.458 3457.78 129.687C3450.56 128.409 3446.76 121.813 3446.25 113.889L3441.99 113.135L3440.33 125.739C3443.8 129.316 3449.41 132.218 3457.09 133.578Z" fill="#447964"/>
<path d="M3500.82 143.142C3513.09 146.429 3522.6 142.55 3525.45 131.918C3528.1 122.013 3523.19 116.704 3513.26 110.148C3507.82 106.451 3505.51 104.176 3506.54 100.359C3507.46 96.9064 3510.68 95.4315 3514.59 96.4783C3520.95 98.1825 3523.53 104.524 3523.02 110.814L3526.93 111.861L3529.85 100.956C3526.62 97.3649 3521.52 94.2442 3515.34 92.5887C3504.43 89.6673 3495.08 93.2985 3492.36 103.476C3489.87 112.745 3494.27 118.501 3503.69 124.432C3509.33 128.087 3512.46 130.581 3511.22 135.216C3510.13 139.305 3506.11 140.47 3501.84 139.326C3494.75 137.427 3491.54 130.527 3491.72 122.589L3487.54 121.469L3484.8 133.882C3487.95 137.746 3493.28 141.122 3500.82 143.142Z" fill="#447964"/>
<path d="M3571.03 146.829C3582.72 151.546 3593.8 149.727 3597.71 140.043C3599.47 135.681 3598.57 131.363 3596.28 128.002L3601.53 130.324L3605.45 131.908L3607.81 126.062L3592.14 120.146C3590.16 118.533 3587.84 116.989 3584.35 115.581C3572.31 110.723 3561.03 113.275 3556.81 123.745C3554.24 130.113 3556.14 135.447 3560.03 139.651C3554.51 140.264 3549.01 142.309 3546.73 147.98C3545.21 151.731 3545.86 156.153 3548.96 159.027C3544.88 158.089 3539.85 158.493 3538.09 162.856C3535.31 169.748 3542.34 176.949 3556.13 182.51C3571.92 188.881 3585.24 187.051 3589.78 175.797C3592.98 167.858 3590.05 160.791 3578.27 156.04L3559.34 148.402C3557.68 147.733 3557.14 146.299 3557.74 144.816C3558.45 143.071 3560.14 142.132 3562.03 141.474C3564.66 143.753 3567.8 145.527 3571.03 146.829ZM3573.05 170.978C3576.28 172.28 3577.57 174.119 3576.44 176.91C3574.16 182.581 3566.07 181.754 3558.22 178.586C3550.02 175.277 3545.79 169.919 3547.93 164.597C3548.46 163.288 3549.13 162.137 3550.02 161.686L3573.05 170.978ZM3573.01 143.673C3569 142.054 3569.47 135.347 3572.29 128.368C3575.21 121.126 3578.24 117.379 3582.17 118.963C3586.27 120.618 3585.62 127.254 3582.95 133.885C3579.89 141.475 3576.94 145.257 3573.01 143.673Z" fill="#447964"/>
<path d="M3653.42 161.051L3659.22 150.599L3656.45 149.199L3636.87 144.154L3635.34 147.177L3636.39 148.233C3638.65 150.22 3638.35 152.28 3637.12 154.716L3624.94 178.815C3622.17 178.677 3620.15 178.501 3617.63 177.228C3613.6 175.192 3613.15 171.909 3615.31 167.626L3625.71 147.053L3631.6 136.644L3628.83 135.244L3609.16 130.156L3607.63 133.179L3608.68 134.236C3611.02 136.265 3610.72 138.325 3609.49 140.76L3599.1 161.333C3594.22 170.99 3597.18 178.07 3604.65 181.845C3612.13 185.62 3618.74 183.586 3623.71 181.25L3619.35 189.268L3622.29 190.753L3641.49 196.764L3643.14 193.489L3641.17 192.387C3638.53 190.946 3638.99 189.601 3640.44 186.746L3653.42 161.051Z" fill="#447964"/>
<path d="M3672.41 205.971C3668.15 203.985 3668.04 199.989 3670.07 195.64C3672.33 190.78 3675.05 190.073 3678.55 190.355L3684.07 190.749L3676.72 206.525C3675 206.657 3673.78 206.607 3672.41 205.971ZM3703.05 190.561C3708.21 179.475 3702.8 172.386 3690.86 166.824C3680.54 162.017 3670.86 161.864 3667.24 169.624C3665.81 172.694 3666.56 175.535 3668.64 177.54L3678.7 180.671C3679.23 178.425 3679.8 176.305 3680.71 174.344C3682.58 170.336 3685.13 168.203 3688.46 169.752C3691.78 171.302 3691.66 174.462 3689.83 178.385L3685.78 187.083L3670 185.541C3662.95 184.852 3656.32 185.499 3652.86 192.918C3649.44 200.251 3652.57 206.688 3659.73 210.026C3666.04 212.966 3671.68 211.547 3675.83 209.118C3675 214.233 3677.35 218.545 3682.3 220.85C3687.07 223.074 3691.57 222.992 3695.7 221.489L3696.17 218.908C3695.46 218.886 3694.23 218.625 3693.04 218.069C3690.99 217.116 3691.57 215.206 3692.52 213.159L3703.05 190.561Z" fill="#447964"/>
<path d="M3728.93 202.477C3734.1 201.013 3739.1 202.698 3744.64 204.791L3746.76 205.589L3751.37 193.355C3750.83 192.142 3749.56 190.961 3747.54 190.197C3741.99 188.104 3737.68 190.197 3730.19 199.132L3735.66 185.711L3732.66 184.582L3712.34 182.742L3711.41 185.206L3715.12 190.026L3703.46 220.918C3702.4 223.735 3700.86 223.555 3697.24 222.49L3695.94 225.923L3724.1 236.556L3725.4 233.123C3720.62 230.613 3718.72 229.497 3720.15 225.712L3728.93 202.477Z" fill="#447964"/>
<path d="M3763.8 240.617C3759.27 239.326 3758.53 235.398 3759.85 230.785C3761.32 225.628 3763.89 224.503 3767.39 224.23L3772.91 223.75L3768.14 240.486C3766.46 240.887 3765.24 241.03 3763.8 240.617ZM3791.62 220.577C3794.98 208.817 3788.51 202.668 3775.85 199.054C3764.9 195.931 3755.32 197.304 3752.97 205.537C3752.04 208.794 3753.23 211.481 3755.59 213.134L3766.02 214.642C3766.19 212.342 3766.42 210.158 3767.01 208.077C3768.23 203.825 3770.41 201.318 3773.94 202.324C3777.47 203.331 3777.84 206.471 3776.66 210.632L3774.02 219.86L3758.19 220.822C3751.12 221.251 3744.68 222.933 3742.43 230.804C3740.21 238.584 3744.31 244.449 3751.91 246.617C3758.6 248.527 3763.95 246.238 3767.66 243.187C3767.65 248.369 3770.65 252.258 3775.9 253.755C3780.96 255.2 3785.39 254.41 3789.23 252.277L3789.29 249.653C3788.58 249.744 3787.33 249.68 3786.06 249.318C3783.89 248.699 3784.16 246.722 3784.78 244.551L3791.62 220.577Z" fill="#447964"/>
<path d="M3829.9 256.705C3829.38 259.67 3828.11 259.829 3824.36 259.457L3823.73 263.071L3850.97 267.852L3851.6 264.238C3847.94 263.309 3846.53 262.679 3847.05 259.713L3852.04 231.267C3853.83 221.074 3849.61 215.176 3840.62 213.599C3832.28 212.135 3826.06 216.01 3821.76 219.84L3823.76 210.639L3820.61 210.086L3800.3 212.062L3799.84 214.656L3804.39 218.701L3798.68 251.225C3798.16 254.19 3796.61 254.3 3792.86 253.928L3792.22 257.541L3819.46 262.323L3820.1 258.709C3816.44 257.78 3815.21 257.182 3815.73 254.217L3821.26 222.713C3823.88 221.931 3826.62 221.552 3829.58 222.073C3834.4 222.918 3835.37 225.571 3834.65 229.648L3829.9 256.705Z" fill="#447964"/>
<path d="M3883.98 206.537L3880.32 206.252C3874.94 212.345 3867.77 217.259 3860.04 219.489L3859.8 222.585L3865.15 223L3862.73 254.046C3861.87 265.113 3867.54 269.895 3876.17 270.566C3883.67 271.15 3889.19 268.182 3893.2 262.644L3891.96 260.471C3889.59 261.797 3887.46 262.48 3885.02 262.291C3881.46 262.013 3879.83 259.905 3880.18 255.403L3882.6 224.358L3893.57 225.211L3893.96 220.147L3882.99 219.293L3883.98 206.537Z" fill="#447964"/>
<path d="M3924.56 219.519C3911.01 219.646 3899.54 230.479 3899.7 247.224C3899.85 263.028 3910.47 272.242 3924.39 272.112C3936.24 272 3943.42 265.065 3945.87 254.693L3944.07 253.581C3940.54 258.318 3936.14 260.524 3930.12 260.58C3921.56 260.66 3915.28 253.757 3915.36 242.561L3945.37 242.279L3945.35 239.928C3945.24 227.981 3938.2 219.391 3924.56 219.519ZM3923.46 223.481C3928.54 223.433 3930.38 228.967 3930.47 238.092L3915.42 238.233C3915.81 229.48 3918.29 223.529 3923.46 223.481Z" fill="#447964"/>
<path d="M3971.38 216.607C3957.91 218.041 3947.54 229.93 3949.31 246.581C3950.99 262.297 3962.45 270.443 3976.29 268.969C3988.08 267.715 3994.56 260.119 3995.99 249.56L3994.09 248.626C3991.03 253.682 3986.87 256.302 3980.88 256.939C3972.37 257.845 3965.45 251.58 3964.46 240.428L3994.3 237.251L3994.05 234.913C3992.78 223.032 3984.95 215.163 3971.38 216.607ZM3970.68 220.655C3975.73 220.117 3978.09 225.447 3979.06 234.521L3964.09 236.115C3963.63 227.365 3965.53 221.203 3970.68 220.655Z" fill="#447964"/>
<path d="M4020.77 214.338C4025.55 213.305 4028.01 216.238 4029.35 222.399L4034.87 247.962C4033.41 249.239 4031.75 249.985 4029.91 250.382C4022.73 251.932 4017.02 245.082 4014.57 233.772C4012.33 223.381 4014.24 215.749 4020.77 214.338ZM4023.52 195.456L4026.78 210.537C4024.29 209.247 4020.85 208.931 4017.08 209.745C4003.57 212.666 3994.8 224.666 3998.68 242.597C4001.91 257.585 4011.47 264.376 4022.32 262.031C4028.48 260.7 4032.79 256.593 4035.35 250.169L4036.94 258.872L4040.06 258.197L4058.86 250.766L4058.09 247.18L4055.86 247.565C4052.9 248.108 4052.42 246.769 4051.74 243.642L4038.47 182.217L4035.62 182.833L4017.31 191.216L4017.91 193.975L4023.52 195.456Z" fill="#447964"/>
</svg>
