<?xml version="1.0" encoding="UTF-8"?>
<svg width="16px" height="15px" viewBox="0 0 16 15" version="1.1" 
    xmlns="http://www.w3.org/2000/svg" 
    xmlns:xlink="http://www.w3.org/1999/xlink">
    <g id="V2-design-dev" stroke="none" stroke-width="1" fill="none" fill-rule="evenodd">
        <g id="icons/arrows/right" transform="translate(0.000000, 1.000000)" fill="#000000" fill-rule="nonzero">
            <g id="arrow-left" transform="translate(8.000000, 6.750000) scale(-1, 1) translate(-8.000000, -6.750000) translate(0.500000, 0.187500)">
                <path d="M14.8076923,5.97836538 C15.0838347,5.97836538 15.3076923,6.20222301 15.3076923,6.47836538 C15.3076923,6.72382527 15.1308171,6.92797375 14.8975679,6.97030972 L14.8076923,6.97836538 L0,6.97836538 C-0.276142375,6.97836538 -0.5,6.75450776 -0.5,6.47836538 C-0.5,6.2329055 -0.323124839,6.02875701 -0.0898756324,5.98642105 L0,5.97836538 L14.8076923,5.97836538 Z" id="Path"></path>
                <path d="M7.07459385,-0.376288347 C7.28241217,-0.558129374 7.59829347,-0.53707062 7.7801345,-0.329252304 C7.94177097,-0.144524912 7.94309156,0.125585586 7.79543207,0.31104232 L7.73309846,0.376288347 L0.759,6.478 L7.73309846,12.5804424 C7.91782585,12.7420789 7.95499013,13.0096237 7.83325551,13.2130401 L7.7801345,13.2859831 C7.61849803,13.4707105 7.35095319,13.5078747 7.14753685,13.3861401 L7.07459385,13.3330191 L-0.329252304,6.85465373 C-0.531619944,6.67758205 -0.554105237,6.37807302 -0.396708184,6.17379304 L-0.329252304,6.10207704 L7.07459385,-0.376288347 Z" id="Path"></path>
            </g>
        </g>
    </g>
</svg>