<svg xmlns="http://www.w3.org/2000/svg" width="59" height="16" viewBox="0 0 59 16">
    <g fill="none" fill-rule="nonzero">
        <path fill="#EEC7C8" d="M0 0h58.667v16H0z"/>
        <path fill="#000" d="M56.587 6.72c-.143-.284-.427-.284-.57-.142-4.977 3.27-8.248 3.413-9.813 2.418 1.565-1.707 1.423-3.414.285-3.414-1.138 0-2.276 1.28-1.565 3.271-1.28 1.28-3.128 2.418-3.982 2.134-.853-.57.711-2.56.996-3.84 0 0 0-.285-.142-.427h-.57a.306.306 0 0 1-.284.284c-.569.854-1.564 1.85-2.56 2.56-.995.712-1.706 1.138-2.133.996h-.142c-.143-.142-.143-.284-.143-.427 0-.284.143-.71.285-1.137.284-.996.853-1.707 1.28-2.703.142-.142.142-.142.142-.426-.142-.285-.711-.427-.853-.143l-.285.427-.142.142c-.142.143-.427.427-.711.57-.249.15-.498.32-.756.488a28.19 28.19 0 0 1-1.066.64c-.107.053-.41.196-.445.258-2.32 1.28-5.137 2.418-7.83 2.738-1.894.266-3.512-.427-4.036-1.6.382-.214.764-.427 1.146-.658 1.565-.667 3.885-1.885 3.671-3.147-.07-.853-1.28-1.066-2.275-.853-1.28.284-2.845 1.422-3.413 2.844a3.052 3.052 0 0 0-.285 1.307c-1.938.96-3.867 1.707-5.262 1.964-2.133.427-.996-1.28-.285-3.555.285-.427.285-1.138-.142-1.422-1.28-.854-3.413.569-6.258 2.133.285-.711.427-1.422.143-2.418-.143-.569-.711-.426-.854 0v.142c.071.498-1.92 1.494-3.129 2.134-.64.284-.142 1.138.427.853.853-.427 1.778-.924 2.702-1.564-.142.71-.569 1.564-1.564 2.417-.427.356-.782.712-.925.996-.355.711.214.924.64.711.285-.142.925-.782 1.352-1.351 1.564-1.138 6.328-4.338 6.755-3.2-.427 1.564-2.844 5.689.996 5.12 1.849-.338 3.742-1.022 5.635-1.964.587 1.262 2.205 2.035 3.894 2.035 3.102.053 6.71-1.395 9.44-2.915h.017C34.258 8.853 35.68 8 35.68 8c-.569 1.138-1.138 2.987-.142 3.413 1.209.57 3.27-.782 4.48-2.133-.427.711-.498 2.062.498 2.56 1.848.569 3.697-1.138 4.977-2.276h.143c1.99 1.565 5.688 1.138 10.808-2.275.285 0 .285-.427.143-.569zM25.369 5.582c0 .391-.4.818-.942 1.218-.143-.044-2.17 1.102-3.058 1.573.551-1.466 2.338-3.209 4-2.79zm21.12.711c.284.427-.285 1.423-.853 1.991-.285-.853.284-1.848.853-1.99z"/>
    </g>
</svg>
