<svg width="52" height="44" xmlns="http://www.w3.org/2000/svg" xmlns:xlink="http://www.w3.org/1999/xlink">
  <defs>
    <path id="a" d="M.00085227.46898508h6.14172254v2.0906144H.00085227z"/>
    <path id="c" d="M.67198573.5961531h5.61038961V1.9814345H.67198574z"/>
  </defs>
  <g fill="none" fill-rule="evenodd">
    <path d="M24.36844327 9.02901003c6.19813203-7.53651894 15.83821238-17.3666584 8.68713167 6.4711443-1.40998177 4.70010996-4.93339447 14.51580888-8.86361118 17.96667948-3.37738073 2.96546076-7.88624165-8.92375533-9.73702224-11.87505909-4.30925175-6.87164723-10.37931997-33.96137926 8.50529995-11.1293491l1.4082018-1.43341559z" fill="#EEC7C8" fill-rule="nonzero"/>
    <path d="M11.4798315 9.1683535c-.0578141.0052917-.1165316.0097014-.1734423.0149931.177959 1.5319454.3893417 3.0603631.5266502 4.5967182.2131894 2.3891998.6919624 4.6954965 1.7199691 6.9038968.8997318 1.93676 1.4625158 4.0058123 2.2827531 5.9857878 1.1273748 2.7199307 2.6675782 5.1311793 4.5627963 7.3651561.6549252.7708234.6982858.7293718 1.253843-.1252367 1.5591737-2.4068389 3.0424664-4.8736502 4.774179-7.1578981 1.9557422-2.5788189 3.7488823-5.2502424 5.1897177-8.1165767 1.2348728-2.454464 2.5194296-4.8886433 3.4065145-7.5203791.6757021-2.0029061 1.2348728-3.96700656 1.1644119-6.06869103-.023487-.65440615-.1707323-1.33086103-.3983752-1.94910728-.3369478-.91458111-.9223154-1.08303337-1.7777832-.61295456-1.429092.78758046-2.5573701 1.93940585-3.5926036 3.1318009-1.2050624 1.38642382-2.2628795 2.89984831-3.0370463 4.58172507-.2628734.5723849-.6088546 1.1280127-1.0108432 1.6201403-1.0551071 1.2938192-2.0921473 2.5629438-2.502266 4.2439386-.1056914.4348008-.76423.8025736-1.251133 1.0398178-.1183382.0599726-.6513118-.4621412-.8374009-.7990458-.6314383-1.1430059-1.2258394-2.3080605-1.7741699-3.491636-.944899-2.0425939-1.6043409-4.19631338-2.837407-6.12866363-.7597132-1.1897492-1.6757052-2.17576818-2.7497826-3.04977964-.6133713-.49918313-1.2655865-.49918313-1.615181.03175016-.6205981.94015764-1.2673932 1.8988362-1.3170772 3.07271032-.0343271.80962918-.0063234 1.6219042-.0063234 2.43153339M39.257694 6.35758204c-.0867211.48330805-.1662155.96749805-.2583567 1.44992415-.1734422.89694211-.3532079 1.79212041-.5320702 2.68994441-.0352305.1710981-.0551041.3554255-.1318884.5106485-.7868136 1.5751609-.9674827 3.3672813-1.9575489 4.8886433-.7064159 1.0812695-1.1020811 2.352158-1.7497795 3.4748791-.9196054 1.5919179-1.9241251 3.1362106-2.9268382 4.6787394-.6711855 1.0309984-1.376698 2.0443578-2.120151 3.0286129-1.0225867 1.3529097-1.9855526 2.7772574-3.1942284 3.9573051-.6224048.6085448-1.070464 1.1888673-1.4209619 1.9588087-.2294496.5035929-.8654046.813157-1.2285493 1.279708-.429089.5529821-.7371297 1.193277-1.1445383 1.7656619-.1878958.2637028-.4878064.6332394-.7326129.6314818-.3306243-.005298-.9096686-.2866397-.9439957-.5124186-.1228549-.8105112-.795847-1.1950409-1.2836534-1.6245501-1.6269246-1.4331671-2.9485185-3.078884-3.9891721-4.9433241-.5320702-.9551508-1.0045197-1.9473434-1.4426421-2.9474736-1.149055-2.6140968-2.3839278-5.2017352-3.3550238-7.8802143-.8184307-2.2551436-1.149055-4.6478712-1.1138246-7.0573559.023487-1.5451746.0271004-3.10005072.204156-4.63111418.1734423-1.48343822.7064159-2.85751475 2.0406567-3.79590849.3929551-.27693199.6025312-.73201767 1.1788654-.85460858.9006351-.19050098 1.6558316-.18697319 2.4227716.43039111 1.0487837.84402519 2.3929612 1.41023645 3.2502357 2.39537348 1.1924156 1.3679029 2.3125636 2.85575086 2.80308 4.68579506.2249329.8413793.6693787 1.6342515 1.0686572 2.42095.2375798.4674329.4905165.4594954.7696501.0149931.1860891-.2954529.3053306-.6314755.4480592-.9525049.280037-.639413.4986465-1.3132221.8464344-1.9138293.7064158-1.22238135 1.4796793-2.40772081 2.2294557-3.60364365 1.2303561-1.96498237 2.8356004-3.51544871 5.0614428-4.39034211.3685648-.14375769.7190627-.32896698 1.0686572-.51241237 1.6883521-.88724069 3.596217-.11818117 4.5257591 1.09361676C38.7373672 3.51153262 39.20259 4.6721775 39.257694 6.35758204" fill="#1D1D1B"/>
    <path d="M31.97414498 21.45470872c-3.81932565-5.24826943-9.88725113-12.17349364-6.50259783 3.78839915.66735354 3.14721332 2.46521452 9.74951064 4.97665743 12.20859655 2.15817585 2.11318367 6.10887915-5.43401576 7.6003763-7.26999389 3.47271672-4.27478664 9.53934848-21.68660359-5.18787458-7.7170483l-.88656132-1.0099535z" fill="#EEC7C8" fill-rule="nonzero"/>
    <path d="M5.2607078 23.9948843c-.3456378.59586992-.68232575 1.19223233-1.04236744 1.77791157-.05358942.08749337-.303054.2094722-.32016092.16432134-.0554383-.14014641-.08106683-.33095398-.04927564-.54241374.17367195-1.18819048.60463652-2.42586199 1.44695333-3.72004975.43456406-.66818268.86549236-1.33867562 1.31712054-1.9928997.17166864-.24932137.39195718-.49579893.59829975-.67426403.16792708-.14366028.43886929-.30601183.502197-.24188139.10655433.10717836.1732575.36148192.09868997.60185917-.21177748.68196135-.48738295 1.38569735-.7706133 2.08458862-.10598731.25988926-.2866801.5471077-.46536724.79300856-.42486184.58708553-.8688515 1.15786233-1.31547606 1.74981935" fill="#1D1D1B"/>
    <g transform="rotate(-27 36.76992672 8.47331775)">
      <mask id="b" fill="#fff">
        <use xlink:href="#a"/>
      </mask>
      <path d="M2.92755682 2.55959948c-.83863637-.0663673-1.678125-.12562381-2.51335227-.20621267C.26676136 2.33916525.13806818 2.23250352 0 2.16909905c.140625-.07940373.26335227-.19554649.42357955-.23406323.98778409-.2311004 2.00539772-.41064764 2.97272727-.67611682.93153409-.25480301 1.63721591.12858664 2.39659091.32591083.43465909.1137725.46789772.43553537.07840909.61567518-.34943182.16117771-.79261364.26606174-1.21107955.30280078-.56676136.0509606-1.14886363.013629-1.725.013629-.00255682.013629-.00511363.02844313-.00767045.04266469" fill="#1D1D1B" mask="url(#b)"/>
    </g>
    <path d="M1.51554713 11.06735496c.16099622.0223454.4639909.0120948.69934398.10785228 1.0315047.41829253 1.9976461.91957224 2.74373574 1.65759486.25813549.25635953.12801131.55196872-.27471343.53993177-1.43574537-.04354378-2.79661967-.26726033-3.6865129-1.29505278-.39627065-.45838754-.20619588-.88938199.51814661-1.01032613M41.700623 11.8268402c-.1092384-.1203587-.2919766-.2335909-.3492931-.4054187-.0667567-.2011257-.1132842-.5455733-.0182064-.6667238 1.1793698-1.5084426 2.3749231-3.00184037 3.5947515-4.46356482.2528666-.30248036.6244119-.47510004.9534756-.68018489.0701284-.04355084.2400547-.0023755.2825363.06809767.0438302.07205684.0256238.26922336-.030344.33969653-.8840216 1.11490142-1.2029707 2.64789088-2.0546253 3.79209011-.5933936.7965844-1.314232 1.3722473-2.0883409 1.877437-.069454.0451345-.1483484.071265-.2899537.1385709M48.0858689 16.3362272c-.0298873.0017202-.0597746.0063073-.0896619.0040138-.3661196-.028096-.8682264.1209845-1.0191574-.2413958-.1486893-.3526326.208464-.6370323.5962519-.7568701 1.2119305-.3732746 2.4432877-.7064121 3.6753921-1.0349626.1748408-.0458709.4019844.0235089.6029765.0389903-.1031112.1267184-.1725992.2821061-.3138167.3744214-.764368.5051534-1.5190226 1.0240682-2.3371878 1.4741766-.2801935.1536676-.7329863.1215579-1.1073249.1748829-.0022415-.0108944-.0052303-.0212153-.0074718-.0332565" fill="#1D1D1B"/>
    <g transform="rotate(-30 44.1380424 -76.2546603)">
      <mask id="d" fill="#fff">
        <use xlink:href="#c"/>
      </mask>
      <path d="M5.75144269 1.89604096c-1.14158738-.03916546-2.28481852-.06035333-3.42476215-.12648516-.41422609-.0237561-.83420532-.12391694-1.22541885-.24205536C.58019157 1.37083862.51279764.98496257 1.01332083.81610167 1.49247522.65430339 2.1121706.53423879 2.59296874.63054729c1.13254674.22793012 2.22153398.58940801 3.31956188.91493074.14875976.0443019.24738502.19069082.36984472.2902096-.1725942.04879631-.34518841.09759262-.51778261.14574686l-.01315004-.08539353z" fill="#1D1D1B" mask="url(#d)"/>
    </g>
    <path d="M41.460335 18.3314778c-.0302521-.0068567-.0596397-.0137134-.0898917-.019713-.0164226-.3771176.0121008-.761092-.0587754-1.1262105-.1823764-.9393658-.6387497-1.1184967-1.4650619-.6119591-.088163.0531393-.1841051.1045645-.2523883.1791309-1.0216538 1.1073546-2.170366 2.1298577-3.0226085 3.3529189-.8513782 1.2239182-1.4140657 2.6466803-2.0839317 3.9931618-.2480666.4971097-.6811026.9230812-.5367572 1.5787517.090756.410544-.1374306.6993819-.5635519.8536573-.4313073.1568466-.7511143.0419972-.9931305-.3008371-.2748611-.3882598-.6102263-.7696628-.7537073-1.2059194-.4900827-1.4879006-.9507777-2.9886575-1.3405965-4.5039849-.3578381-1.3944782-.951642-2.6303957-2.0294781-3.6083304-.4874896-.4422561-1.037212-.3556905-1.1988442.2614112-.3431443 1.3130551-.7658081 2.6346811-.5661448 4.0171602.2238649 1.5538962.4892183 3.1035069.7796376 4.6471181.1244655.6642414.3612955 1.3070556.5376216 1.961869.176326.6599559.3448729 1.3224831.5099625 1.9858673.2791829 1.121068.4235282 2.2952753.8600216 3.3529189.7165406 1.7373125 1.6171864 3.4000586 2.452142 5.0876601.0674188.1371337.2273223.2288419.3440086.3419772.1054499-.1174207.2359658-.2211281.3068419-.3574047.0959421-.179988.1339732-.3891169.2160858-.5768186.2947411-.6659555.4797106-1.331911 1.0691927-1.9104438.4650167-.4576837.3500591-1.4407609.7001181-2.0784326 1.2014372-2.1889967 2.4780723-4.3377103 3.7581647-6.4829955 1.2351466-2.0690047 2.1271489-4.2888564 2.9525968-6.5344207.2670821-.7250944.3189427-1.5281836.4684741-2.2961323m-16.9100126 2.3792696c-.2420161-1.4459034.3258574-2.7675294 1.009553-4.0505865.9905374-1.8650183 3.3199426-1.7861664 4.7815472-.4336853 1.5514962 1.4339042 2.6431618 3.1455041 2.8955501 5.2925036.0043217.0342834.002593.0728522.0190155.100279.1815121.3076937.3664816.6128162.5505867.9187957.2074424-.2562686.4572376-.4902529.6119551-.7739483.2774542-.5082517.5099625-1.0422161.7398779-1.5744662.7329631-1.702172 2.1997537-2.7889566 3.4919469-4.0017327.4460012-.4182578 1.150441-.6128162 1.7701752-.79109 1.2896002-.3694039 1.8695745-.0394259 2.3008819 1.1862065.5765169 1.6361764.6517148 3.3100646.0855699 4.9333847-.5479936 1.5727521-1.2593482 3.0915078-1.936129 4.6179772-.8435991 1.9044442-1.9992261 3.6280434-3.210171 5.3216445-.3336366.4671117-.5505867 1.0165036-.8548356 1.5084707-.6180055 1.0002189-1.4036935 1.8855883-1.7641247 3.0555102-.3301791 1.0722141-.8479208 2.0861463-1.2818211 3.1266483-.052725.1268486-.0847057.2622682-.146074.3839743-.5315712 1.0559295-1.4002362 1.4381897-2.3821302.5253935-.2696751-.2494119-.485761-.5828182-.6448001-.9153674-.8582929-1.7870235-1.6776904-3.59376-2.5385763-5.3799264-1.2844142-2.6663933-2.2032111-5.4442077-2.8125732-8.3394429-.3249931-1.5393257-.7718586-3.0512247-.6854242-4.7105425" fill="#1D1D1B"/>
    <path d="M13.028 44l.322-3.584h-.434c-.68 1.2666667-1.0044444 1.3904762-1.8319879 1.3993953L8.506 41.816C10.634 40.318 13 38.764 13 36.664c0-1.638-1.134-2.632-2.912-2.632-1.904 0-2.926 1.092-3.626 2.408l.42.294c.448-.532 1.092-.91 1.876-.91 1.092 0 1.666.714 1.666 1.736 0 1.19-.532 2.184-1.666 3.304L6.07 43.538V44h6.958z" fill="#000" fill-rule="nonzero"/>
  </g>
</svg>
