<svg width="55" height="52" xmlns="http://www.w3.org/2000/svg">
  <g fill="none" fill-rule="evenodd">
    <path d="M18.4593693 11.4572509c1.904504-.4017388 2.0450146-11.68500851 4.3572147-8.92073664.5374249.64250003 1.9638594 6.49236338 2.7232592 8.39598734.4564093 1.1441034 10.7957825-1.603704 10.3483849-1.04949838-3.8125629 4.72274288-5.9911702 4.19799368-7.0804739 7.34648898-.0559343.161671-.1065501.418301-.1518474.7698898 2.5384418 5.451472 3.4968107 8.5182538 2.8751066 9.2003452-.6735857.7390124-3.5783955-1.1850681-8.7144294-5.7722413-4.0677845 4.1385252-6.4279425 5.8876893-7.0804739 5.2474921-.9787972-.9602958 1.9712339-6.2630482 2.1786073-8.3959874.2073735-2.1329392-9.35887454-4.6430518-9.25908122-5.2474921.09979333-.6044403 7.45656502-1.0791327 9.80373312-1.5742476zM46.987264 41.5173014c-.2770498-1.3982367 7.8193219-5.1053228 5.1374136-5.7614368-.6233562-.1525006-5.2671663.7700023-6.8661859.8733983-.9610321.0621423-2.0562945-7.7102705-2.3228696-7.2345441-2.2716582 4.0539711-1.2447909 5.338227-3.1914869 7.0726714-.0999603.0890614-.2699936.2049876-.5100999.3477785-4.6874157.0536329-7.1845925.3968882-7.4915305 1.0297658-.3325522.6856917 1.9197276 2.0059192 6.7568395 3.9606828-1.7743267 4.0370139-2.3335137 6.1705061-1.677561 6.4004766.9839291.3449558 3.9306281-3.3197794 5.4073179-4.1410835 1.4766899-.821304 6.1341949 4.7519013 6.5404545 4.4918076.4062597-.2600937-1.4408471-5.3162875-1.7822917-7.0395166z" fill="#E9CB8C" fill-rule="nonzero"/>
    <g fill="#1D1D1B">
      <path d="M19.5095543 6.9360985l.1900678.02218582c-.1785301.94955317-.36374 1.89861332-.5361978 2.84865951-.1135549.62120297-.4396457 1.16204407-.9224059 1.64076477-.1281288.1276917-.3200184.2894017-.4936906.297783-1.1325128.0576832-2.2188751.242565-3.3204184.4767487-1.48228628.3145456-3.02590436.4363212-4.54158914.647333-.18885336.0261299-.39835306.0606412-.54409198.1493845-.09108682.054725-.13116503.2302395-.09898102.3318013.03157677.1000827.16759976.1917841.28297641.2603136 1.07118107.6384587 2.14418388 1.2636058 3.4534052 1.5761794 1.18352149.2829925 2.34761113.6261332 3.50562833.9751901 1.11551.3367315 1.4938239.9357487 1.1325128 1.8448744-.3631328.9110977-.5386267 1.8562137-.9636986 2.7648464-.467579.998362-.5944933 2.1007508-.873219 3.1572889-.0759057.2864436-.1748867.5694361-.2465417.8568658-.1542403.6157798-.3096952 1.2315596-.4347878 1.8512835-.0224681.1109291.0564739.3012342.1597056.3451128.1086969.0453577.336414-.0049302.4499689-.0769108.2277171-.1429753.4177849-.3263781.6145325-.4989345 1.0201724-.890884 2.0439883-1.7778239 3.0501941-2.6785682.6497527-.5807755 1.2618562-1.1891601 1.9067509-1.7728937.3546314-.3204619.7347671-.6241611 1.1234042-.918986.30423-.2317186.6685773-.3027133 1.0772536-.1843889 1.0541782.3056714 2.0682781.6616305 2.8121539 1.3853813.0904796.0887433.2265026.1469195.3376285.2233373 1.1045796.7602342 2.2146244 1.5155382 3.309488 2.2861257.3461299.2445371.6394295.5383759.9782725.7912943.1572766.1173383.3522024.2124909.5501644.2775693.1991766.0660644.3382358-.0211998.3194112-.2016445-.0127522-.1153663-.0698332-.2287605-.1165912-.3401826-.3837791-.9106047-.7608786-1.8241676-1.1592316-2.7313212-.4615066-1.0511149-.8969016-2.1111041-1.427027-3.1395402-.474866-.9194791-.5465209-1.8562138-.440253-2.8210505.0163957-.1513566.069226-.3214479.175494-.4422374.7299091-.8327079 1.4063806-1.7063362 2.2401287-2.4670634 1.0815042-.9875156 2.023342-2.0553931 2.9943276-3.1084801.0722622-.0783899.1475606-.1597379.1937113-.24897424.1402737-.26968099.0133594-.46195811-.3315561-.42793985-1.0007406.09860365-2.0045174.19474221-2.9882551.36335445-.7548062.12917074-1.4822863.36581954-2.2206968.55711064-.7104773.1848818-1.4160965.3870193-2.1326462.5541525-.3910662.0907154-.7997424.1631891-1.2029534.1735425-.5058355.0128184-.8659321-.2041096-1.0450695-.6073985-.4602921-1.03484537-.986774-2.05292808-1.3820908-3.10404302-.6181759-1.65062513-1.1489085-3.32343609-1.7209337-4.98589367-.0522232-.15086359-.103839-.30715038-.1979621-.44125134-.1001955-.14396134-.2507924-.26524383-.3795284-.3968797-.1475607.14445435-.3206257.27756928-.4360023.43780021-.0661898.09318045-.0376492.23023953-.0558666.34757788-.0959448.6236681-.1931041 1.24684318-.2902633 1.87051128-.1171984.76023416-.2362185 1.5199753-.3546314 2.28020946m-5.16636221 20.4766581c.06531698-.4224912.03174283-.9413399.44684142-1.3835967.10499552-.1126643.12269829-.2974733.12819219-.4506572.0231967-.6927866.0964494-1.3687724.4028898-2.0328988.1928988-.4175497.240513-.8835253.3119344-1.3317118.2026658-1.2580847.6690413-2.4563782 1.2159947-3.637871.0091566-.0182832.0170923-.0375547.0207549-.0568262.2679828-1.1602447.2643201-1.1523384-1.0786459-1.5026849-.5725918-.1492307-1.11710352-.3641824-1.67870749-.5405909-.70139452-.2198931-1.39241158-.4689405-2.11211928-.6364545-1.30695011-.303403-2.25190983-1.0050842-3.13582565-1.7759452-.22281027-.1946918-.40411068-.46054-.47919469-.7179878-.12636089-.425456.42181342-.3883953.67819784-.4664697.90283942-.2747428 1.82216071-.530214 2.75979516-.7031636.7477879-.1383597 1.53647521-.1240296 2.29891364-.2208813.36748434-.0464494.71360331-.1961743 1.07193107-.2925319.9504537-.2569537 1.9155579-.4294091 2.9288868-.3656648.2594366.0168008.4035002-.1161233.4419579-.3187214.0177027-.0973459.0158714-.1971625.0280802-.2954967.1550515-1.33319425.296063-2.66787089.4749216-3.99908854.0518873-.38790121.220979-.76443716.3186492-1.14887937.0927868-.36368827.2142641-.7293531.2301356-1.09650036.0573812-1.23288346.4798051-2.39955193.9089438-3.56770283.0958389-.26189509.2765289-.46646974.6263105-.52576674.390681-.06572084.5695397.16701989.7569445.3735711.6336358.69822218 1.1842518 1.43399912 1.4760417 2.27651066.0714214.20605708.12514.41804385.1587142.63101891.0787466.50748349.1977822.99668374.4370744 1.48291914.3577173.72787067.5878528 1.49626097.8949037 2.24093246.3076613.7471422.6580533 1.48341328.962052 2.23154376.0964494.23570558.1446741.49512995.1434532.74318907-.0018313.57073364.2972838.71502304.9742608.52428434 1.3728775-.386913 2.7616265-.73627112 4.1479337-1.0930414.1825213-.0474376.3876288-.07906267.575644-.0652267 1.3966847.10278147 2.6865425-.28956702 4.0081432-.54503826.1623768-.03113092.3357415-.08350994.4944556-.06621498.6879649.07510953.8997873.46646973.5506161.95270513-.2881273.40420791-.5091062.84498221-.8393538 1.22448301-.5719814.6581967-1.222099 1.2724148-1.8093415 1.9227053-.455998.5035303-.8515625 1.0426389-1.3008457 1.5501224-.425476.4788232-.8753696.9443047-1.3368616 1.4008916-.2441756.2421294-.5170419.470917-.8100527.6754917-.4566084.3197096-.4859095.7234234-.0549395 1.0950179.3619904.3122975.4682068.6705502.621427 1.0391799.1782482.428915.3943437.8479471.5823589 1.2748855.1690916.3874071.3168179.7817321.4852991 1.1701275.1996136.4625166.4273073.9176211.6153226 1.3831025.4608815 1.1444321 1.077425 2.2527919 1.2703238 3.4609682.0586021.3701121.0653169.746154.0933971 1.1197251.0219758.3014264-.1861839.4170555-.5286402.450163-.4639337.0459552-.7947917-.1437952-1.1067261-.3750535-.1782482-.13243-.3302476-.2905553-.5200941-.4086552-1.0047828-.6250892-2.035204-1.2220123-3.0204527-1.8648906-.871707-.5692512-1.689085-1.1918697-2.5418684-1.7794042-.5384073-.3701121-1.0939068-.7239175-1.6512377-1.0757464-.1898466-.1200764-.405942-.2154457-.6128809-.3177331-.3522234-.1724554-.6531698-.1156291-.8985663.1433011-.4572189.4817881-.9126065.9650587-1.3673836 1.4488234-.1330758.1413245-.2435652.2994498-.3955646.4244677-.8942932.7362711-1.5908043 1.5886654-2.2787691 2.4529192-.5603831.7041519-1.3869176 1.2071881-2.2055165 1.7097302-.4358535.2683189-.8698757.457081-1.4424676.5005655-.85034163.0642384-1.30511876-.188268-1.33503027-.8657362-.00427308-.0983342-.00061044-.1976567-.00061044-.3785125M13.50462408 38.55414256l.09743927-.055832c.27834007.54326969.55336497 1.08864649.83473583 1.63002323.18360871.3542669.23708545.74286657.19353793 1.15531673-.01131583.10978918-.03951627.25927884-.11762918.3247876-.50821765.42871336-.9463475.90548271-1.37279322 1.41254486-.57406662.68203092-1.2503209 1.2881954-1.8794854 1.92964127-.0784552.07984184-.16338184.1712067-.19778732.26750825-.0217853.05981442.02634874.16272922.08012638.20274523.05292962.03948216.15156288.0378777.23169824.03183657.74483842-.05496593 1.48545599-.11730761 2.21752571-.42108481.66194657-.274394 1.33772122-.5115096 2.01290797-.74349043.65058853-.22321904 1.05601717-.05369933 1.23337659.53360493.17725815.58894448.45532837 1.12889864.60264927 1.73844764.16162072.66993029.52237878 1.27229516.79458797 1.90502588.07364142.17166253.13516437.34972018.21117166.52038185.1624941.36587706.32441966.73218266.50206313 1.0897718.0317618.0640347.14125435.13244167.20630822.11821666.06817622-.01540499.15561831-.1211766.18134546-.19764538.05211435-.15265312.0711937-.31247238.0975343-.4691621.13804971-.81051604.27930846-1.62032255.4070612-2.43089873.08282957-.52298273.13750994-1.04664798.21693771-1.56941302.04388229-.28720013.10609394-.57491938.17566817-.8611491.0541106-.22453255.1976259-.38897923.43405334-.47330655.61003645-.21729224 1.22047695-.39500969 1.84459129-.29136527.07618386.0129665.16203895-.00559513.24319095-.00614669.8068891-.00515426 1.61445767-.01473022 2.42074428-.01121998.25525132.00157684.50456065.04672873.759595.05511566.11835493.00386474.2458799-.01677439.3633635-.05369623.11842799-.03685153.15027007-.13004842.0726806-.21467675-.04994192-.05385374-.11988543-.09107127-.18424433-.1309332-.52674882-.32519346-1.05149786-.65423961-1.58375421-.97254593-.6166935-.36884246-1.2245449-.75138543-1.86471929-1.0845491-.5727749-.2975477-.96335724-.74607143-1.28135331-1.27157835-.05001366-.08234073-.09011054-.18701125-.08639831-.28559699.02433215-.6786889.00804985-1.35922346.10843125-2.03813747.12993205-.88102977.16384716-1.75343403.21704562-2.6286402.00395236-.0651431.00819878-.13285355-.00420745-.19427085-.03711748-.18589224-.1698207-.23837264-.3183322-.09948406-.43092967.40292342-.8642203.80567111-1.26050603 1.23800652-.30414093.3316216-.55452355.70796539-.82731154 1.06522337-.26215332.34416164-.51545544.69533739-.78721668 1.03266399-.14850754.18384753-.31221246.36468106-.49703578.5121658-.23192907.18493642-.48319596.20225144-.72077532.06146448-.6099237-.36104173-1.24444621-.69025402-1.83015186-1.0824475-.9185437-.61680517-1.80460552-1.27568093-2.70605303-1.91475237-.08195065-.05788357-.16568405-.1187243-.26086176-.1533474-.10177888-.0374682-.21850994-.04568446-.32895272-.06684965-.01402412.12512306-.04431045.25350813-.0372539.37525686.00452792.07048188.07012958.12973799.10632433.19551487.19279274.34930106.38482899.69878115.5770531 1.0485107.2348946.4258745.46874846.85214234.70307457 1.27844536m4.92846143 12.27089798c-.1270098-.23103655-.33530877-.47533817-.3088289-.83732381.00640071-.0919554-.0541544-.189251-.10856806-.26671643-.2468489-.34977185-.46443598-.70860066-.5703904-1.14237906-.06650828-.27280607-.21782175-.51915848-.35157579-.76498503-.37445188-.69080517-.60541974-1.44349217-.79309117-2.21581197-.00258567-.01219142-.00610008-.0244473-.01157933-.03522256-.30804974-.66517544-.30679506-.66000637-1.05454534-.36748637-.31875989.12479108-.64903704.20743385-.9728467.31501149-.40425184.13456517-.81456885.25115345-1.20777164.41790142-.71374011.30319654-1.40907331.28450298-2.10205205.21053309-.17482151-.01883298-.35700535-.08714866-.48722626-.18812463-.21624924-.16608273.0495883-.3377438.13845807-.46509309.31301963-.44835711.6407813-.8929191 1.00763782-1.30312071.29241862-.3273575.66039978-.59356866.97498386-.90552778.15171116-.15024545.25520963-.34403102.38415904-.51572222.34152595-.45608058.72119731-.8755567 1.21084102-1.19523125.12553922-.0816073.14237352-.19709332.08474951-.3103555-.02804428-.05415228-.0659891-.10275472-.09692696-.15549083-.4242648-.71135651-.85553656-1.41857936-1.26811968-2.13721003-.12032754-.20932087-.1825377-.45364684-.28052772-.67712517-.09252099-.2115488-.17258429-.434014-.3017583-.62061794-.43188912-.62803298-.67131147-1.34989098-.90819726-2.07480675-.05328017-.16239447-.04623752-.32591497.09255798-.47636384.1552141-.16778928.32396881-.11495858.48691846-.07800773.5508943.12486088 1.0775739.297013 1.52491429.6114977.1094343.07689526.21293267.16284952.30753563.25627139.22484552.22304315.46142084.42310753.75219044.58004068.43504207.23509141.8264809.53437716 1.2444704.7953119.41918871.26194194.85398489.50371534 1.27185679.76741388.13196326.08284796.25056846.1941056.3422129.31689003.21130494.28216315.40247797.24969415.64286646-.07896467.48745802-.66655584.99617345-1.32008637 1.50101105-1.97642702.06629401-.08664332.14885132-.1733128.2404475-.2316351.68042903-.4332511 1.12769244-1.07372192 1.64043045-1.65767346.0630925-.07161967.12333936-.15752766.2027481-.20399087.34425919-.20132996.58713165-.08167812.60731387.27915724.01776098.29922158.07999027.59321362.06919965.8948424-.01835095.52286327-.08897773 1.05110707-.11728481 1.57535828-.02251033.40638194-.00400736.80937358-.02196063 1.21537888-.01765947.38361873-.05150604.76911695-.09399188 1.1542466-.02227515.20404305-.06270222.41144632-.12139223.61388589-.09111883.31591944.04547209.52521408.38176596.55918138.2825345.02861906.46454081.16853216.6720177.29727723.24139385.14980997.49651711.28163104.7416673.42708179.22175464.13250804.43625646.2758316.65809767.40903858.26370814.15898188.53757299.30457761.79704999.46904068.6373188.40482443 1.3328057.73791836 1.87059485 1.2670421.16452051.16226136.3073864.34542673.4591581.51997019.12214795.1410714.06941223.27023564-.07574984.40522765-.19624426.1834214-.41891154.20446443-.64830613.1984756-.1311876-.00356135-.25985671-.02889293-.39105084-.02136685-.69437104.03981594-1.3900617.10240932-2.08206303.12668184-.6124247.02124871-1.21970483-.00265229-1.83022414.00302088-.3851447.00399088-.77208753.0219479-1.15913776.04151445-.13192883.00655111-.26674361.0343848-.39991949.0556332-.22606281.03697733-.34332128.16928613-.35991284.3820397-.03115346.39608007-.06091383.79225697-.09020979 1.18846594-.00865932.11582256-.00068805.23210636-.02411011.34644218-.1375355.67305626-.1409626 1.33486176-.13605177 1.99955597.00406417.54151288-.18901014 1.07604185-.37861902 1.60757741-.10067772.28337805-.23008542.5268781-.47721126.74673077-.36712644.32633023-.67010128.3593552-.9356764.0355415-.03851661-.04702522-.07375152-.09728758-.14097733-.18649924M51.12760173 17.68052399l-.07503041.02519544c-.09356634-.37545563-.18454426-.75190078-.28047127-1.1264733-.06242683-.24505856-.03156271-.49815154.06855742-.75612229.0264654-.06869792.07109196-.16087852.1348064-.19428813.41496823-.21896132.79112624-.47596457 1.16464321-.75349556.50271974-.3732472 1.0610276-.68733618 1.59377466-1.0288905.0664073-.04249874.13914064-.09164643.1787944-.14930433.02490863-.03576803.01026867-.10640483-.01896982-.1375951-.0287608-.03076025-.09527455-.04021684-.15012823-.04488372-.5096483-.04413161-1.01772937-.08311888-1.56155846.032518-.49168795.1043788-.98625645.1835543-1.47954767.25952317-.47526644.07300354-.71840546-.07799584-.73659045-.47075975-.0178351-.39379741-.11179006-.76711355-.10597982-1.17084892.00658293-.4436979-.13217699-.86553365-.2062531-1.29729578-.0199561-.1171165-.03067494-.23701729-.05239187-.35374798-.04625208-.2502074-.09204874-.50062719-.14989865-.74716724-.01032626-.04414354-.0721019-.09932842-.11823382-.09718258-.04843152.0025653-.1253299.06061816-.15574752.10657091-.06122981.09165422-.101506.19138034-.14612084.2883426-.2319875.50137024-.46600821 1.00194778-.691091 1.50445024-.14549428.32417104-.27220196.65176702-.41537434.97616085-.07882199.17819158-.1700424.35476637-.26595128.52961078-.07492216.137206-.19955968.22665894-.37282543.25523154-.44701487.0735381-.88750058.12183692-1.28881993-.01045303-.04893379-.01634874-.10978022-.01365173-.16437328-.02192164-.5427593-.08243745-1.08673476-.16213183-1.62760052-.25002168-.17114534-.0281203-.33081244-.0833525-.50064182-.11578552-.07881818-.01503397-.16800533-.01544098-.2532471-.00441445-.08586402.0108814-.12326272.06683488-.08569938.1289582.02428471.039593.06486047.07071878.10123143.10293506.29786167.2630013.59371826.52824309.89646208.78744458.35076412.30034684.69323603.60847706 1.06590008.8886025.33352148.2502895.51874635.5773467.64199633.94570612.01943766.05773744.02837851.12863823.00894458.191011-.13296632.42951975-.23897482.86452929-.42305139 1.28611346-.23865312.5471269-.41134292 1.09896246-.59746427 1.65053345-.01384844.04105514-.02833552.08371362-.03055795.12413447-.00701715.12229618.07308269.1698067.1966835.09715669.35863304-.2107521.71882137-.42114152 1.05924311-.6543.26123436-.17882535.49405192-.39183516.73863631-.59031324.23519221-.1912697.46564552-.38794547.70611535-.57384285.131324-.10127467.27233587-.19901596.42179937-.27328146.18753353-.09310578.35924938-.07743677.49460518.03743785.34755839.29466113.71710572.57167028 1.04304716.88359212.51086448.49028537.9926861 1.00390535 1.4882432 1.50655084.04508801.04555889.09086506.09319004.1488328.12534487.0619121.0346675.13889192.05229927.20942374.07750745.03091919-.0781729.07331997-.15669517.0895023-.23495926.00907086-.04535513-.024802-.0900511-.03780579-.13577472-.06944784-.24287265-.13835678-.4857789-.20734916-.72886382-.08456334-.29609774-.16836016-.59233533-.25246804-.88864534M49.48682346 9.2406151c.05199533.16770541.15334995.3561726.09350851.58500854-.01499724.05818035.0113289.1298689.03617527.1878793.1129133.26210276.20640628.52562831.22098457.82056426.00908877.18546814.07448543.36668084.12894045.54491357.15213916.5006445.20696362 1.01950266.23230858 1.54447415.0001639.00823024.00090218.01664162.0030488.02439637.1135868.47416999.11341803.47065653.61698156.39501462.2146762-.03230478.43153468-.03576812.64731897-.05624195.2694218-.02572897.5404969-.03898306.80683907-.08707353.48352494-.08762561.917058.02901083 1.34251165.18084536.10731103.03841487.21332426.10976345.28287032.19430037.11568187.139355-.07142727.20976756-.14233652.2783048-.24973515.24127779-.50825562.47789671-.78717197.68653405-.2223686.16655338-.4847872.2824106-.7192072.43572537-.11302751.07380891-.20104163.18287547-.30236634.27390236-.26852278.24195646-.55657819.45463098-.90163023.58657026-.0884253.03360022-.1127724.1053452-.09019079.18686199.0111058.03904864.02907934.07601737.04216786.11459053.18090168.52135704.36668849 1.04110961.53940025 1.56538775.05040197.1527331.06019952.31923678.09491107.47771491.03270932.14998265.05630728.30511204.11496723.44456525.19563457.46891262.25944062.96921427.3212917 1.47110107.01398952.11246392-.00995995.21657657-.1149174.29245957-.11731865.08456567-.21676583.02519706-.31447207-.02308461-.33032921-.16318969-.63983316-.3531527-.88261068-.62272376-.05939597-.06592151-.11398958-.13677651-.16211628-.21109606-.11426413-.1772838-.23862458-.34155294-.40210152-.48623465-.24455526-.21665706-.4541149-.46804216-.68489579-.69875537-.23141197-.23154151-.47501483-.45245927-.70539175-.6849324-.07280378-.0731396-.13384182-.16254191-.17660658-.2553016-.09871507-.21327105-.22240259-.22114993-.41231923-.0459316-.3851241.35537328-.78201409.6991708-1.17680954 1.04535911-.05189787.04575277-.1139911.08907561-.17836238.11280627-.47818637.17628503-.83500403.52092838-1.22610242.8193693-.04809657.03657155-.09611676.08276128-.15143327.10069809-.23980068.07769628-.37771443-.03580095-.34725361-.27091744.02461704-.1951238.02074109-.3935743.06353914-.58595072.07396702-.3335313.1813382-.66265825.26171052-.99558434.06265762-.2579877.09920718-.51996538.15896393-.77839645.0568981-.24407677.12416524-.48692707.19680262-.72824055.0383369-.1278839.088451-.25519808.14941762-.37657209.09484714-.18948235.0342499-.34464542-.17244805-.417088-.17364571-.06091446-.2709939-.17828593-.38563888-.2923064-.13338406-.13267177-.2775216-.25583914-.41378054-.3862723-.12314328-.11858885-.24044901-.24304277-.36356306-.36209422-.14627278-.141928-.30050995-.27677463-.44347623-.42159148-.35104439-.3562576-.74711238-.67513142-1.02093133-1.09636085-.08371997-.12911454-.1513714-.26841597-.2256343-.40351196-.0596965-.1091108-.01121578-.18425175.09588502-.24923548.14489994-.08844684.28695987-.0684808.4300063-.03011639.08179007.02202787.15940082.05767876.24251954.07257647.43992025.07885993.8833886.14326848 1.3199668.23176897.38634614.07847297.76407408.18521108 1.14736528.27341526.24184757.05537843.48649058.10204458.73139322.14769185.08346265.01563526.1712765.01801631.25727658.02438622.14609166.01022841.23538457-.0572276.2712002-.19156898.06684368-.25006148.13282567-.50039475.19852058-.75081858.01926411-.07319132.0281609-.14918134.0564993-.21919533.16660364-.41220019.24781732-.83734084.32415061-1.26559386.0621475-.34889865.24700753-.66364584.42933828-.97698895.09695003-.16711448.20714089-.30425803.38828089-.40848142.26906533-.15465279.46288564-.13031084.590636.11791374.01852033.03604015.03459725.07366876.06606967.14116159M37.3249157 46.9293395c0 .1210798-.0195452.2402301.0059721.3516622.0233457.1003371.0955543.1919912.1465889.2875043.0895822-.0443798.1932803-.0747704.2660318-.1345867.285034-.2363711.5391215-.506027.8442436-.7192433.8257843-.5774207 1.1699968-1.5291758 2.0527879-2.0593223.0439767-.0270138.0591785-.1008195.0738374-.1553295.2758044-1.0207369 1.0000622-1.7684412 1.850278-2.4505405.2312848-.1857201.4587691-.2344414.7052556-.1283157.2692893.1152912.5418361.2556667.7541186.4389748.4810289.4148553.932197.8586539 1.3828222 1.300523.1422456.1398931.2633172.3039057.3637577.4708125.1688488.2807509.2861199.5634314.5722398.8060735.424565.358898.7313159.8268162 1.0912731 1.2469778.0781808.091654.1520182.199227.2584309.2532546.1205286.0617459.3045792.1292805.4061056.087795.0846958-.0352145.1324729-.2247937.1237862-.3420144-.0195452-.2677264-.0700369-.5349704-.1319301-.7983552-.2964353-1.2590375-.5939566-2.5171103-.9066796-3.7722887-.097726-.3917005-.2231409-.7805068-.3746162-1.1577356-.1227003-.3053528-.1096702-.5615018.1639625-.7901546.7389167-.6179414 1.4251701-1.2995583 2.233038-1.8345286.6824529-.4519993 1.2546926-.9937231 1.8795958-1.4915494.1346446-.107573.1579902-.3260956.2323706-.4939672-.1840506-.0120598-.3686441-.0361793-.5526946-.0342497-.966944.0096478-1.892083.1403754-2.8183078.4495873-.8377286.2797861-1.7628676.3502151-2.6478304.5190515-.2872057.0549924-.4652841-.0405207-.5521516-.2778565-.1064127-.2913635-.2117396-.5841742-.3018646-.8793967-.3773308-1.2450483-.7313159-2.4954028-1.1319923-3.7336975-.1547328-.4780483-.3995906-.9343892-.6281607-1.39073-.0548351-.1080553-.2101108-.1765546-.3186952-.2633848-.0917538.1186679-.2144542.227688-.2676605.3584157-.0868675.216593-.1047839.4544112-.1932802.6700395-.7465177 1.8272927-1.4718614 3.658927-1.8665657 5.5783562-.0504917.2436069-.1911085.372405-.4745138.3912182-.1715633.0115773-.3398691.0660874-.5119754.0781471-1.7981575.1220447-3.4649279.6671452-5.1159535 1.2551784-.2861199.1017843-.7628054.1939207-.6900538.5012031.0499488.210322.4815717.4351156.7828934.4968615.925139.1910264 1.8681945.3174126 2.8085353.4476578.4696275.0651226.9501134.0733233 1.4224555.1297629.4180499.0501685.68191.3531094.5727827.6189062-.1471319.358898-.3024076.7149017-.4441102 1.0752469-.6477059 1.6512205-.8822482 3.3709403-1.064127 5.0940369m-.9479418.0057887c.1368164-.8991747.2405145-1.7380507.3974189-2.5682436.1536469-.8142741.3556139-1.6208299.5499799-2.4283505.0494059-.2050157.1623337-.3970069.2247697-.600093.1248721-.407137-.0010858-.5793502-.4712562-.634825-.5157759-.0607812-1.0391526-.0800768-1.5489563-.1659422-.4397668-.074288-.8643318-.216593-1.2954118-.330437-.1036981-.0270138-.2041387-.0858654-.3067509-.087795-.709599-.0139893-1.2302612-.4573055-1.8638511-.6454376-.1541898-.045827-.2910062-.2310647-.3512705-.3796408-.0200881-.048239.2106537-.2112867.3534422-.2720679.3072938-.1307276.6314182-.2291351.9490276-.3396024.0591785-.0207428.1471318-.0207428.1775355-.0583692.5027457-.6237301 1.3258154-.6517087 2.0451869-.8620307.8822482-.2571138 1.7737261-.4905904 2.6673756-.7153841.2676605-.0670522.5543233-.079112.834471-.1013019.3528993-.0270138.515233-.1890968.6135018-.4939672.3795025-1.1828199.7915802-2.3569568 1.1922566-3.5344704.2443149-.7173138.4761426-1.4384866.7416314-2.1495292.1140136-.3048704.2486583-.6222829.4631125-.873608.3431266-.4037604.7003693-.4288446 1.0929018-.0578868.3811313.3608276.7057986.77713 1.0027769 1.1987388.493516.6999476.5440078 1.5320701.7866939 2.3058235.2557162.8137916.4582261 1.6401254.7128565 2.4539171.1617908.5224282.21554.5195339.7676917.3704754.368101-.0993723.7524898-.1505056 1.1298205-.2209345.3583285-.0675346.7291442-.1008195 1.0728138-.2054981.7524898-.2296176 1.5348404-.1852377 2.3052466-.2484308.3664723-.0294257.7324017-.0757352 1.099417-.0892421.2117395-.0091654.4370521.0004824.6373903.0564396.3637578.1017843.3985048.2175578.16722.4978263-.1786213.2161107-.3767878.4211264-.5814694.6184238-.542379.5219459-1.0652129 1.0631873-1.6477681 1.5470243-.584727.4852842-1.2329758.9097873-1.8519068 1.3622689-.1167282.0849007-.229656.1736604-.3436696.2614553-.5944995.4597176-.4783142 1.0091596-.2823194 1.5870627.5049174 1.4925142.8192692 3.0236195 1.11299 4.5571369.0792666.41582.138988.8403231.1357305 1.2604847-.0021717.2045333-.1129278.4635766-.2768902.5986458-.2285702.1871672-.4804859.0106126-.6943972-.1321748-1.008749-.6753458-1.8703661-1.4712891-2.5425035-2.4259386-.6113301-.8697489-1.3209291-1.6671393-2.1825462-2.3555097-.1943661-.1553295-.3735303-.216593-.5592097-.0400383-.2508299.236371-.5038315.4780483-.7047126.7477043-.3577856.4785307-.688968.9744275-1.0103778 1.4741833-.528806.8224747-1.1623959 1.5721086-1.9262871 2.2334651-.5255484.4544112-1.0234079.9411426-1.592933 1.3473148-.4251079.3024585-.7486894.1915088-.9191669-.2754446-.145503-.3974892-.1970806-.8210275-.2796048-1.1861966" stroke="#000" stroke-width=".5"/>
      <path d="M7.4749569 4.97791614c.6238223.06622145 1.06202912.2798382 1.43472845.64459442.6694664.65642288 1.33564197 1.31681187 2.0040045 1.97493967.0316289.03098045.075234.05239595.09547505.09007876.05038126.09161809.09043692.19053091.13484567.28606998-.0928738.03290728-.19128187.10478721-.27740311.09069936-.27334993-.04423914-.55866567-.07948766-.80984-.1928678-.56939658-.25718766-1.16115732-.49406969-1.66741466-.86049841-.48402246-.34996875-.88342696-.83984003-1.29035506-1.29938957-.09200742-.10380834-.13533279-.40729695-.06623596-.49001096.12392648-.14785865.35015478-.19748073.44219512-.24361545M13.44873243 4.33837913c.47028382.87192772.9490503 1.7420774 1.40051693 2.61783746.0685688.13277506.06070272.36460089-.00732408.41865878-.05667899.04518914-.28546498-.06146295-.38443527-.17432577-.56023498-.64169523-1.13701688-1.27921339-1.64493517-1.96954744-.46942712-.63849868-.87495144-1.33641988-1.27646819-2.0200747-.11285758-.19245907-.20090928-.52051775-.14311331-.6184964.06078117-.10337878.3289025-.09639352.47184324.01896484.35257116.28432521.69853516.63900265 1.02078484 1.0023435.1871822.21127038.32450534.49524502.48416029.74581787.02646304-.00685239.0525677-.01348045.07897072-.02117814M53.83877294 43.19618311c-.60919941-.22518513-1.26549947-.42982538-1.77201587-.82712096-.23700619-.18616344-.54985736-.33452887-.81283886-.50977708-.0832738-.0557278-.11707913-.14333682-.17382067-.21649897.12124392-.02338631.25550973-.09056394.3636211-.06318238.39814543.10023274.8039642.20791202 1.17674965.35597416.70689249.28192711 1.39958538.58600315 2.08553235.89651157.17632897.08019136.39480576.20482668.27960492.3620236-.0979168.1340385-.30168857.13374039-.5356764.08871424-.1910311-.03645364-.38445519-.05492421-.61115622-.08664418M49.60342531 32.07978638c.5921497-.5351385 1.18405253-1.0711766 1.77716077-1.60620464.03076504-.02824573.06670364-.060468.10024293-.07184475.22256556-.07255195.47160681-.37156424.66178035-.16651256.16751413.1791401-.05113704.41219204-.161444.61897254-.3912987.7359772-1.03853834 1.1743979-1.71337162 1.57653952-.2103254.12644151-.42150031.25147847-.63643337.36367041-.19776767.10371835-.43725316.40034805-.59079413.18166322-.13035865-.18748691.155355-.36642725.29213386-.53509808.09258126-.11497207.19696942-.22074402.2955231-.33001926l-.02479789-.0311664zM9.86424092 21.07182967c.40217304-.3710035.74005575-.67817223 1.0753422-.99384714.75734714-.71207596 1.45707374-.95273902 2.14084049-1.10791694.23945645-.0539678.14989118.2108005-.0086136.38769011-.31758178.35600147-.65479406.72465943-.99630009.9925744-.61612906.48393964-1.2420293.89037196-1.8634191 1.34435455-.21123007.15420863-.40376059.25045105-.43317724.0393679-.02327584-.1659529.0490907-.40794123.08532734-.66222288M47.1323693 31.57534656c-.20213544.09062822-.38110663.16597033-.55712197.25082923-.14463065.06975532-.24080717.39832283-.40238906.23155038-.07154692-.07346783-.00876433-.35202221.0838012-.49919242.4161951-.6600419.85913591-1.3101435 1.30927092-1.95526538.0500696-.0715625.24005124-.13861305.31352707-.11529158.09553401.02982586.18194535.13704852.19518573.2401729.01391405.11508418-.03051052.27306827-.09856488.39664182-.26782973.4816717-.55477803.9568624-.843709 1.45055505"/>
    </g>
    <path d="M3.472 35.14c1.974 0 3.85-1.022 3.85-3.052 0-1.61-1.218-2.674-3.08-2.73 1.078-.224 2.45-.868 2.45-2.282 0-1.302-1.05-2.044-2.548-2.044-1.862 0-2.912 1.022-3.556 2.366l.378.294c.49-.588 1.05-.952 1.862-.952.882 0 1.33.504 1.33 1.26 0 .854-.49 1.414-1.974 2.016l.154.406h.266c1.414 0 2.198.882 2.198 2.254 0 1.204-.448 1.904-1.26 1.904-.91 0-1.358-.756-1.358-1.694 0-.392.056-.672.154-.91H.714c-.322.154-.644.588-.644 1.162 0 1.092 1.162 2.002 3.402 2.002z" fill="#000" fill-rule="nonzero"/>
  </g>
</svg>
