<svg width="39" height="54" xmlns="http://www.w3.org/2000/svg" xmlns:xlink="http://www.w3.org/1999/xlink">
  <defs>
    <path id="a" d="M.00014746.2460281H30.7056045v45.8841821H.00014746z"/>
    <path id="c" d="M.15306942.07257713h1.93180002V3.1929256H.15306942z"/>
    <path id="e" d="M.1547494.21043706h2.63531055v1.12123626H.1547494z"/>
    <path id="g" d="M.17355427.14094753h1.30656672v2.25693542H.17355426z"/>
    <path id="i" d="M.0357648.21005747h.64612554v2.69188776H.03576479z"/>
    <path id="k" d="M.115537.0391991H3.0146948v1.87905682H.11553699z"/>
    <path id="m" d="M.14659814.04690359H1.054354v2.37663976H.14659814z"/>
    <path id="o" d="M.06830853.08910737h3.09743085v.80695015H.06830853z"/>
  </defs>
  <g fill="none" fill-rule="evenodd">
    <path d="M37.31752555 48.41963677c-1.41090013-4.20343487-1.99171141-5.02140318-1.24493915-9.2299508.60166498-3.39077363 3.76077965-5.9009779.04286989-7.33303684-6.2802429-2.4190145-14.9105247-1.89778722-22.2373889-1.21581455-3.53513746.32904495-4.76175511.70469135-4.80067537 2.48744312-.04392733 2.01210474-.32019717 4.04274742-.55670775 6.0747491-.47455637 4.07719139-.78904235 8.15985471 1.25461421 12.1092178.89678312 1.73303216 6.21594513 1.05576372 9.38997365 1.31084602 9.46167059.76039176 5.28230505.5016622 7.38768796.7121588 2.06174144.2061333 9.59229498.55698456 9.96096877-1.2450007.29545678-1.4441189.56332235-2.66765622.8035967-3.67061195z" fill="#EDB6A9" fill-rule="nonzero"/>
    <g transform="translate(7.544408 7.256705)">
      <mask id="b" fill="#fff">
        <use xlink:href="#a"/>
      </mask>
      <path d="M18.6997346 2.2083923c-.0396285.4816116-.0889439.96264295-.1124275 1.44512494-.0064579.13548953.0563605.27649148.0998051.4108205.0123288.03713632.0792569.08819875.1077307.0812357.0405091-.00957421.089531-.06266754.1000986-.1056064.1541107-.62029254.2178098-1.23652329-.1952069-1.83157474m-3.9590307 1.53680522c.6243685-.65133617.6349361-1.71262247.0757344-2.34393985-.1552849-.17465674-.3005893-.16334177-.345208.07340225-.0590024.31449818-.0821924.65017567-.0390414.96583436.0578282.42387623.1937392.83759801.308515 1.30470324m-3.8521806-1.09349044c-.0683958-.18713222-.1955005-.5596559-.341979-.92521651-.0308222-.07514302-.109492-.20599051-.2037197-.00261115-.40450392.87705535-.3246599 1.71755464.1682008 2.53165233.0290609.04787103.1086114.06614906.1637977.09806308.0308221-.06382804.0810182-.12562519.0874762-.19177426.0422703-.4340307.0739731-.8692219.126224-1.51011349M25.9144641 29.7113162c.0352253.1749469.0443251.3606285.1103726.52339.2398256.5921502.501667 1.1758866.750299 1.7651355.255677.6066566.7608665.9159325 1.3488356 1.1387504.2051874.077464.3299437.0240805.3816075-.1697246.0416832-.1557985.0651668-.3220415.0613507-.4830623-.0105676-.4363517-.052838-.8721231-.0563605-1.3081847-.0011742-.1969966-.0490219-.3020227-.2536222-.3490234-.8427654-.1926446-1.5754517-.6072368-2.3424827-1.1172809m-9.9925383-.3838386c-.0272997.0145064-.0540122.0293029-.0813118.0440994.056654.300572.1165371.6002737.1702557.901426.2442287 1.3720128.9252513 2.5287511 1.8135161 3.580173.2354224.2793928.5818046.5181677.9182062.3252329.5671274-.325523 1.145116-.6905034 1.583671-1.1616704.4928607-.5297727.853333-1.1851707 1.2355276-1.8074941.1737781-.2831644.3777914-.582576.3226051-.9960076-.1335627.1534774-.2747574.2608246-.341979.4024068-.2894346.6049157-.8189884.9797604-1.3212425 1.3757844-.3205503.2527011-.7080286.4601422-1.118697.3716533-.5956012-.1285264-1.1794606-.3379985-1.5689938-.8567464-.4391421-.5851871-.8694779-1.1770472-1.3039233-1.7657158-.1018599-.1383908-.2048939-.2756211-.3076343-.4131415m12.8892325-5.5022675c.0278867-.2004781-.0487284-.293609-.2812154-.2338428-1.0972682.2828743-2.2309359.2173055-3.3461104.3316157-.1869876.0194386-.2445223.0429389-.162917.213824.4814125 1.0070324.5586146 2.1393999 1.0640977 3.152235.4535258.9089693.9730991 1.7396043 1.7090144 2.4367806.089531.0847172.2139937.1462242.3331727.1845211.2771057.0890691.3637012.0176977.3463821-.2811336-.02319-.3951536-.0854213-.7894368-.0824859-1.1840102.0017613-.3156587.0745602-.6310272.1171242-.9463958.0231899-.1700147.0610571-.3388689.0736795-.5094638.0132095-.1813297-.0073386-.3652705.0070451-.5466002.0701571-.867191.1464786-1.7338018.222213-2.61753M3.23876128 27.7230727c-.02436417.0087038-.04902188.0174076-.07367959.0261114 0 .4520186-.05342505.9124509.01614493 1.3540249.06076365.38674.22837739.766807.40303619 1.124244.36869152.7540413.8081272 1.4755883 1.15333518 2.2392038.4588096 1.0168968 1.09403926 1.7459872 2.25383241 2.0549729 1.28865906.3438011 2.02017122.0478711 2.88642017-.8692219.84863633-.8985248 1.13425483-2.1132885 1.74277193-3.1481732.0936406-.15928.1045018-.3658507.1535236-.5509521-.1347368.1439033-.2239742.2999918-.3120375.4566607-.8145851 1.454409-2.62780768 2.1457828-4.27840674 1.7529502-.2815089-.0670195-.59149158-.1349093-.81575935-.2994116-.97544739-.7151642-1.77682308-1.5788737-2.28348037-2.6978954-.2283774-.5045316-.56037589-.962933-.84570086-1.4425137m11.92904942-3.4800791c.3017634.9658344.5897303 1.9244155.9038226 2.8742929.1259305.3791966.3029376.7427263.4696707 1.1074166.4203553.9188337 1.0015729 1.741345 1.5648842 2.5769122.2254419.3350972.5004929.5666189.8348397.7682575.3202567.1929348.6860128.1459341.8750553-.0644083.3810204-.4235861.8735875-.7145839 1.1882669-1.2371035.514583-.8555859.750299-1.7639751.9094-2.7184944.0927599-.5547238.1655589-1.1216329.3428596-1.6514056.1720169-.5129454.4623321-.9875939.7089093-1.4750081.1591009-.3144982.1367916-.4035673-.2110583-.4163329-.5163443-.0185682-1.0414949-.0394574-1.5505005.0316239-1.7583298.2468985-3.5201821.380067-5.2955375.2878064-.2685929-.0139261-.5354246-.0597662-.740612-.0835567m6.5944706-1.5518918c.0041096.0223398.0090998.0449697.0137965.0675997.1846394 0 .3704528-.0133459.5536244.0029012.3035247.027272.3810204-.1143102.3660496-.3890609-.027006-.4935068.0522509-.5840266.5480471-.6069467.3264211-.0153767.6551906.0185682.9824924.0142163.0452058-.0005803.1303337-.097773.1280329-.1476749-.0185409-.450568-.0704982-.9008458-.0716724-1.3511237-.0005871-.170885-.0402155-.2376144-.1975552-.2489293-.0921729-.006673-.1849329-.0121854-.2773993-.0095742-1.4882691.0458401-2.9759512.1053162-4.4648074.1351994-1.1982474.0243707-2.3982561.0435191-3.5956229.009284-1.344139-.0382968-2.688865-.1102484-4.0286007-.220787-1.420754-.1169213-2.8048149-.4322899-4.15599887-.8889505-.41507151-.1401316-.84716858-.2367441-1.27838502-.3179797-.35049178-.065859-.42857454.0240805-.38278164.3879004.06868934.5436989.15733969 1.0844965.22690967 1.6276151.08659554.6751266.03493176.6971763.85979098.7801528.47495452.047871.95754119.0313337 1.43132154.0911 1.11223899.1412921 2.21978124.316239 3.33084614.4673954.6933514.0942914 1.3379744.0646984 1.680247-.6977566.0892374-.1990275.2738767-.2558924.5104734-.2370342.8098884.0644083.9672281.1848112 1.1503997.9652542.016732.0713713.0510767.1424525.0499025.2129535-.0052838.2576332.1573397.3118871.3722141.3864498.7705535.2674975 1.5760388.1430329 2.3571599.248059.74707.1003841 1.4991303-.2039596 2.2365133.0652787.0416833.0150866.102447-.024951.1546978-.0359758.4996123-.1035755 1.0001051-.2065708 1.5003045-.309566M8.31208578 31.2582759c.12475629-.0118952.32994369.0290128.44677428-.0533834.44648074-.3153686.90969349-.628126 1.28308174-1.0197981.6067559-.6365397.8791649-1.4593412 1.0861135-2.2943281.1168306-.4717472.1532301-.9678652.308515-1.4253962.2867927-.8410796.5427632-1.7010174 1.0321014-2.460281.1065566-.1645023.0566541-.2306514-.1153628-.2506702-.6223138-.0713713-1.2446275-.1415822-1.8666476-.2100522-.2935443-.0322042-.59178516-.0406179-.88092621-.093131-.78112113-.1418723-1.55343593-.3304552-2.33719896-.4473765-1.38435447-.2068609-2.79776982-.2419663-4.13163469-.7273496-.01673202-.0060927-.03639948-.0055124-.05430568-.0089939-.20812284-.0403278-.26330915.0232101-.19784879.2323921.35900456 1.1509356.65724547 2.3230506 1.07407825 3.4525169.4150715 1.1248242.9270126 2.2159936 1.42985382 3.3068729.56008234 1.2138934 1.53230075 1.8782853 2.92340674 1.9989783M21.1998506 18.8324064v-.0147965c.5900238 0 1.1806348-.0026112 1.7715393.0011605.2953054.0017407.5900238.0133458.8847422.0240806.2254419.0078334.3983395-.0266918.4045039-.3133377.0046967-.1964163.0501961-.3928326.0883568-.587218.0337576-.1734962.0880633-.3429307.1235821-.5161368.0393349-.1920644.1218209-.3957339.0912923-.5785142-.0945213-.5547237-.2354225-1.1019041-.3551885-1.6525661-.0425639-.1917742-.1388464-.2439972-.3501983-.2408058-.5142894.0072532-1.0306337-.0223398-1.5440425-.0617971-.919674-.0707911-1.8378802-.1714653-2.7584349-.2376144-.5498083-.0391672-1.1031391-.0507723-1.6550022-.0499019-.8659554.0014506-1.7371946-.029593-2.5963985.0507723-1.1357225.1061866-2.2576485.3655606-3.393371.4511482-1.3241779.100094-2.65745571.1172115-3.98574324.1029952-.66517117-.006963-1.34061638.1285265-2.0060811-.1131497-.32554052-.1180819-.47524806.0467106-.42211656.4189441.07514731.5236801.1872812 1.0421379.29237003 1.5614661.01614493.0832665.05547985.195836.11976603.230071.30499243.1636319.60910423.3507642.93846083.4427346.47378034.1325882.97045714.1856816 1.45509862.2802631 1.44864065.2828743 2.89992319.5230998 4.37615699.6345088 1.3828868.1041558 2.7610768.2059905 4.1498345.1505762.8677166-.0345252 1.7383687.0107347 2.6078467.0165372.5873819.0037717 1.175351.0005803 1.7630265.0005803M2.80901256 31.0119577c-.0405091.0063828-.08160528.0124755-.12270147.0185681.01467721.1418724.02671252.2837447.04461872.4253269.09569541.7734799.22074524 1.5449288.28121534 2.3210198.04990252.6377002-.04931542 1.2925179.04902189 1.9194834.13473679.8570365.09716313 1.7033384.0252448 2.5508007-.12857236 1.5153358-.22867094 3.0237085.25655763 4.5024883.0278867.0870382.05371859.1743666.07397314.2631456.22015816.9841124.00058709.9304388 1.12662266 1.1639914.17935551.0371363.3672238.0368462.55156957.0452599 1.0127275.0461303 2.02721628.0670194 3.03730189.1395513 1.84316406.132008 3.68544747.2860657 5.52596967.450568.3631142.0327844.7218252.2306513 1.0767201.2158548.8213367-.034235 1.6150803.0661491 2.420272.2080214.5163443.0913902 1.06263.0087038 1.5954128.0174077.4065587.0066729.8119432.0359758 1.2182084.0513525.6255427.0240806 1.251379.0626675 1.8772152.0636841.995702.0013045 1.9925781-.0076895 2.9879865-.043085.56155-.0197287 1.1236872-.0797851 1.6787793-.1607307.6566584-.0960321 1.3065652-.2341328 1.9594076-.3545357.1822909-.0336548.2451094-.1111189.1611557-.3031832-.3660496-.8370178-.090118-1.6873814.0041096-2.5229485.032877-.2895473.0719184-.5463101.0199611-.8425302-.0484348-.2782323.0681022-.5811254.0763214-.873864.0044032-.1784284-.0774956-.357437-.0877697-.5381864-.0158514-.2712692-.0757344-.5701005.012916-.8103261.1699621-.462173.1000985-.9191238.0173191-1.3531545-.1156564-.6098479-.1200596-1.1912634.050196-1.7837037.0381608-.1325883.0428575-.2831644.0252448-.4206848-.043738-.3420603-.1127209-.6806391-.1652653-1.0215389-.0452059-.2892571-.1353239-.4827721-.4878705-.557625-1.1233937-.2396453-2.0280969-.8283139-2.5103901-1.8861187-.3692786-.8097458-.6830773-1.6511154-.9399285-2.5026396-.2101777-.6957256-.2888475-1.4297481-.4485355-2.141721-.0434446-.1949656-.1693751-.3719434-.285325-.6162307-.1881619.7377941-.3319985 1.3775252-.5169314 2.0056512-.1541107.5251307-.3287695 1.0482306-.544818 1.5513116-.4461872 1.0409774-1.1360161 1.9441442-1.7369011 2.8975031-.4637998.7366336-1.2076408 1.1715347-1.8819119 1.6725849-.3795526.282294-.8677166.3348071-1.3271133.2036694-.9804377-.279973-1.7771166-.8497833-2.2100943-1.7642651-.3287696-.6931146-.7429604-1.3435803-.8847423-2.1425914-.182878-1.0296624-.5759337-2.0216082-.83983-3.0396655-.0995114-.3826782-.1215273-.7865356-.3214309-1.140201-.0848342-.1497058-.1919779-.2869361-.2894345-.4299689-.1406077.1552182-.2938378.3020227-.4162457.4702966-.0466736.0641182-.0217223.1781383-.0325834.2689482-.0763215.6339285-.1626235 1.2669866-.2277903 1.9020757-.125637 1.217665-.7555828 2.251099-1.2369953 3.3376264-.1684944.3806473-.4244649.7227076-.6093978 1.0975523-.2404127.4877042-.5597888.9002655-1.03151432 1.1808188-.62701043.3731039-1.23053731.8497833-2.02692274.7183556-.44970973-.0742726-.89031958-.2193364-1.32711335-.3591778-1.23347276-.3954438-2.15931118-1.1428121-2.72115479-2.3216-.2809218-.5898292-.61350739-1.1555778-.92260944-1.7326413M25.5354985 46.1302102c-.969283-.0504822-1.7797585-.1093781-2.5917018-.127366-.3660496-.0081236-.7332734.0855876-1.1010843.097773-.457929.0153767-.9173257.0026111-1.3755482-.0118953-.5888496-.0191484-1.1768187-.0626675-1.7653748-.0771739-1.0652719-.0261114-2.1390566.2245587-3.1961093-.1212732-.1843458-.0603466-.4053846-.0023211-.607343-.0188583-1.2493241-.1038657-2.4977676-.2155647-3.7470918-.3197205-1.28924611-.1076373-2.57907935-.2216574-3.86979322-.3104364-.84540731-.0577354-1.69433716-.0652787-2.54003801-.1157609-.86536832-.0516427-1.73484626-.0925506-2.51303194-.5550138-.31203749-.1848112-.5597888-.3858696-.66340991-.7607143-.32583407-1.1779175-.6786742-2.3494522-1.0232951-3.5224376-.29207648-.9925261-.28679269-2.0181267-.33698875-3.0347334-.0425639-.8756047-.0246577-1.7541107-.04814124-2.6308759-.0278867-1.0244401-.0710377-2.0480098-.10919845-3.0721598-.00880633-.2373243-.03346404-.4740683-.03405113-.7113926-.0052838-1.5707501-.0278867-3.1417904.00205481-4.7119603.01379658-.764776.12387566-1.5278112.20019715-2.2908465.03757366-.3716533-.00821924-.7554919.25009966-1.0949411.0810182-.1067669.12534338-.3350972-.0457929-.5045316-.09892439-.097773-.13503033-.2564727-.2019584-.38674-.30704725-.6017243-.27505093-.8802467.15763323-1.3760746.29002168-.3324861.97603448-.2706889 1.10871647.1778482.22221296.7563623.74560228.7850849 1.36644827.7644859.36546254-.0121854.73268634.0362659 1.09961659.0496118.47788997.0174076.57153057-.0855876.50225414-.5358655-.15234944-.9864334-.29530547-1.9725767-.18640057-2.9758375.01115468-.1029952-.06135074-.2123733-.06516681-.3197204-.01086114-.3246527-.21281955-.6626512.08277946-.9730876.04872834-.0510624-.01144822-.1998978-.01438366-.3040536-.01379658-.5747425-.22103879-1.1552876.06898288-1.720746.15499134-.3023129.30998268-.5683597.7171285-.5933107.34550153-.0211793.68542572-.1276561 1.03151434-.1630516.77260834-.0789147 1.5472715-.1427428 2.32164112-.2019288.60352688-.0461302 1.20852149-.0763035 1.81234187-.1128596.1705492-.0104445.3093956-.0667293.2272033-.2654666-.3281825-.794369-.1582204-1.6287756-.2142873-2.444324-.0405091-.5982428-.0660475-1.19764616-.0939342-1.79646927-.0044031-.08964938-.0073386-.19293476.0314093-.26894816.3384564-.66439192.1215273-1.29832044-.0915858-1.93515025-.11683061-.34786284-.0287673-.54834092.3205503-.75897347.349024-.21063254.3534272-.31536856.086302-.61390973-.80431117-.89852478-1.23875659-1.93486012-1.15274814-3.15368563.00763215-.1087978.00968696-.23268223.063112-.32146124.24217397-.40820935.30968914-.8500735.31086332-1.31311694.00029354-.16247139.11859186-.2703988.24804485-.1404217.65342937.65713873 1.42721197 1.25190005 1.43102797 2.30187137.0017613.49147594-.0011741.98556303-.0487283 1.47384756-.0293544.29767079-.1364981.59011928-.2289645.87850599-.0986308.30550423-.166146.56806959.1188854.84514133.2483384.2408058.3777914.57155112.3751495.94059327-.0035225.53267404.0971631 1.0360452.3182019 1.53796573.1479463.33567749.1570462.74678812.1626235 1.12511434.0137966.9658344-.0044031 1.9319588-.0208416 2.8975031-.0038161.198157-.0340511.4035673-.095989.5915699-.0874761.2689482.0317028.3295848.2633092.3214612.4811189-.0174076.9613573-.0301732 1.4418891-.0530933.4291616-.0203089.4467743-.0852975.504309-.4755189.1626234-1.0966819-.0058709-2.1965551.0678087-3.29294684.050196-.74881901.0772021-1.49908865.1191789-2.24848792.0176127-.3084055.0510767-.6020145-.1056759-.90664835-.0683958-.13287838.033464-.37165329.1012728-.5460199.0504896-.13084749.1817038-.22862045.2559705-.35337527.2762251-.46333357.262135-.56226704-.1538172-.90838911-.2081228-.17320611-.2906087-.38761031-.3669302-.64466325-.3678109-1.23826405-.262135-2.4141507.3889461-3.53491313.0581217-.09980385.1658524-.17146534.2503932-.25647269.0666345.0896494.1409012.17465674.1984358.26981855.2178098.35946794.4053846.73982506.6519617 1.07898408.2272032.31275741.3469693.63537916.3340533 1.01689679-.0099805.29273862-.0093934.58634762-.0008806.87937637.0140901.46913612-.2330741.82570279-.4987316 1.17617677-.0845407.11198921-.2471642.21904625-.2474578.32900456-.0002935.20947203.0217223.48799441.1546978.6156505.3490241.33567748.3273018.76912793.3757366 1.16428155.1332691 1.08942866.0443252 2.18407961-.0088063 3.27757009-.0319963.6551078-.0076322 1.3128268-.0152643 1.9693853-.0035225.2909978-.0181998.5822858-.0384543.8729935-.016732.2509603.0634055.3762954.3455015.3568568.405091-.0281424.8125304-.0333646 1.218502-.0377166.222213-.002321.2638963-.1050261.2706478-.3101462.0152643-.4537594.0707441-.9060681.1086113-1.3589571.0093934-.1064768.0416833-.220787.0158514-.3191402-.2201581-.8341165-.1259304-1.66852313-.0545992-2.51018293.053425-.63741006.0319963-1.28149305.0305286-1.92267476-.0011742-.60665655.1241692-.79959132.7009836-1.01283501.3898267-.14419335.4024491-.14970578.2263225-.54485939-.1473592-.33161571-.3093956-.65916962-.4987316-.96902576-.3592981-.58953903-.4467742-1.18052869-.1291594-1.81764862.1215273-.24399721.186107-.51497627.2847379-.7708687.0457929-.11779175.086302-.25008988.1699621-.33828863.1467721-.1552182.3246598-.28171378.4893381-.4203947.105676.1827803.2181034.36207908.3146794.54950143.0581218.11314971.0634056.26256536.1420754.35482589.6510811.76477602.4232908 1.67577629.3939364 2.53165233-.0114483.32726379-.2803348.66410179-.4858157.95974168-.1268111.18190993-.1511753.30173258-.0381608.48654378.265364.43664184.3067537.92028434.2967732 1.42191474-.027006 1.49618738-.0390413 2.99266485-.0478477 4.48914235-.0023483.382388.0340512.7647761.0466736 1.1474542.0076321.2193364.1003921.3052141.3352274.3362577 1.3541195.1801692 2.7064776.3765855 4.0570745.5811254.4062652.0617971.7931564.1761073 1.0089114.5883785.0645798.1224338.1922715.2373243.3193761.298251.5160507.2468985.5835659.6907935.6205525 1.1892325.1171241 1.5733613.0190804 3.1412102-.0548928 4.7119603-.0281802.5996935.0622314 1.2043192.0865956 1.8069139.010274.2350033.1282788.334517.3466757.325523.4065587-.0174076.813998-.0327844 1.2179149-.075143.3014699-.0313337.5283795-.2022188.5715305-.5106243.0372802-.2669173.2063616-.3629495.4241714-.4424444.3601788-.1314278.6980481-.3336466 1.1113584-.257053.5142894.0951619.6719227.3153686.5134088.7940789-.0845407.2553122-.1018598.4763893.0305286.7337324.3029376.5877983.2506867 1.2347825.2500997 1.8704518-.0011742 1.4242358-.0029355 2.8484716.0085127 4.2724172.0020548.3266835.0777893.6522066.0877698.9791802.0363994 1.2220169.0402155 2.4451944.0959889 3.6660508.0317028.7116827.1455979 1.4193036.2084164 2.1301159.0205481.2352934.0557734.4946673-.0179062.7087814-.2671252.77377-.0654604 1.5530524-.0754409 2.3279828-.0132095 1.0229895.0026419 2.045979.003229 3.0692586 0 .0716615-.0058709.1520268-.0375736.214114-.341979.6672932-.1637977 1.3812969-.2013714 2.0758621-.0143836.2701087-.036693.5425384-.0939341.8059741-.0228965.1050262-.1320949.2210772-.2330741.2741705-.1761265.0922605-.3719205.1624714-.568008.2019287-.8245657.1662431-1.6488378.3365479-2.4795679.4668151-.5257377.081816-1.0623365.0948717-1.4401279.1262055" fill="#1D1D1B" mask="url(#b)"/>
    </g>
    <g transform="translate(28.370179 3.961686)">
      <mask id="d" fill="#fff">
        <use xlink:href="#c"/>
      </mask>
      <path d="M.24805993 3.19292559c-.04256788-.13516515-.11370871-.23817786-.09067541-.30435572.10233784-.29374228.19651198-.6012196.3577451-.8584392.38281933-.61183303.79829347-1.20025408 1.20997731-1.79086025.05423031-.07772777.16327405-.11206534.246952-.16669329.03936071.12455173.13557577.26627223.10787749.37084574-.13674201.51631216-.33471179 1.00515426-.68166914 1.41189836-.32858902.38520509-.64464093.78227224-.9676903 1.17215971-.03615353.04401452-.0839695.07710345-.18251705.16544465" fill="#1D1D1B" mask="url(#d)"/>
    </g>
    <g transform="translate(29.827983 8.331922)">
      <mask id="f" fill="#fff">
        <use xlink:href="#e"/>
      </mask>
      <path d="M.26654488 1.33186062c-.0134118-.00343376-.0959235-.00280944-.10583657-.03121597-.01691052-.04900908.00583122-.11768421.02274174-.17449728.00758059-.02622142.03702823-.05119419.06210246-.06555354.44521333-.2572196.80441624-.68987296 1.36246361-.71921597.30759664-.01654447.61198611-.0998911.91987432-.1301706.08892604-.00874047.26036379.05899818.26182159.09739383.00437341.11112886-.03265481.25003993-.10146316.33245009-.08484419.10113975-.20963221.19104174-.33208774.22537931-.46358167.12954628-.93211988.23973866-1.40094964.3471216-.21254782.04900907-.43005218.07460617-.6886666.11830853" fill="#1D1D1B" mask="url(#f)"/>
    </g>
    <path d="M32.12606521 6.26598654c-.0416932.09489656-.0795961.21476588-.14228167.31840291-.37232314.61807622-.97527087.9405372-1.52311361 1.33198548-.14665509.10488566-.30876289.18885662-.4723285.26127768-.09009228.03995644-.19738666.03652268-.29680889.05275499.02857296-.09895463.03586198-.2138294.08892604-.29436661.28660427-.43296552.66330082-.77259528 1.1015167-1.00328131.39185771-.20571324.75922432-.42203992 1.03270835-.79319782.031197-.04214156.09504882-.05650091.14344791-.08397096.01895145.05931035.03819447.11862069.06793367.21039564M23.69789198 3.5333841c-.02102118.02950387-.06479129.09052897-.10827344.15205841-.06421537-.04866878-.14254084-.08800727-.19034241-.14676284-.32971567-.40347174-.38327647-.89545508-.5436709-1.35213465-.11144102-.31773399-.17536842-.64832864-.25196613-.97488858-.01958136-.08372038-.0051833-.17349284-.0066231-.26049143.10654567.03328641.25254204.03858198.3130139.1043983.31128615.3394206.5050841.73633592.59377617 1.16124209.08782819.4196106.12727889.84729064.19408591 1.3165787" fill="#1D1D1B"/>
    <g transform="translate(25.994498 1.675346)">
      <mask id="h" fill="#fff">
        <use xlink:href="#g"/>
      </mask>
      <path d="M.17355427 2.16487802c.1978294-.42843655.0780375-.90680272.44576406-1.27623153.19898125-.19997067.3354749-.44785362.51055535-.66774572.0342674-.0433732.13822142-.0927985.17248881-.0769118.0714144.03328642.15204356.10212879.16615366.16668426.0215971.10212879.0126703.21762257-.01986933.3184905-.20070901.61806827-.6113418 1.14409454-.98108409 1.68701619-.02706836.03883415-.09761887.05497302-.14772413.08170303-.04952934-.07867699-.09877072-.15735398-.14628433-.23300493" fill="#1D1D1B" mask="url(#h)"/>
    </g>
    <g transform="translate(24.842653 .666667)">
      <mask id="j" fill="#fff">
        <use xlink:href="#i"/>
      </mask>
      <path d="M.0357648 2.08138459c.06219963-.32227305.10654567-.62664204.1828554-.92495895C.2862911.89089081.3271816.63115588.24568858.36335151.23100254.31644792.25375148.26122273.25922275.21003225c.0676709.0209301.178536.02698218.19523775.06505982.09301149.21106615.23958378.43347994.22662553.64555478-.03628313.6026859-.1362057 1.20259793-.22432184 1.80200562-.00950273.06455548-.1019383.11978068-.15578706.17929276-.0394507-.05472086-.09905868-.10540699-.11518451-.16517124-.05845614-.21888342-.10222626-.4405407-.15002783-.6553894" fill="#1D1D1B" mask="url(#j)"/>
    </g>
    <g>
      <g transform="translate(15.041685 2.179686)">
        <mask id="l" fill="#fff">
          <use xlink:href="#k"/>
        </mask>
        <path d="M3.01469481 1.84805184c-.12248184.02899953-.23044264.08649425-.3049419.06581633-.18687951-.05219916-.38291359-.11650247-.53033375-.2173704-.39996003-.27259559-.77182501-.5709125-1.16389317-.85082102C.76961529.66991438.50066031.51457776.2560123.33780671.1846698.28636406.16099417.19306122.115537.11892329.21939401.09168895.34818936.0185597.42142592.04478536c.34692666.12431973.73110296.22972672 1.00447738.4271757.52780834.38077645.990272.81904762 1.47830532 1.2346235.03125181.02673001.0501923.06304246.11048619.14146728" fill="#1D1D1B" mask="url(#l)"/>
      </g>
      <g transform="translate(19.776808 .666667)">
        <mask id="n" fill="#fff">
          <use xlink:href="#m"/>
        </mask>
        <path d="M.9963961 1.73316327c0 .18685784.00378809.37371569-.00284108.56057354-.00189405.04564273-.02967343.12356321-.05997822.12835444-.05555877.00882594-.12248184-.02471264-.18340709-.04312104-.0138897-.00453906-.02841073-.0184084-.0325145-.03026038C.57875826 1.93414262.11976703 1.6166608.17437878 1.13728595.20531492.86115998.14628372.57923411.14659814.29982993c0-.0844769.06313623-.16895379.09722911-.25292634C.3599956.09330284.49289471.1253284.58696582.19190124.65420455.23956134.68419367.331099.7050282.40750645c.1205878.43650598.23359939.87452498.34976773 1.31203964-.01988751.00453906-.038828.00907812-.05839984.01361718" fill="#1D1D1B" mask="url(#n)"/>
      </g>
      <path d="M19.24353822 3.31223116c-.25632798-.20198804-.48108847-.33059465-.62408918-.50207014-.20897675-.25141333-.38638601-.52501759-.52686132-.80543045-.14899853-.2975604-.30936135-.58125147-.58399847-.82030847-.05461175-.04715576-.05871553-.13112831-.08617924-.19820549.09280841.00882595.20613568-.00630424.27526847.03076472.19193031.10414614.41258703.20425757.53917264.35127258.45141504.52653061.83180323 1.08710415 1.06224587 1.70340723.01830914.04992962-.02430696.1144851-.05555877.24057002" fill="#1D1D1B"/>
    </g>
    <g>
      <g transform="translate(10.876531 9.595762)">
        <mask id="p" fill="#fff">
          <use xlink:href="#o"/>
        </mask>
        <path d="M2.32965408.13460357c.19937205-.01737004.39902178-.04840831.59783848-.045276.07969328.00113901.15883121.07745328.23824682.11959698-.05386933.05951375-.09690925.14693345-.16299637.17284613-.23907985.09339956-.4806588.19932832-.73056806.2397635C1.7559735.70553681 1.2331078.74825002.71385191.81374362.57223666.83139842.4342312.8780982.29233829.89461397.21986461.90287186.14322577.87354212.068253.86129767.09491.7704609.09546534.62751402.15238911.59761477c.27628857-.1446554.557853-.31038266.85635572-.37217444C1.43886642.13631209 1.88564864.130617 2.32521125.08961232c.00138839.015092.00277677.02989925.00444283.04499125" fill="#1D1D1B" mask="url(#p)"/>
      </g>
      <path d="M14.88907401 7.17896347c-.17743557.05324913-.30072414.13753654-.37597459.10535925-.47482759-.20246062-1.03990018-.18252779-1.4192069-.63187077-.17354809-.20530817-.41984755-.344838-.62005263-.52907431-.04776043-.04356748-.08108167-.17170711-.05331397-.21669836.03498729-.05638144.14466969-.10023367.2143666-.09083676.16577314.02192611.34737387.04385223.4867677.12785488.37652995.22666477.7361216.48294404 1.09904537.7329587.16521779.11361714.32127223.240333.48121416.36106901.03998548.03018401.07969328.06008325.18715426.14123836M11.39695314 8.01597155c-.02832305.00398657-.05914519.0176548-.08469147.01025118-.06164428-.0176548-.1216225-.04499125-.18243375-.0686259.04165154-.06976491.07247368-.18993141.1252323-.20103685.27601089-.05752045.56923775-.15803888.83497459-.11247812.59894918.10279646 1.18595826.28162244 1.77685481.4322577.03831942.01025117.07552813.04157419.10496189.07147344.03693103.03701812.06525408.08286363.09690925.12500733-.04470599.03103827-.0855245.0780228-.13467332.09083676-.47066243.12102077-.92327586.02819072-1.37783303-.10991533-.37736297-.1144714-.76333394-.19761979-1.14541742-.29500591l-.01388385.0572357z" fill="#1D1D1B"/>
    </g>
    <path d="M5.726 13v-.588c-1.162-.07-1.302-.168-1.302-1.022V3.046h-.588C3.108 4.068 2.38 4.6.994 4.838L.35 4.95v.546h1.344v5.894c0 .854-.056.966-1.344 1.022V13h5.376z" fill="#000" fill-rule="nonzero"/>
  </g>
</svg>
