<svg width="36" height="62" xmlns="http://www.w3.org/2000/svg" xmlns:xlink="http://www.w3.org/1999/xlink">
  <defs>
    <path id="a" d="M.00016749.28293231H34.8755014V53.0497417H.00016749z"/>
    <path id="c" d="M.17385662.0834637h2.19414323v3.58840073H.17385662z"/>
    <path id="e" d="M.17576475.24200262h2.99319223v1.2894217H.17576475z"/>
    <path id="g" d="M.19712336.16208965h1.48400172V2.7575654H.19712336z"/>
    <path id="i" d="M.04062174.2415661h.733871V3.337237h-.733871z"/>
    <path id="k" d="M.1312272.04507897h3.29287061v2.16091534H.13122721z"/>
    <path id="m" d="M.16650653.05393913h1.03103134v2.73313572H.16650653z"/>
    <path id="o" d="M.077585.10247348H3.5956546v.92799266H.077585z"/>
  </defs>
  <g fill="none" fill-rule="evenodd">
    <path d="M34.19397963 55.3325816c-1.60250385-4.83395014-2.26219074-5.77461373-1.41400497-10.61444344.68337258-3.89938972 4.27150282-6.78612466.04869172-8.4329924-7.13311534-2.78186666-16.93541071-2.18245529-25.2572812-1.39818672-4.01521792.37840161-5.40841323.81039504-5.45261894 2.86055957-.04989281 2.31392046-.36368071 4.64915943-.63231003 6.98596147-.53900225 4.6887701-.89619627 9.38383282 1.42499389 13.92560047 1.01856854 1.99298687 7.06008584 1.21412816 10.66515528 1.50747294 10.74658883.8744505 5.9996551.57691152 8.39095418.8189826 2.34173105.2370533 10.89495237.64053217 11.31369296-1.43175093.33558056-1.66073665.63982293-3.06780458.91272711-4.22120357z" fill="#EDB6A9" fill-rule="nonzero"/>
    <g transform="translate(.377599 7.995211)">
      <mask id="b" fill="#fff">
        <use xlink:href="#a"/>
      </mask>
      <path d="M21.2392047 2.53965114c-.0450101.55385335-.1010227 1.1070394-.1276953 1.66189369-.007335.15581296.0640143.3179652.1133587.47244357.0140032.04270677.0900203.10142857.1223609.09342105.0460103-.01101034.1016895-.07206766.1136922-.12144736.1750393-.71333642.2473889-1.42200178-.2217165-2.10631095m-4.4966768 1.76732601c.7091593-.7490366.721162-1.96951584.0860193-2.69553083-.176373-.20085525-.34141-.18784303-.3920881.08441259-.0670151.36167291-.0933543.74770201-.0443433 1.11070951.0656814.48745767.2200494.96323772.3504121 1.50040873m-4.3753163-1.25751401c-.0776841-.21520205-.2220499-.64360428-.3884206-1.06399899-.0350078-.08641447-.1243612-.23688908-.2313853-.00300282-.4594365 1.00861365-.3687495 1.97518784.1910429 2.91140018.0330074.05505169.1233611.07607142.1860418.11277255.0350079-.07340225.0920207-.14446898.0993557-.2205404.0480108-.4991353.0840189-.9996052.1433655-1.73663052M29.4337123 34.1680137c.0400089.2011889.0503446.4147227.1253615.6018984.2723945.6809727.5697946 1.3522697.8521914 2.0299059.2903986.697655.8641941 1.0533223 1.5320108 1.3095629.2330524.0890836.3747509.0276926.4334307-.1951833.047344-.1791682.0740167-.3703477.0696824-.5555216-.0120027-.5018044-.0600135-1.0029416-.0640144-1.5044125-.0013337-.226546-.0556792-.3473261-.2880647-.4013768-.9572151-.2215413-1.789402-.6983223-2.6605977-1.284873m-11.3495497-.4414145c-.031007.0166823-.0613471.0336983-.0923541.0507143.0643478.3456579.1323631.6903148.1933768 1.03664.2773956 1.5778147 1.0509027 2.9080637 2.0597961 4.1171989.2673934.3213017.6608151.5958928 1.0429009.3740179.6441447-.3743515 1.3006255-.7940789 1.7987374-1.335921.5597924-.6092387.9692178-1.3629463 1.4033153-2.0786183.1973777-.3256391.4290964-.6699623.3664156-1.1454087-.1517007.176499-.3120701.2999483-.3884206.4627678-.3287405.6956531-.9302089 1.1267245-1.5006704 1.5821521-.3640818.2906062-.8041807.5291635-1.2706188.4274013-.6764853-.1478054-1.3396343-.3886983-1.782067-.9852584-.4987787-.6729651-.9875552-1.3536042-1.4809994-2.0305731-.1156926-.1591495-.2327189-.3169643-.3494118-.4751128m14.6396221-6.3276076c.0316738-.2305498-.0553458-.3376504-.3194051-.2689192-1.24628.3253054-2.5339026.2499013-3.8005204.3813581-.2123811.0223543-.2777291.0493797-.1850416.2458975.5467895 1.1580873.6344759 2.46031 1.2086048 3.6250702.5151158 1.0453148 1.1052483 2.000545 1.9411028 2.8022978.1016895.0974248.2430546.1681579.3784183.2121992.3147374.1024295.4130928.0203525.3934217-.3233035-.0263392-.4544267-.0970218-.9078524-.0936877-1.3616118.0020005-.3630075.0846857-.7256813.1330299-1.0883552.0263393-.1955169.0693489-.3896992.0836855-.5858834.0150033-.2085291-.0083352-.420061.0080018-.6285902.0796845-.9972696.1663707-1.993872.25239-3.0101595m-29.04519164 4.482542c-.02767288.0100093-.05567918.0200187-.08368547.0300281 0 .5198214-.0606803 1.0493186.01833746 1.5571287.0690155.4447509.2593916.8818279.4577695 1.2928805.41876074.8671475.91787287 1.6969266 1.30996095 2.5750845.52111707 1.1694313 1.24261248 2.0078852 2.55990841 2.3632188 1.46366215.3953712 2.29451549.0550517 3.27840319-.9996052.9638832-1.0333035 1.2882894-2.4302818 1.9794447-3.6203992.1063572-.183172.1186933-.4207284.1743725-.6335949-.1530344.1654887-.2543905.3449906-.354413.5251598-.9252078 1.6725703-2.9846705 2.4676502-4.85942499 2.0158927-.3197385-.0770724-.67181759-.1551457-.92654148-.3443233-1.10791556-.8224389-2.01812004-1.8157048-2.59358265-3.1025797-.25939161-.5802114-.63647632-1.107373-.96054912-1.6588908m13.54904374-4.0020909c.3427437 1.1107095.6698172 2.2130778 1.026564 3.3054368.1430321.4360761.3440773.8541352.5334532 1.273529.4774406 1.0566588 1.1375889 2.0025469 1.7773993 2.9634491.2560575.3853618.568461.6516118.948213.8834961.3637484.221875.779175.1678243.9938899-.0740695.4327639-.487124.9922229-.8217716 1.3496365-1.4226691.5844647-.9839238.8521915-2.0285713 1.0328987-3.1262686.1053571-.6379323.1880423-1.2898777.3894209-1.8991164.1953772-.5898872.5251179-1.135733.8051808-1.6962593.1807073-.3616729.1553683-.4641024-.2397205-.4787828-.5864651-.0213534-1.1829324-.045376-1.7610623.0363675-1.9971153.2839332-3.9982315.437077-6.0146845.3309774-.3050685-.0160151-.6081366-.0687312-.841189-.0960902m7.490016-1.7846757c.0046677.0256908.0103357.0517152.0156702.0777397.2097138 0 .4207612-.0153478.6288079.0033364.3447441.0313628.4327639-.1314567.4157601-.44742-.0306736-.5675329.0593466-.6716306.6224732-.6979887.3707499-.0176833.7441671.0213534 1.1159173.0163487.0513449-.0006673.1480333-.1124389.1454201-.1698261-.0210588-.5181532-.0800721-1.0359727-.0814057-1.5537922-.0006668-.1965179-.0456769-.2732566-.2243837-.2862688-.1046902-.0076739-.2100472-.0140132-.3150708-.0110103-1.6903798.0527161-3.3800927.1211137-5.0711393.1554793-1.3609724.0280263-2.7239452.050047-4.0839174.0106767-1.5266763-.0440414-3.0540194-.1267857-4.5756946-.2539051-1.6136958-.1344596-3.1857157-.4971334-4.72039376-1.0222932-.47143925-.1611513-.96221617-.2722556-1.45199286-.3656766-.39808943-.0757378-.48677602.0276926-.43476434.4460855.07801753.6252537.17870682 1.2471709.25772457 1.8717574.09835543.7763956.03967558.8017527.97655271.8971756.53945452.0550517 1.08757766.0360339 1.62569855.1047651 1.26328383.1624859 2.52123303.3636748 3.78318323.5375046.7875102.1084352 1.5196747.0744032 1.9084287-.80242.1013561-.2288816.3110699-.2942763.5797969-.2725893.9198734.0740696 1.0985802.2125329 1.3066269 1.1100422.0190043.0820771.058013.1638205.0566794.2448966-.0060013.2962782.1787068.3586701.4227616.4444173.8751967.3076222 1.7900688.1644878 2.6772682.2852678.8485239.1154418 1.7027158-.2345535 2.5402373.0750705.047344.0173496.1163595-.0286936.1757061-.0413722.5674608-.1191118 1.1359219-.2375563 1.7040495-.3560009M9.44088755 35.9470173c.1416985-.0136795.37475086.0333647.50744734-.061391.50711391-.3626738 1.03323211-.7223449 1.45732741-1.1727678.6891548-.7320206.9985576-1.6782423 1.2336104-2.6384772.1326965-.5425094.1740391-1.1130451.3504121-1.6392057.3257398-.9672415.6164718-1.95617 1.1722633-2.8293232.1210272-.1891776.0643478-.265249-.1310294-.2882706-.7068255-.0820771-1.4136509-.1628195-2.120143-.2415601-.3334082-.0370348-.672151-.0467106-1.0005581-.1071006-.8871993-.1631532-1.76439633-.3800235-2.65459631-.514483-1.57235323-.2378901-3.17771388-.2782613-4.69272089-.8364521-.01900427-.0070065-.04134262-.0063392-.06168052-.010343-.23638644-.0463769-.29906719.0266917-.22471715.2672509.40775827 1.3235761.74650103 2.6715083 1.21994073 3.9703945.47143924 1.2935478 1.0529032 2.5483927 1.6240315 3.8029039.63614291 1.3959773 1.74039098 2.160028 3.32041259 2.298825m14.63795505-14.28975v-.0170159c.6701506 0 1.3409679-.0030029 2.0121187.0013345.3354087.0020019.6701506.0153478 1.0048924.0276927.2560576.0090085.452435-.0306955.4594366-.3603383.0053345-.2258788.0570128-.4517575.1003559-.6753007.0383419-.1995207.1000224-.3943703.1403648-.5935573.0446767-.2208741.1383644-.455094.10369-.6652913-.1073575-.6379323-.2673934-1.2671898-.403424-1.900451-.0483442-.2205404-.1577021-.2805968-.397756-.2769267-.5841312.0083412-1.1705963-.0256908-1.7537273-.0710667-1.044568-.0814098-2.087469-.1971852-3.1330372-.2732566-.6244736-.0450423-1.2529481-.0583881-1.8797556-.0573872-.9835543.0016682-1.9731099-.0340319-2.9489958.0583882-1.2899565.1221146-2.5642427.4203947-3.8541992.5188204-1.5040045.1151081-3.0183447.1347932-4.52701699.1184446-.75550306-.0080076-1.5226754.1478054-2.27851186-.1301222-.36974974-.1357942-.53978793.0537171-.47944104.4817857.0853525.6022321.21271445 1.1984585.3320746 1.7956859.01833745.0957566.06301415.2252115.13603056.2645818.34641115.1881767.69182208.4033787 1.06590612.5091447.53812089.1524765 1.10224762.2135338 1.65270461.3223026 1.6453696.3253054 3.2937399.6015648 4.9704499.7296851 1.5706862.1197791 3.1360379.2368891 4.7133922.1731626.9855548-.039704 1.9744436.0123449 2.9619988.0190178.6671499.0043374 1.3349665.0006673 2.0024498.0006673M3.19048341 35.6637513c-.04601034.0073403-.09268749.0143468-.13936465.0213534.01667042.1631532.03034015.3263064.05067806.4891259.10869108.8895018.25072299 1.7766681.31940508 2.6691728.0566794.7333552-.05601258 1.4863956.05567918 2.2074058.15303438.9855921.11035812 1.9588392.02867311 2.9334209-.14603281 1.7426362-.25972502 3.4772648.29139879 5.1778615.03167378.100094.06101371.2005216.08401888.3026174.25005617 1.1317293.00066681 1.0700047 1.2796208 1.3385902.20371243.0427067.4170937.0423731.62647407.0520489 1.1502584.0530498 2.30251726.0770723 3.44977499.160484 2.09347028.1518092 4.18594038.3289755 6.27640998.5181531.412426.0377021.8198509.2652491 1.2229414.2482331.9328762-.0393703 1.8344121.0760714 2.7489509.2392246.5864651.1050987 1.2069378.0100094 1.8120737.0200188.4617704.0076739.9222072.0413722 1.3836442.0590554.7104929.0276927 1.4213193.0720677 2.1321457.0732367 1.1309207.0015002 2.263175-.0088429 3.3937624-.0495478.6378099-.0226879 1.2762867-.0917528 1.9067616-.1848402.7458343-.110437 1.4840001-.2692528 2.2255-.4077161.2070465-.038703.2783959-.1277866.1830411-.3486607-.41576-.9625704-.1023563-1.9404886.0046677-2.9013908.0373418-.3329793.0816851-.6282565.0226718-.9689097-.0550124-.3199671.0773507-.6682941.0866861-1.0049435.0050012-.2051927-.0880197-.4110526-.099689-.6189145-.0180041-.3119595-.0860193-.6556155.0146699-.9318749.1930434-.531499.1136922-1.0569924.0196711-1.5561277-.1313628-.7013251-.1363639-1.3699529.0570128-2.0512593.0433431-.1524765.0486776-.325639.0286731-.4837875-.0496778-.3933694-.1280287-.7827349-.1877088-1.1747697-.0513449-.3326456-.1537012-.5551879-.5541245-.6412687-1.2759533-.2755921-2.3035175-.9525611-2.8513072-2.1690365-.4194275-.9312077-.7758409-1.8987828-1.0675731-2.8780356-.2387203-.8000845-.3280738-1.6442104-.5094478-2.4629791-.0493444-.2242105-.1923766-.427735-.3240728-.7086654-.2137147.8484633-.3770847 1.584154-.5871319 2.3064989-.1750394.6039004-.3734173 1.2054652-.6188057 1.7840084-.5067805 1.1971239-1.2902899 2.2357658-1.9727765 3.3321285-.526785.8471287-1.3716415 1.3472649-2.1374802 1.9234726-.4310969.3246381-.9855547.3850282-1.5073386.2342199-1.1135835-.3219689-2.0184535-.9772509-2.5102306-2.0289049-.3734172-.7970817-.8438563-1.5451174-1.0048924-2.4639801-.2077134-1.1841118-.654147-2.3248495-.953881-3.4956154-.1130254-.4400798-.138031-.9045159-.365082-1.3112311-.096355-.1721616-.218049-.3299765-.3287405-.4944643-.1597026.178501-.3337417.3473262-.4727729.5408412-.0530119.0737359-.0246722.204859-.0370083.3092904-.0866862.7290178-.1847082 1.4570346-.2587248 2.187387-.1426987 1.4003148-.8581928 2.588764-1.4049823 3.8382705-.1913763.4377443-.4821083.8311136-.6921555 1.262185-.2730613.5608599-.6358095 1.0353054-1.1715965 1.3579417-.71216.4290695-1.39764734.9772508-2.30218387.8261089-.51078142-.0854135-1.01122717-.2522368-1.50733862-.4130545-1.4009814-.4547603-2.45255097-1.3142339-3.09069433-2.66984-.31907168-.6783035-.6968232-1.3289144-1.04790207-1.9925375M29.0032822 53.0497417c-1.100914-.0580545-2.0214541-.1257848-2.9436613-.1464709-.41576-.0093421-.8328537.0984258-1.2506142.1124389-.5201169.0176833-1.0419008.0030029-1.562351-.0136795-.6688169-.0220206-1.3366336-.0720676-2.0051171-.08875-1.2099385-.0300282-2.4295458.2582425-3.6301489-.1394642-.2093804-.0693985-.4604368-.0026692-.6898216-.0216871-1.4189855-.1194454-2.8369707-.2478994-4.2559561-.3676785-1.464329-.1237829-2.92932475-.254906-4.39532075-.3570019-.96021571-.0663956-1.92443232-.0750704-2.88498144-.133125-.98288748-.059389-1.97044266-.1064332-2.85430789-.6382659-.35441295-.2125329-.6358095-.44375-.75350261-.8748214-.37008314-1.3546051-.77083983-2.7018701-1.1622611-4.0508033-.33174119-1.141405-.32573984-2.3208457-.38275265-3.4899433-.0483442-1.0069454-.0280063-2.0172273-.05467895-3.0255073-.03167378-1.1781062-.0806848-2.3552113-.12402786-3.5329838-.01000225-.2729229-.03800854-.5451786-.03867536-.8181015-.00600135-1.8063626-.03167378-3.6130589.00233386-5.4187543.01567019-.8794924.14069827-1.756983.22738442-2.6344735.04267625-.4274013-.00933544-.8688157.28406381-1.2591823.09202067-.1227819.14236532-.3853618-.05201168-.5802114-.11235858-.1124389-.1533678-.2949436-.22938487-.4447509-.34874501-.691983-.31240351-1.0122838.17904022-1.5824858.32940734-.382359 1.10858238-.3112923 1.2592829.2045254.25239003.8698166.84685691.9028477 1.55201533.8791588.41509325-.0140132.83218695.0417058 1.24894724.0570535.5427886.0200188.64914583-.0984257.57046148-.6162452-.17303887-1.1343985-.33540868-2.2684632-.21171422-3.4222132.01266951-.1184445-.06968232-.2442293-.07401663-.3676785-.01233611-.3733505-.24172097-.7620488.09402112-1.1190507.05534577-.0587218-.01300292-.2298825-.016337-.3496616-.01567019-.6609539-.2510564-1.3285807.07835093-1.978858.17603955-.3476597.3520791-.6536136.81451632-.6823072.39242149-.0243562.77850822-.1468045 1.17159653-.1875094.87753047-.0907519 1.75739479-.1641541 2.63692571-.2322181.68548734-.0530498 1.37264174-.087749 2.05846244-.1297885.1937102-.0120113.3514123-.0767387.258058-.3052866-.3727504-.9135244-.1797071-1.873092-.243388-2.8109726-.0460104-.6879792-.0750169-1.3772931-.1066907-2.0659397-.0050011-.1030968-.0083352-.221875.0356747-.3092904.3844197-.76405067.138031-1.49306847-.1040234-2.22542275-.1326964-.40004226-.032674-.63059206.3640818-.87281949.3964224-.24222743.4014235-.36267385.098022-.70599619-.9135385-1.0333035-1.4069827-2.22508914-1.3092941-3.62673848.0086686-.12511747.0110025-.26758456.0716828-.36968042.2750618-.46944076.3517457-.97758452.3530793-1.51008449.0003334-.18684209.1346969-.31095862.28173-.16148495.7421667.75570954 1.6210308 1.43968505 1.6253651 2.64715208.0020004.56519733-.0013336 1.13339748-.0553458 1.69492469-.0333408.34232141-.1550348.67863718-.2600584 1.01028189-.1120252.35132986-.1887091.65328003.1350303.97191253.2820634.27692667.4290964.65728379.4260958 1.08168226-.0040009.61257514.1103581 1.19145198.3614145 1.76866059.1680377.38602913.1783734.85880633.1847082 1.29388153.0156701 1.1107095-.0050012 2.2217526-.023672 3.3321285-.0043343.2278806-.0386754.4641024-.1090245.6803054-.0993557.3092904.0360081.3790225.2990672.3696804.5464561-.0200188 1.0919119-.0346992 1.6377012-.0610573.4874428-.0233553.5074473-.0980921.5727953-.5468468.1847082-1.2611841-.0066681-2.5260383.0770173-3.7868888.0570129-.8611419.0876864-1.72395196.1353638-2.58576111.0200045-.35466633.058013-.69231668-.120027-1.04264561-.0776841-.15281014.0380086-.42740128.1150259-.62792289.0573462-.15047461.2063797-.26291351.2907319-.40638155.3137372-.53283361.2977336-.6466071-.1747059-1.04464748-.2363864-.19918702-.3300741-.44575185-.4167603-.74136274-.4177605-1.42400366-.2977335-2.7762733.4417659-4.0651501.0660149-.11477442.1883757-.19718513.2843973-.29494358.0756836.1030968.1600359.20085525.2253839.31029133.2473889.41338813.4604368.85079881.7404997 1.24083168.258058.35967103.3940886.73068604.3794186 1.16943131-.0113359.33664942-.0106691.67429977-.0010002 1.01128283.0160036.53950654-.2647262.9495582-.5664606 1.35260329-.0960216.12878759-.2807298.25190318-.2810632.37835524-.0003334.24089284.0246722.56119357.1757062.70799807.3964224.38602911.3717502.88449712.4267625 1.33892378.1513674 1.25284296.0503447 2.51169153-.0100022 3.76920553-.0363415.7533741-.0086686 1.5097509-.0173373 2.2647931-.0040009.3346476-.0206713.6696287-.0436764 1.0039426-.0190043.2886043.0720161.4327397.3924215.4103853.4601033-.0323637.9228739-.0383693 1.3839775-.043374.2523901-.0026692.299734-.1207801.3074024-.3566682.0173372-.5218233.0803514-1.0419783.1233611-1.5628007.010669-.1224483.0473439-.253905.018004-.3670112-.2500562-.959234-.1430321-1.9188016-.0620139-2.8867104.0606803-.73302153.0363415-1.47371697.0346744-2.21107594-.0013336-.69765503.1410317-.91953001.7961789-1.16476026.4427661-.16582236.4571027-.17216164.2570577-.6265883-.1673709-.38135806-.3514122-.75804506-.5664605-1.11437963-.4080917-.67796988-.5074474-1.35760799-.1466997-2.09029591.138031-.28059678.2113809-.5922227.323406-.886499.0520117-.13546051.098022-.28760336.1930434-.38903193.1667041-.17850092.3687495-.32397084.5557915-.48345391.120027.21019735.2477223.41639095.3574136.63192665.0660149.13012217.0720162.30195017.1613696.40804978.7394995.87949242.4807747 1.92714273.4474339 2.91140018-.0130029.37635336-.3184049.76371705-.5517907 1.10370293-.1440323.20919642-.1717052.34699246-.043343.55952534.301401.50213813.3484116 1.058327.3370757 1.63520196-.0306736 1.72061544-.0443433 3.44156464-.0543455 5.16251374-.0026673.4397462.0386753.8794924.0530119 1.3195723.0086686.2522368.1140256.3509962.3807522.3866964 1.5380122.2071945 3.0740239.4330733 4.6080352.6682941.461437.0710667.900869.2025235 1.1459241.6766353.0733498.1407989.2183824.2729229.3627481.3429887.5861317.2839333.6628156.7944125.704825 1.3676174.1330299 1.8093655.0216716 3.6123917-.0623473 5.4187543-.0320072.6896475.0706825 1.384967.0983554 2.077951.0116693.2702538.1456994.3846945.3937551.3743515.4617704-.0200188.9245411-.0377021 1.3833108-.0864145.3424102-.0360338.6001348-.2325517.6491458-.587218.0423429-.3069548.234386-.4173919.4817749-.508811.4090919-.1511419.7928448-.3836936 1.2622836-.2956109.5841312.1094361.7631714.3626738.583131.9131907-.0960216.293609-.1156927.5478477.0346744.8437922.3440773.675968.2847307 1.4199999.2840639 2.1510196-.0013337 1.6378712-.0033341 3.2757423.0096688 4.9132798.0023339.375686.0883532.7500375.0996891 1.1260572.0413426 1.4053195.0456769 2.8119735.1090245 4.2159584.036008.8184351.1653704 1.6321991.2367198 2.4496333.0233386.2705874.0633476.5688674-.0203379.8150986-.3034015.8898355-.07435 1.7860102-.0856859 2.6771803-.0150034 1.1764379.0030007 2.3528758.0036675 3.5296473 0 .0824107-.0066682.1748308-.0426763.2462312-.3884206.7673872-.1860418 1.5884914-.228718 2.3872414-.016337.3106249-.0416761.6239191-.1066907.9268702-.0260058.1207801-.1500337.2542387-.2647261.315296-.2000449.1060996-.4224282.1868421-.6451449.2322181-.9365438.1911795-1.8727541.38703-2.8162994.5368373-.5971341.0940884-1.2066044.1091025-1.6357008.1451363" fill="#1D1D1B" mask="url(#b)"/>
    </g>
    <g transform="translate(24.031561 4.205939)">
      <mask id="d" fill="#fff">
        <use xlink:href="#c"/>
      </mask>
      <path d="M.28174708 3.67186443c-.0483487-.15543993-.12915064-.27390454-.10298935-.35000908.11623557-.33780363.22319879-.69140254.40632776-.98720508.43480714-.70360798.90670369-1.3802922 1.37429522-2.05948929.06159492-.08938693.18544707-.12887514.28048869-.19169728.04470599.14323448.1539873.30621307.12252753.4264726-.15531192.59375898-.38016649 1.1559274-.7742415 1.62368312-.37321222.44298584-.73218476.89961307-1.09910503 1.34798367-.04106327.05061669-.09537277.08866896-.20730332.19026134" fill="#1D1D1B" mask="url(#d)"/>
    </g>
    <g transform="translate(25.687338 9.23171)">
      <mask id="f" fill="#fff">
        <use xlink:href="#e"/>
      </mask>
      <path d="M.30274233 1.53163971C.28750919 1.52769089.19379218 1.52840886.1825329 1.49574134c-.01920702-.05636043.0066231-.13533684.02583013-.20067187.00861004-.03015462.04205674-.05887332.07053611-.07538657C.78457355.92388036 1.1925571.426329 1.82638868.39258454 2.17576475.3735584 2.52148402.27770976 2.8711842.24288834c.10100242-.01005153.29572184.06784792.29737761.11200291.00496734.12779819-.03708941.28754592-.1152421.3823176-.09636624.11631071-.23810079.21969801-.37718609.25918621-.5265372.14897822-1.05870405.27569946-1.59120205.39918984-.24141234.05636044-.48845433.0857971-.78218923.13605481" fill="#1D1D1B" mask="url(#f)"/>
    </g>
    <path d="M28.29750583 6.85588463c-.04735524.10913103-.09040545.24698076-.16160387.36616334-.42288555.71078765-1.10771507 1.08161778-1.72995621 1.5317833-.1665712.12061851-.35069364.21718512-.53647186.30046933-.10232705.04594991-.22419226.04200109-.33711628.06066824.03245324-.11379783.04073213-.24590381.10100242-.3385216.32552583-.49791035.75337871-.88848457 1.25110539-1.1537735.44507295-.23657024.86232885-.48534592 1.17295269-.9121775.03543363-.04846279.10795668-.06497604.16292849-.0965666.02152511.06820689.04338137.13641379.07715923.24195499M18.72476639 3.71339167c-.0238759.03392945-.0735901.10410831-.12297724.17486717-.07293597-.0559691-.16189823-.10120837-.21619138-.16877727-.37449187-.4639925-.43532635-1.02977334-.61750275-1.55495485-.12657498-.36539409-.19918388-.74557793-.28618374-1.12112186-.02224057-.09627844-.00588721-.19951677-.00752255-.29956515.12101484.03827938.28683788.04436928.35552198.12005806.35355957.39033368.57367576.8467863.67441243 1.33542839.09975548.48255219.14456368.97438424.22044325 1.51406551" fill="#1D1D1B"/>
    <g transform="translate(21.333258 1.576648)">
      <mask id="h" fill="#fff">
        <use xlink:href="#g"/>
      </mask>
      <path d="M.19712336 2.48960972c.22469513-.49270203.0886352-1.04282313.50629993-1.46766625.22600339-.22996628.38103321-.51503167.57989003-.76790758.03892099-.0498792.15699223-.10671827.19591321-.08844857.08111265.03827938.17269145.1174481.18871774.1916869.02453004.1174481.01439096.25026595-.02256763.36626408C1.41741085 1.4343168.95101311 2.039247.53105891 2.6636069c-.03074431.04465928-.11087576.06321898-.16778544.09395848-.05625555-.09047854-.11218403-.18095707-.1661501-.26795567" fill="#1D1D1B" mask="url(#h)"/>
    </g>
    <g transform="translate(20.024989 .416667)">
      <mask id="j" fill="#fff">
        <use xlink:href="#i"/>
      </mask>
      <path d="M.04062174 2.39359228c.0706465-.37061401.12101484-.72063834.20768763-1.06370279.07686078-.30536506.12330431-.60406023.03074431-.91203525C.26237326.36391511.28821156.30040614.29442584.24153709.3712866.2656067.49720746.2725666.51617735.3163559c.10564269.24272607.27211986.49850193.25740184.74238798-.04121046.69308879-.15470276 1.38298763-.2547853 2.07230648-.01079321.07423879-.11578176.13774777-.17694332.20618666-.0448082-.06292898-.1125111-.12121804-.13082685-.18994693-.06639463-.25171592-.11610884-.5066218-.17040198-.7536978" fill="#1D1D1B" mask="url(#j)"/>
    </g>
    <g>
      <g transform="translate(8.893025 2.156639)">
        <mask id="l" fill="#fff">
          <use xlink:href="#k"/>
        </mask>
        <path d="M3.42409781 2.12525962c-.13911518.03334946-.26173732.09946839-.34635377.07568877-.21225821-.06002903-.4349142-.13397783-.60235438-.24997595-.45427559-.31348493-.87664074-.65654938-1.32195273-.97844417C.87413093.77040154.56865122.59176443.29077941.3884777.2097484.32931867.18285758.22202041.1312272.1367618.24918826.10544229.39547432.02134365.4786566.05150317c.39404015.14296768.83038853.26418572 1.14088787.49125205.59948603.43789292 1.12475339.94190476 1.67906284 1.41981703.03549588.0307395.05700854.07249883.12549049.16268737" fill="#1D1D1B" mask="url(#l)"/>
      </g>
      <g transform="translate(14.271189 .416667)">
        <mask id="n" fill="#fff">
          <use xlink:href="#m"/>
        </mask>
        <path d="M1.13170915 1.99313776c0 .21488652.00430253.42977304-.0032269.64465957-.00215127.05248915-.03370317.1420977-.06812342.14760761-.06310379.01014983-.13911517-.02841954-.20831422-.0495892-.01577595-.00521992-.03226898-.02116966-.03693006-.03479944-.15775948-.47675228-.67908285-.84185638-.6170547-1.39313746C.2331972.99033398.16614943.66611922.16650654.34480442c0-.09714843.07171028-.19429685.11043307-.2908653.13194429.05335914.28289143.09018855.38973762.16674731.07636993.05480911.11043164.16007741.13409556.24794599.13696391.50198188.26532276 1.00570373.39726706 1.50884559-.02258829.00521991-.04410095.01043983-.06633069.01565975" fill="#1D1D1B" mask="url(#n)"/>
      </g>
      <path d="M13.66550026 3.45906578c-.29113795-.23228624-.54642147-.38018385-.70884203-.57738066-.23735631-.28912532-.43885819-.60377023-.59841039-.92624501-.1692329-.34219447-.35137339-.66843919-.66330691-.94335474-.06202815-.05422912-.06668923-.15079756-.09788258-.22793631.10541201.01014983.23412941-.00724989.3126506.03537942.21799492.11976807.46861737.2348962.61239362.40396347.51271831.6055102.94476416 1.25016977 1.20650148 1.95891831.02079557.05741907-.0276079.13165787-.06310379.27665552" fill="#1D1D1B"/>
    </g>
    <g>
      <g transform="translate(4.162233 10.685126)">
        <mask id="p" fill="#fff">
          <use xlink:href="#o"/>
        </mask>
        <path d="M2.64602686.1547941c.22644727-.01997554.45320992-.05566955.67902642-.0520674.09051583.00130987.18040088.08907128.27060133.13753654-.06118492.0684408-.11006977.16897346-.18513168.19877305-.27154749.10740948-.54593346.22922756-.82978101.27572801C1.99443904.81136735 1.40056689.86048754.81079476.93580517c-.16084695.02030301-.31759387.07400776-.4787562.0930009-.0823158.00949657-.16936237-.02423263-.25451664-.03831375.03027707-.10446228.03090784-.2688512.095562-.30323533.31380924-.16635372.63361082-.35694007.97265095-.42800061.48853317-.10249747.99598951-.10904683 1.49524581-.15620222.00157693.0173558.00315386.03438414.00504618.05173994" fill="#1D1D1B" mask="url(#p)"/>
      </g>
      <path d="M8.71968926 7.90580759c-.20153176.0612365-.34156322.15816702-.42703287.12116314-.53931034-.23282972-1.18112119-.20990696-1.6119387-.72665139-.19711635-.2361044-.47686388-.3965637-.70425731-.60843546-.05424642-.0501026-.09209276-.19746317-.06055414-.2492031.03973866-.06483866.16431619-.11526873.24347812-.10446229.18828554.02521504.3945481.05043007.55287195.14703312.42766364.26066449.83608873.55538564 1.24829845.84290251.18765477.13065971.36490179.27638295.54656423.41522936.0454156.0347116.09051582.06909574.21257027.16242411M4.75332975 8.86836689c-.03216939.00458455-.06717725.02030301-.09619278.01178884-.07001573-.02030301-.13813914-.05173993-.2072087-.07891977.04730792-.08022965.08231578-.21842113.14223915-.23119238.31349385-.06614852.64654164-.18174471.94836621-.12934984.68028796.11821593 1.34701431.32386581 2.01815607.49709635.0435233.01178885.08578504.04781033.11921598.08219446.04194636.04257083.07411575.09529317.11006977.14375843-.05077717.03569401-.09713894.08972622-.15296229.10446228-.53457956.13917388-1.04865901.03241933-1.56494616-.12640263-.4286098-.13164212-.86699657-.22726276-1.30096794-.3392568l-.0157693.06582106z" fill="#1D1D1B"/>
    </g>
  </g>
</svg>
