<svg xmlns="http://www.w3.org/2000/svg" width="15" height="16"><g fill="#D6A4A4"><path d="M11.719 5.042L4.447 9.224c-.604.383-.828.847-.502 1.039.351.163 1.082.005 1.676-.363l7.295-4.176c.584-.383.789-.834.462-1.019-.352-.165-1.089-.005-1.684.366l.025-.029zM2.15 7.051L2.783.888c.04-.366-.04-.68-.208-.825-.168-.144-.4-.096-.608.126-.208.222-.36.584-.4.95l-.63 6.164c-.047.374.03.699.2.848.17.15.406.1.616-.128.211-.229.363-.601.397-.972zM6.653 15.41l7.29.07c.434.006.786-.11.925-.304.138-.193.042-.436-.253-.637-.295-.2-.744-.327-1.177-.334l-7.292-.066c-.443-.013-.808.1-.952.297-.145.196-.046.443.257.646.304.202.764.328 1.202.327z"/></g></svg>