<?xml version="1.0" encoding="UTF-8"?>
<svg version="1.1" viewBox="0 0 16 16" xmlns="http://www.w3.org/2000/svg">
<g fill="none" fill-rule="evenodd">
<g transform="translate(-113 -988)" fill="#F47C25" fill-rule="nonzero">
<g transform="translate(113 988)">
<path d="m15.991 6.0875c-0.023854-0.1001-0.095416-0.15015-0.19083-0.17518l-5.2479-0.80083-2.3377-4.9801c-0.071562-0.17518-0.35781-0.17518-0.42937 0l-2.3377 4.9801-5.2479 0.80083c-0.095416 0.025026-0.16698 0.075077-0.19083 0.17518-0.023854 0.1001 0 0.20021 0.071562 0.25026l3.7928 3.879-0.90645 5.4807c-0.023854 0.1001 0.023854 0.20021 0.095416 0.25026 0.071562 0.050052 0.16698 0.075077 0.26239 0.025026l4.6992-2.5777 4.6992 2.5777c0 0.025026 0.023854 0.025026 0.071562 0.025026s0.095416-0.025026 0.14312-0.050052c0.071562-0.050052 0.11927-0.15015 0.095416-0.25026l-0.90645-5.4807 3.7928-3.879c0.071562-0.075077 0.095416-0.17518 0.071562-0.25026z"/>
</g>
</g>
</g>
</svg>
