<svg xmlns="http://www.w3.org/2000/svg" xmlns:xlink="http://www.w3.org/1999/xlink" viewBox="0 0 48 48"><defs><path id="a" d="M0 48h48V0H0z"/></defs><g fill="none" fill-rule="evenodd"><path fill="#020303" d="M29.868 37.256a19.548 19.548 0 00-2.227-6.376 18.632 18.632 0 00-.836-1.344c-.065-.097-.221-.25-.225-.376-.012-.35.489-.338.696-.275.357.108.692.339.993.552.555.393 1.05.89 1.445 1.444.174.244.299.532.48.767.184.24.543.277.753.041.146-.164.125-.382.127-.587l.005-.68c.02-2.344.037-4.69.043-7.034.002-.557-.03-1.128.025-1.683.025-.244.071-.731.285-.898.23-.179.35.293.389.438.182.673.1 1.419.13 2.11a26.7 26.7 0 00.203 2.341c.05.38.1.763.174 1.14.053.27.196.498.476.574.732.2.87-.647.905-1.167.112-1.688.174-3.38.26-5.07.022-.406.035-.813.065-1.218.017-.24.084-.78.43-.765.218.01.272.301.297.472.054.383.013.79.01 1.175-.012 1.66-.072 3.328-.032 4.987.012.52-.005 1.492.728 1.5.684.007.776-.89.868-1.394.26-1.412.173-2.886.583-4.27.037-.127.123-.598.342-.528.219.07.228.573.24.742.055.75-.007 1.502-.093 2.247-.087.763-.204 1.523-.268 2.289-.03.359-.049.719-.045 1.08.003.333-.021.754.102 1.069.098.25.345.412.615.407.292-.005.49-.203.613-.451.273-.549.379-1.155.478-1.754.098-.597.174-1.231.43-1.787.058-.127.236-.586.37-.318.136.27.09.655.096.944a24.316 24.316 0 01-1.663 9.342c-.296.758-.626 1.502-.947 2.25-.16.374.39.7.553.323.658-1.533 1.317-3.057 1.77-4.666a24.99 24.99 0 00.925-7.348c-.013-.514.012-1.363-.61-1.555-.686-.213-1.043.615-1.216 1.124-.21.617-.276 1.272-.392 1.91-.055.3-.118.599-.215.888a2.034 2.034 0 01-.164.387c-.045.076-.037.117-.06.015-.08-.345-.051-.755-.043-1.107.01-.41.045-.82.089-1.228.082-.764.2-1.524.272-2.289.07-.735.131-1.524-.012-2.255-.108-.55-.564-1.105-1.176-.83-.295.132-.428.393-.53.683a6.672 6.672 0 00-.27 1.098c-.125.745-.17 1.5-.24 2.25-.032.332-.067.664-.12.993a8.333 8.333 0 01-.102.521c-.035.154-.06.437-.155.565-.026.033-.01.014-.02.003-.09-.093-.073-.448-.081-.571-.028-.418-.013-.838-.01-1.256l.02-2.638.01-1.266c.002-.402.032-.813-.003-1.213-.05-.563-.317-1.2-.983-1.18-.734.024-.987.8-1.031 1.405-.063.862-.09 1.728-.135 2.591l-.136 2.64c-.02.406-.022.818-.067 1.222-.008.07-.042.364-.057.381-.052.055-.065-.187-.07-.218a24.222 24.222 0 01-.294-2.44c-.053-.741-.038-1.482-.079-2.223-.031-.567-.125-1.493-.752-1.729-.697-.261-1.095.455-1.222 1.025-.134.602-.098 1.23-.099 1.844l-.006 1.809a1592.74 1592.74 0 01-.024 3.786l-.012 1.663-.006.652c0 .087-.019.195-.002.28v.044c-.016.126.078.126.281 0 .01-.06-.135-.243-.167-.297a6.903 6.903 0 00-1.356-1.628c-.499-.439-1.1-.896-1.745-1.09-.635-.19-1.507.11-1.506.893 0 .304.204.538.365.776a18.54 18.54 0 012.46 5.31c.204.717.364 1.445.486 2.18.067.406.683.234.617-.17m-10.64-4.302a18.498 18.498 0 011.65-3.018c.177-.262.388-.507.36-.843-.065-.788-.95-1.024-1.586-.797-.638.228-1.225.668-1.724 1.117a6.911 6.911 0 00-1.334 1.645c-.022.038-.131.182-.125.224l.283.042-.001-.085c.016-.086-.002-.194-.003-.281l-.005-.711c-.02-2.422-.038-4.844-.043-7.266 0-.617.037-1.254-.118-1.857-.145-.565-.603-1.263-1.279-.912-.584.303-.655 1.207-.68 1.782-.032.745-.026 1.49-.082 2.235a23.81 23.81 0 01-.303 2.436c-.002.009-.005.176-.053.124-.016-.016-.05-.311-.057-.381-.05-.439-.05-.886-.073-1.327l-.136-2.64c-.044-.854-.057-1.716-.136-2.567-.056-.615-.363-1.35-1.1-1.323-.652.022-.879.7-.912 1.246-.05.832.006 1.684.012 2.518l.02 2.638c.003.383.015.767-.01 1.15-.008.123.008.478-.081.571-.011.011-.019.009.004.01-.03-.002-.012-.008-.043-.073-.14-.307-.184-.697-.238-1.026a15.248 15.248 0 01-.128-1.084c-.068-.75-.115-1.504-.247-2.246-.1-.563-.217-1.523-.862-1.726-.625-.198-1.02.382-1.11.925-.124.75-.068 1.536.007 2.287.076.765.194 1.525.274 2.289.039.377.069.754.078 1.133a9.17 9.17 0 01-.002.558c-.003.065.001.599-.053.615-.036.01-.186-.393-.211-.468a6.678 6.678 0 01-.23-.965c-.112-.637-.181-1.292-.402-1.904-.183-.503-.59-1.343-1.268-1.021-.577.273-.525 1.091-.536 1.622-.07 3.31.536 6.626 1.76 9.7.297.744.622 1.478.938 2.215.162.377.714.051.553-.323-.65-1.513-1.293-3.019-1.734-4.609a24.135 24.135 0 01-.875-7.082c.007-.26-.028-.602.094-.845.053-.105.068-.123.161-.048.109.087.187.308.24.433.477 1.127.308 2.452.91 3.537.27.49 1.04.536 1.217-.072.088-.3.076-.66.08-.97.006-.408-.017-.815-.053-1.221-.134-1.506-.476-3.015-.346-4.533.014-.157.037-.587.234-.65.233-.075.328.477.366.61.193.692.26 1.409.322 2.121.062.72.115 1.444.252 2.154.098.506.209 1.361.903 1.302.716-.061.672-1.06.68-1.584.01-.823-.01-1.647-.017-2.47l-.018-2.533c-.002-.238-.166-1.587.335-1.543.328.03.385.521.403.766.03.422.044.847.066 1.27l.134 2.589c.043.835.062 1.675.13 2.508.024.29.04.652.233.883a.65.65 0 00.714.189c.254-.09.378-.306.428-.558.08-.41.134-.824.187-1.237.1-.776.164-1.558.194-2.34.027-.686-.057-1.429.15-2.093.043-.14.156-.522.366-.359.233.182.27.717.291.982.043.553.017 1.115.019 1.669a1519.442 1519.442 0 00.048 7.644c.001.22-.02.458.16.621.58.527.996-.567 1.25-.911a6.165 6.165 0 011.464-1.424c.283-.194.592-.403.923-.503.215-.065.755-.065.69.313-.02.11-.158.249-.219.338a17.423 17.423 0 00-.88 1.425 19.344 19.344 0 00-2.182 6.295c-.067.403.55.577.617.17a19.22 19.22 0 011.295-4.472zm4.599-24.927l.02-3.246c.002-.412-.638-.413-.64 0l-.02 3.246c-.003.412.637.412.64 0M16.714 7.02l1.846 2.02a.32.32 0 00.452 0 .327.327 0 000-.452l-1.845-2.021a.322.322 0 00-.453 0 .327.327 0 000 .452m-2.383 4.975l2.627.77c.397.115.566-.502.17-.618l-2.627-.769c-.396-.116-.565.502-.17.617m14.932-5.427l-1.846 2.021c-.113.124-.131.332 0 .453.123.113.332.132.452 0l1.846-2.022c.113-.123.131-.332 0-.452-.123-.113-.332-.132-.452 0m2.665 4.81l-2.627.77c-.395.115-.227.733.17.617l2.627-.77c.394-.115.227-.733-.17-.617m-9.663 26.195c1.851-4.412 2.848-9.252 2.498-14.045a25.002 25.002 0 00-.615-3.991c-.096-.4-.713-.231-.617.17 1.094 4.582.76 9.398-.54 13.901a34.549 34.549 0 01-1.344 3.795c-.067.16.073.35.224.394.184.053.327-.065.394-.224"/><path fill="#020303" d="M24.452 25.263c-.518-1.925-2.161-3.501-4.106-3.94-.494-.11-1.082-.126-1.431.24-.356.375-.292 1.006.001 1.43.294.425.76.691 1.21.943l2.939 1.646c.336.188.691.382 1.077.383.374 0 .722-.181 1.05-.36 1.805-.986 3.77-2.359 3.931-4.41.017-.22-.001-.472-.172-.613-.175-.145-.434-.11-.654-.052-1.906.507-3.387 2.322-3.502 4.291m-4.749-10.415c-1.062.2-2.044 1.104-2.068 2.232-.023 1.097 1.014 2.15 2.134 1.95.567-.103 1.101-.593 1.695-.373.511.188.89.65 1.33.953.985.676 2.434.787 3.25-.21.365-.445.517-1.02.355-1.58-.15-.516-.577-.975-.608-1.522-.033-.587.468-1.093.74-1.57.285-.5.436-1.08.389-1.657-.095-1.146-.948-2.082-2.12-2.145-.586-.031-1.046.232-1.498.571-.187.14-.392.32-.627.367-.279.056-.48-.15-.672-.32-.447-.394-.973-.625-1.578-.607-.568.018-1.143.24-1.54.654-.826.864-.728 2.364.166 3.142.31.27.764-.18.452-.452-.626-.546-.764-1.612-.165-2.237a1.579 1.579 0 011.087-.467c.473-.014.836.166 1.184.471.356.313.744.55 1.236.433.463-.11.797-.482 1.19-.724.794-.487 1.836.009 2.139.843a2.132 2.132 0 01-.035 1.476c-.18.473-.537.855-.76 1.307-.215.438-.296.908-.145 1.38.151.472.51.885.584 1.38.066.44-.196.87-.551 1.113-.439.3-.986.299-1.478.14-.938-.303-1.506-1.345-2.528-1.435-.618-.054-1.078.38-1.662.451-.493.06-.94-.285-1.165-.698-.566-1.043.457-2.064 1.44-2.248.403-.077.232-.693-.171-.618"/><mask id="b" fill="#fff"><use xlink:href="#a"/></mask><path fill="#010101" fill-rule="nonzero" d="M22.897 15.82a.88.88 0 01-.829-1.22.876.876 0 01.704-.597.845.845 0 01.845.505.86.86 0 01.075.581.736.736 0 01-.172.458.82.82 0 01-.598.274h-.025zm.075-.817l.028.028.034-.034a.105.105 0 00-.034-.05.43.43 0 00-.028.054v.002z" mask="url(#b)"/></g></svg>