<svg xmlns="http://www.w3.org/2000/svg" viewBox="0 0 48 48"><g fill="#010101"><path d="M14.315 31.876a6.046 6.046 0 010-.834V11.52l-.32.32h19.522c.267.02.535.02.802 0a.183.183 0 01.034 0l-.32-.32v18.155c0 .73-.028 1.465 0 2.195l.32-.32c-.139 0-.273-.056-.412-.073a2.703 2.703 0 00-.473 0c-.31.027-.62.033-.93.017-.666-.04-1.32-.068-1.989-.049-.313 0-.629.017-.943.034-.32.035-.642.047-.964.035-.64-.058-1.295.055-1.943.049-2.742-.026-5.48-.084-8.222-.069-.762 0-1.526 0-2.287.02-.725 0-1.472-.054-2.193.038-.403.051-.408.693 0 .64.643-.048 1.288-.06 1.933-.034l2.028-.021h4.122c1.374 0 2.729.042 4.094.057.35 0 .7.015 1.05.01.313 0 .62-.063.934-.076.313-.013.582.051.877.034.332-.017.665-.051 1-.062a19.84 19.84 0 012.253.013c.346.03.693.034 1.039.013.173-.022.348-.03.523-.024.17.015.33.073.503.081a.322.322 0 00.32-.32c-.053-1.303 0-2.617 0-3.92V11.52a.324.324 0 00-.32-.32H16.51c-.824 0-1.66-.036-2.483 0h-.037a.324.324 0 00-.32.32v19.364a7.727 7.727 0 000 .994.333.333 0 00.32.32.32.32 0 00.325-.322zm-7.202-20.52c-1.01.09-2.01.27-2.987.537a.32.32 0 00.17.617 16.026 16.026 0 012.823-.514.329.329 0 00.32-.32.324.324 0 00-.32-.32h-.006zm6.952-5.634l.655-2.723c.096-.398-.52-.57-.619-.168l-.661 2.716c-.096.399.52.57.619.168l.006.007zM9.22 7.2L6.782 4.76a.322.322 0 00-.455.454l2.441 2.438A.32.32 0 009.22 7.2zm2.198 32.544c6.634-.023 13.269-.07 19.901-.066 1.884 0 3.766.013 5.647.049.412 0 .412-.64 0-.64-6.634-.13-13.275-.028-19.908 0l-5.64.021a.32.32 0 100 .64v-.004z"/><path d="M11.179 9.024l-.073 11.842c-.025 3.951-.062 7.893-.015 11.853.026 2.219.075 4.435.122 6.654 0 .412.64.412.64 0-.086-3.936-.152-7.87-.143-11.806.008-3.936.043-7.893.068-11.85l.04-6.693a.32.32 0 10-.64 0zm25.6 0l-.073 11.842c-.025 3.951-.062 7.893-.015 11.853.026 2.219.075 4.435.122 6.654 0 .412.64.412.64 0-.086-3.936-.152-7.87-.143-11.806.008-3.936.043-7.893.068-11.85l.04-6.693a.32.32 0 00-.64 0z"/><path d="M11.578 9.041c1.58 0 3.157.105 4.738.134.606.01 1.213-.012 1.817-.066.694-.055 1.393-.023 2.087-.021 3.588.014 7.176.025 10.762.032h6.095a.32.32 0 100-.64c-3.605 0-7.21-.005-10.814-.015l-5.356-.015c-.802 0-1.613-.04-2.415 0-.508.024-1.011.103-1.52.1-1.798-.015-3.592-.13-5.39-.143a.32.32 0 100 .64l-.004-.006zm4.349 22.912a28.105 28.105 0 006.556-6.078 24.533 24.533 0 001.464-2.133c.213-.352-.337-.674-.553-.322-1.965 3.2-4.693 5.873-7.79 7.972-.34.228-.02.783.323.553v.008z"/><path d="M20.115 28.013a5.623 5.623 0 00-.12-5.69c-.268-.426-.673-.853-1.181-.853s-.917.505-1.01 1.013c-.09.508.05 1.024.189 1.521l.915 3.243a2.3 2.3 0 00.49 1.032c.287.244.63.41.999.487 1.973.58 4.333.998 5.896-.337a.702.702 0 00.312-.555.727.727 0 00-.427-.5 4.853 4.853 0 00-5.508.573m3.795-10.511c-.902-.617-2.283-.677-3.083.153-.693.72-.768 2.055.024 2.733.427.37 1.116.397 1.478.836.363.44.297 1.108.367 1.626.154 1.133.905 2.25 2.134 2.347a1.824 1.824 0 001.446-.5c.41-.426.48-.99.698-1.506.243-.576.757-.716 1.322-.838a3.657 3.657 0 001.583-.64c.907-.708 1.28-1.935.713-2.974a1.988 1.988 0 00-1.227-.966c-.393-.103-1.118-.026-1.378-.404-.18-.262-.105-.663-.158-.966a2.071 2.071 0 00-.37-.838 2.304 2.304 0 00-1.516-.922c-1.312-.18-2.504 1.016-2.415 2.319.028.407.668.412.64 0-.064-.932.777-1.862 1.75-1.679.453.09.848.365 1.092.757.277.45.147.954.32 1.43.176.423.565.72 1.02.778.426.088.913.07 1.28.35.78.591.731 1.718.102 2.39a2.42 2.42 0 01-1.265.687c-.465.106-.96.17-1.376.426-.407.27-.7.682-.824 1.154-.143.427-.239.924-.66 1.17-.901.522-1.848-.237-2.134-1.08-.32-.909-.026-2.078-.88-2.744-.426-.324-1.045-.362-1.399-.768a1.29 1.29 0 01-.19-1.23c.355-1.106 1.782-1.09 2.592-.538.342.232.662-.322.323-.553l-.009-.01z"/><path d="M26.763 19.93a.853.853 0 000-.875.99.99 0 00-.67-.495.838.838 0 00-.815.316 1.047 1.047 0 00-.213.719c.017.296.167.57.41.742a.97.97 0 00.867.094.82.82 0 00.55-.755.853.853 0 00-.439-.751.69.69 0 00-.913.31.774.774 0 00-.096.439.64.64 0 00.295.495.322.322 0 00.437-.116.326.326 0 00-.115-.426c-.043-.028.055.05.032.023l-.022-.02c-.049-.046.037.067 0 .016a.096.096 0 00-.012-.026s.03.086.019.047c-.01-.038-.02-.096 0-.025.02.07 0 0 0-.015s.021-.094 0 .015a.305.305 0 010-.047c0-.039.051-.098 0 0 0-.015.015-.032.025-.05.011-.016.058-.061-.012 0 .015-.014.025-.03.04-.042.051-.05-.068.043 0 0l.02-.013c.027-.017.06 0-.033.013l.045-.013c.05-.013-.08 0-.042 0a.16.16 0 00.032 0h.027c-.091 0-.066-.01-.032 0h.032c.03 0 .034.03-.034-.015l.051.03c.056.032-.062-.055 0 0 0 0 .069.079.028.028-.04-.051 0 0 .015.023.015.024.036.103 0 0 0 .017.013.034.017.051a.284.284 0 010 .041v-.03.062c0 .021-.021.083 0 0 0 .021 0 .045-.017.066-.017.021-.026.04.017-.038l-.017.038a.213.213 0 01-.017.024c-.02.032-.043.032.017-.017l-.04.04c-.058.056.063-.04 0 0l-.062.036c-.073.037.072-.025 0 0-.022 0-.043.013-.064.02a.26.26 0 01-.037 0h.04-.145c.108 0 .03 0 0 0l-.058-.018c-.03-.01-.049-.036.024 0l-.041-.02-.055-.035c-.032-.02.068.058.03.021l-.02-.017-.042-.045c-.018-.019-.026-.044.025.035l-.021-.03c0-.02-.022-.037-.03-.056l-.013-.021.02.04a.335.335 0 00-.022-.06c0-.02 0-.04-.015-.061a.164.164 0 010-.032v-.075a.162.162 0 000-.032v.034a1.045 1.045 0 01.045-.166c-.036.113 0 .026 0 0l.025-.043a.151.151 0 00.022-.03s-.056.069-.026.037a.405.405 0 01.04-.045l.02-.017c.036-.036-.068.047-.026.019.043-.028.034-.023.052-.032l.023-.013c.038-.021-.04.017-.043.017l.064-.021h.028c.056-.015-.083 0-.03 0h.081c.007 0-.09-.015-.045 0h.039c.02 0 .098.036.038 0-.06-.036.024.013.037.02l.057.038c.045.03-.053-.047-.025-.02l.032.028c.017.017.036.034.053.053l.017.024c-.066-.073-.032-.043-.017-.021a.51.51 0 01.045.072l.012.024c.026.049-.027-.075-.01-.026a.433.433 0 01.021.07.2.2 0 010 .034c.013.054 0-.087 0-.032a.337.337 0 010 .067v.038c0 .009.015-.092 0-.032 0 .021-.015.043-.02.064.027-.09.027-.058 0-.034a.452.452 0 01-.025.043.32.32 0 00.555.322l.01.015z"/></g></svg>