<svg xmlns="http://www.w3.org/2000/svg" viewBox="0 0 48 48"><g fill="#010101"><path d="M34.057 24.791a5.527 5.527 0 012.26.254c.745.25 1.338.698 1.983 1.129a5.035 5.035 0 003.867.706 4.907 4.907 0 002.046-.992c.32-.258-.134-.708-.452-.452a4.425 4.425 0 01-4.595.512 8.678 8.678 0 01-1.118-.721 6.227 6.227 0 00-1.265-.679 5.948 5.948 0 00-2.726-.386c-.406.039-.41.679 0 .64v-.01z"/><path d="M43.733 23.392a3.038 3.038 0 01-3.808 1.047c-.364-.185-.689.367-.322.553a3.69 3.69 0 004.683-1.28c.213-.35-.33-.67-.553-.324v.004zm-26.097-2.434v1.532c0 .443.16 1.28-.354 1.493a1.092 1.092 0 01-.44.049h-4.136a.606.606 0 01-.476-1.011 62.815 62.815 0 012.036-2.417.804.804 0 01.69-.246H16c.527 0 1.604-.2 1.634.596.017.41.657.411.64 0a1.254 1.254 0 00-.939-1.2 3.055 3.055 0 00-.725-.036c-.616 0-1.237-.02-1.854 0-.704.026-1.047.557-1.455 1.04l-1.38 1.642a2.274 2.274 0 00-.401.587c-.173.45-.074.958.256 1.31.414.439.992.38 1.538.38 1.24 0 2.485.038 3.723 0a1.26 1.26 0 001.171-.811 2.46 2.46 0 00.077-.875v-2.033a.324.324 0 00-.649 0zm-9.642 5.429a1.707 1.707 0 01.13 3.266.329.329 0 00-.214.393c.048.17.224.27.395.224a2.347 2.347 0 00-.132-4.48c-.395-.117-.563.5-.169.619l-.01-.022zm8.696 6.82a2.133 2.133 0 00-2.134-2.133.32.32 0 100 .64c.059-.003.118-.003.177 0h.049c-.043 0-.047 0 0 0l.072.015c.056.01.111.026.165.04l.091.033c.017 0 .088.036.013 0 .103.042.2.095.292.157l.069.05c.019.012.013 0-.017-.015l.036.03a2.03 2.03 0 01.235.234c.036.043.038.051 0 0l.053.077c.061.093.115.19.16.292-.034-.074 0 0 0 .013s.021.062.03.092c.017.054.031.11.042.166l.013.073c.015.064 0-.062 0 .025v.188c0 .177.144.32.32.32a.326.326 0 00.32-.32l.013.023zm17.475 0a2.133 2.133 0 00-2.133-2.133.322.322 0 00-.32.32.326.326 0 00.32.32 1.64 1.64 0 01.177 0h.05c-.046 0-.048 0 0 0l.072.015c.055.01.11.026.164.04l.092.033c.017 0 .085.036.012 0 .103.042.2.095.293.157l.068.05c.02.012.013 0-.02-.015l.04.03a1.529 1.529 0 01.233.235c.033.042.04.05-.001 0l.055.076c.061.093.115.19.16.292-.034-.074 0 0 0 .013l.032.092c.017.055.03.11.043.166l.013.073c.012.064 0-.062 0 .025.003.063.003.125 0 .188a.32.32 0 10.64 0l.01.023zm-6.907.66a5.506 5.506 0 001.493 2.835.32.32 0 00.452-.452 4.926 4.926 0 01-1.34-2.56.32.32 0 10-.616.168l.01.009zm-17.218.795a3.42 3.42 0 001.143 1.83.32.32 0 10.452-.451 3.285 3.285 0 01-.43-.43l-.043-.053c.019.024.019.026 0 0a2.497 2.497 0 01-.145-.213c-.045-.075-.084-.139-.122-.213-.02-.037-.036-.073-.053-.11a.512.512 0 01-.024-.048s-.034-.075-.017-.036c.017.038 0-.017 0-.024l-.026-.064-.04-.115a3.009 3.009 0 01-.068-.248.32.32 0 10-.619.171l-.009.004zm18.587-2.218c-.917-.175-1.845-.122-2.773-.09l-2.805.092c-.44.025-.881.025-1.321 0a7.04 7.04 0 00-1.325-.039 5.88 5.88 0 01-1.23-.032 5.203 5.203 0 00-1.349.092c-.405.064-.235.68.17.617a4.606 4.606 0 011.28-.058c.411.05.826.053 1.238.013a6.56 6.56 0 011.227.047c.44.025.88.025 1.32 0l2.701-.09c.9-.03 1.818-.104 2.707.064.403.077.574-.54.17-.616h-.01z"/><path d="M11.138 32.32l-3.168-.079.307.235a12.527 12.527 0 01-.049-2.227c.015-.74.017-1.479 0-2.22a89.184 89.184 0 00-.072-2.243c-.015-.295-.05-.587-.056-.88a1 1 0 01.33-.784l2.988-3.288 1.493-1.643c.198-.213.405-.53.668-.676.298-.162.744-.13 1.066-.158a41.116 41.116 0 015.05-.09c.412.02.41-.62 0-.64a41.227 41.227 0 00-4.734.067c-.698.051-1.508 0-2.037.529-.53.529-1.026 1.128-1.536 1.69l-3.2 3.522a2.987 2.987 0 00-.625.808 1.92 1.92 0 00-.094.898c.057.732.083 1.468.1 2.202.023.882.026 1.762.01 2.641-.014.89-.07 1.777.069 2.662.04.139.165.235.31.235l3.167.08c.412.01.412-.63 0-.641h.013zm24.182.798a8.32 8.32 0 001.868-.107.329.329 0 00.235-.307 9.858 9.858 0 00-.081-2.067 12.13 12.13 0 010-2.008c.049-.682.117-1.367.109-2.05 0-.318-.045-.64-.066-.945a68.719 68.719 0 01-.15-4.087c.021-.376.067-.749.137-1.118a8.501 8.501 0 00-.077-1.96 9.828 9.828 0 01-.068-.935c.007-.358.04-.714.1-1.067.053-.399.117-1.28-.489-1.297a5.8 5.8 0 00-.778.143c-.355.038-.71.058-1.067.058-.698 0-1.393-.017-2.09-.04-1.402-.05-2.804-.084-4.208-.078-.797 0-1.593.013-2.389.02-.796.006-1.58-.035-2.372-.018-.792.018-1.566.086-2.347.11-.661.02-1.32 0-1.982-.02-.411-.015-.41.625 0 .64 1.24.05 2.466 0 3.702-.064 1.374-.072 2.756 0 4.132-.017a93.965 93.965 0 014.104.02c1.368.042 2.714.144 4.054.067.316-.015.631-.052.943-.11a.559.559 0 00.213-.047h.03c.079-.017.043-.043-.109-.081 0 0 .034.38.034.405-.013.299-.085.59-.113.89-.03.325-.03.653 0 .979.085.651.137 1.307.154 1.964-.013.47-.16.922-.17 1.39-.026 1.324.061 2.662.134 3.982.012.241.03.48.055.721.045.732.026 1.467-.058 2.195a14.03 14.03 0 00-.049 2.16c.058.757.188 1.506.098 2.267l.235-.31a7.8 7.8 0 01-1.707.084c-.411-.02-.41.62 0 .64l.032-.002z"/><path d="M31.63 30.293a2.897 2.897 0 012.988 1.566 3.15 3.15 0 01-.64 3.514c-.46.454-1.197.614-1.822.64a3.413 3.413 0 01-1.86-.478 2.654 2.654 0 01-1.2-2.643 2.92 2.92 0 01.745-1.656c.196-.222.424-.414.676-.57a4.907 4.907 0 011.218-.392c.402-.083.233-.7-.17-.616a6.295 6.295 0 00-1.193.375 3.364 3.364 0 00-.853.627 3.326 3.326 0 00-.977 1.726c-.299 1.257.049 2.656 1.094 3.467 1.189.921 3.032 1.094 4.346.324.676-.395 1.113-1.167 1.374-1.886a3.49 3.49 0 00-3.725-4.638c-.403.05-.408.692 0 .64zm-17.469 0a2.9 2.9 0 012.987 1.566 3.153 3.153 0 01-.653 3.514c-.459.454-1.195.614-1.822.64a3.4 3.4 0 01-1.873-.48 2.645 2.645 0 01-1.199-2.643 2.908 2.908 0 01.745-1.656c.194-.223.422-.416.676-.57a4.853 4.853 0 011.216-.392c.403-.083.232-.7-.17-.617a6.274 6.274 0 00-1.191.376 3.642 3.642 0 00-1.83 2.347c-.301 1.256.048 2.656 1.094 3.466 1.188.922 3.031 1.095 4.345.325.677-.395 1.114-1.167 1.372-1.886a3.486 3.486 0 00-3.697-4.63c-.403.05-.41.692 0 .64zm5.179-14.532c.093 3.983.25 7.96.073 11.947a17.493 17.493 0 00.103 3.309c.057.405.674.232.616-.171-.28-1.92 0-3.87.017-5.792.026-1.97-.044-3.94-.09-5.912l-.078-3.375c0-.41-.64-.411-.64 0v-.006zm3.393 13.44a4.631 4.631 0 011.472-2.428 10.28 10.28 0 012.33-1.41c.86-.382 1.7-.809 2.515-1.28.81-.503 1.691-1.188 2.133-2.058.196-.387.139-.754.045-1.159a2.842 2.842 0 01-.06-1.03 2.9 2.9 0 01.996-1.82l-.503-.064a3.08 3.08 0 01-.854 3.723c-.324.245 0 .802.325.554a3.74 3.74 0 001.081-4.603.324.324 0 00-.503-.067 3.53 3.53 0 00-1.09 3.52c.062.171.076.355.042.534-.058.149-.14.287-.243.41a4.95 4.95 0 01-.501.575 6.613 6.613 0 01-1.097.854c-1.608 1.026-3.511 1.546-4.987 2.773a5.237 5.237 0 00-1.726 2.784c-.098.401.518.572.618.17l.007.022z"/><path d="M28.587 24.01a3.168 3.168 0 00.497-3.16c-.11-.265-.29-.543-.572-.585a.657.657 0 00-.66.46 1.92 1.92 0 00-.046.854l.185 1.886a.964.964 0 00.675.987c1.036.517 2.301.984 3.3.397.115-.05.2-.154.226-.277a.412.412 0 00-.186-.318 2.73 2.73 0 00-3.106-.237m-2.447.813c.49-.765.644-1.697.427-2.58-.166-.64-.853-1.316-1.402-.96-.48.308-.339 1.033-.14 1.567l.817 2.195m.309-.192a3.84 3.84 0 013.061 1.199c.248.266.465.657.297.981-.169.324-.54.365-.868.329a2.246 2.246 0 01-1.564-.926c-.194-.278-.324-.598-.536-.854a.956.956 0 00-.872-.426"/></g></svg>