<svg xmlns="http://www.w3.org/2000/svg" width="48" height="48"><g fill="#010101"><path d="M31.279 40.429c.853-2.031 1.596-4.126 1.969-6.304a20.53 20.53 0 00.105-6.027 35.266 35.266 0 00-.713-3.85c-.096-.402-.713-.23-.617.17.506 2.101.88 4.245.88 6.413a20.243 20.243 0 01-.907 5.828 37.058 37.058 0 01-1.323 3.6.32.32 0 10.617.17h-.011z"/><path d="M33.054 33.517c-.725-1.622-1.756-3.648-3.512-3.926a.606.606 0 00-.54.107.64.64 0 00-.089.56 4.198 4.198 0 003.458 3.31l.683-.051zm-.068-4.557a5.097 5.097 0 00-3.414-3.868c-.44-.136-.968-.196-1.312.11-.343.304-.339.887-.106 1.292.264.388.614.71 1.021.943l2.533 1.706c.272.221.597.368.943.427.34.001.677-.083.977-.245 1.706-.755 3.584-1.848 3.882-3.687a.64.64 0 00-.108-.567.661.661 0 00-.587-.098 4.403 4.403 0 00-3.486 3.614"/><path d="M28.265 19.294c-1.112.213-2.134 1.15-2.164 2.325-.03 1.176 1.067 2.24 2.223 2.038.598-.103 1.15-.617 1.777-.397.544.192.948.685 1.413 1.007 1.015.7 2.52.834 3.379-.186.402-.454.55-1.08.394-1.666-.153-.548-.61-1.033-.64-1.613-.03-.58.476-1.137.762-1.63a3.02 3.02 0 00.427-1.755 2.377 2.377 0 00-2.193-2.247 2.23 2.23 0 00-1.504.533 2.44 2.44 0 01-.694.427c-.324.098-.552-.13-.776-.326a2.27 2.27 0 10-3.08 3.33c.309.269.763-.181.452-.452-.664-.576-.811-1.707-.18-2.37.305-.311.718-.49 1.152-.502.472-.01.929.17 1.265.501.382.338.811.594 1.338.427.476-.14.813-.523 1.23-.768.854-.5 1.955.073 2.25.962.16.503.14 1.046-.056 1.536-.196.5-.576.905-.809 1.39a1.869 1.869 0 00-.117 1.469c.169.48.538.915.597 1.427.027.498-.234.966-.672 1.205-.467.25-1.02.281-1.512.088-.994-.33-1.604-1.461-2.707-1.493-.621-.026-1.101.426-1.694.48-.531.053-1.01-.335-1.235-.788-.55-1.098.52-2.152 1.546-2.346.404-.077.233-.694-.17-.617l-.002.01z"/><path d="M31.81 19.424c-.115-.538-.774-.791-1.263-.619a.866.866 0 00-.576.608c-.066.328.03.668.256.913a.97.97 0 001.634-.213.853.853 0 00-.143-.977.887.887 0 00-.853-.213.704.704 0 00-.414.343.75.75 0 00-.045.536.783.783 0 00.256.4.662.662 0 00.574.144.32.32 0 00.214-.393.329.329 0 00-.393-.224c-.055.01.077 0 .036 0h-.025c-.034 0-.043-.02.038 0h-.051c.077.015.066.03.04.017l-.02-.013c-.058-.034.023.011.02.02l-.044-.041-.017-.021c-.028-.028.049.072.019.027l-.028-.049-.013-.023c.05.077.022.053.01.023a.61.61 0 01-.014-.06c-.017-.061 0 .088 0 0v-.055.007c.02-.07-.032.055 0 .012a.137.137 0 00.017-.03c.015-.032-.051.056-.026.032a.489.489 0 00.05-.044c-.052.055-.054.036-.03.023l.036-.021c.043-.026-.036.019-.036.015h.027c.013 0 .094-.02.028 0-.066.019.013 0 .028 0h.03c.057 0-.081-.017-.026 0 .02.003.039.007.058.013.015 0 .09.034.032 0-.058-.035.015 0 .03.017l.025.017c.026.017.039.042-.017-.015l.045.038.02.024c.038.038-.04-.058-.018-.026.021.032.021.038.034.058.013.019 0 .038-.015-.037 0 .015 0 .03.015.043v.082c0 .025 0 .055 0 0 0-.056 0 0 0 0a.64.64 0 00-.025.084s.036-.072.01-.03l-.017.033a.557.557 0 01-.036.06c-.034.053.04-.046.013-.016l-.024.028-.066.062c-.03.03.068-.045.015 0l-.03.02-.062.035c-.055.03.06-.02.02 0l-.035.013h-.042c-.013 0-.069.013 0 0 .068-.013-.024 0-.039 0h-.064.039-.039c-.027 0-.05-.017-.076-.025-.026-.009.064.034.032.012l-.037-.017a.482.482 0 01-.055-.034l-.028-.019c-.049-.032.05.045.02.015a.708.708 0 01-.06-.056l-.05-.053c-.017-.021 0-.036.02.026a.213.213 0 00-.02-.028l-.034-.055s0-.024-.017-.037c-.017-.013 0 0 0 .026-.013-.047-.03-.092-.04-.139-.01-.047 0 .04 0 .039v-.109c0-.06-.015.07 0 .03a.17.17 0 000-.032.427.427 0 00.021-.069s-.036.075-.013.032l.013-.027c.01-.02.026-.037.036-.056-.055.09-.025.034 0 0a.183.183 0 01.043-.038s-.075.049-.034.028l.021-.015c.017 0 .039-.02.056-.032.017-.013-.039.017-.04.017a.124.124 0 00.029-.022l.062-.019h.025c.06-.013-.014 0-.032 0a.346.346 0 00.067 0h.061a.31.31 0 00.064.013c.022 0 .043 0 .064.02h.03c.037 0-.076-.037-.034-.016.022.01.042.022.062.034.015 0 .079.054.026.013-.054-.04 0 .01.021.021.021.011.06.073.02.02-.041-.054 0 .012.012.025l.013.024c.03.053-.022-.062-.013-.03s.015.047.02.07c.048.17.223.27.394.224a.329.329 0 00.224-.394l.004.006zM14.027 40.292a35.955 35.955 0 002.227-7.68c.49-2.679.66-5.406.51-8.126a25.29 25.29 0 00-.64-4.345c-.096-.4-.713-.23-.617.17.576 2.549.785 5.167.621 7.774a36.64 36.64 0 01-1.3 7.894 34.065 34.065 0 01-1.426 4.136.32.32 0 00.213.393.326.326 0 00.392-.214l.02-.002z"/><path d="M16.33 25.387a4.864 4.864 0 00-3.55-3.414c-.426-.096-.934-.108-1.237.214-.302.322-.251.87 0 1.237.283.345.64.622 1.044.81l2.54 1.424c.278.187.598.3.93.33a1.95 1.95 0 00.91-.311c1.559-.854 3.257-2.038 3.396-3.81a.61.61 0 00-.15-.53.64.64 0 00-.565-.044A4.192 4.192 0 0016.623 25m-.499 6.697a5.103 5.103 0 00-3.414-3.868c-.426-.136-.968-.196-1.312.111-.343.307-.339.886-.106 1.29.266.388.616.71 1.024.944l2.53 1.707c.274.219.6.365.945.426.34 0 .676-.085.975-.247 1.707-.755 3.584-1.848 3.885-3.687a.64.64 0 00-.111-.567.661.661 0 00-.587-.096 4.399 4.399 0 00-3.486 3.612M11.84 14.77c-1.111.212-2.133 1.147-2.163 2.324-.03 1.178 1.066 2.24 2.223 2.038.597-.103 1.15-.617 1.775-.397.546.192.947.685 1.414 1.007 1.016.7 2.517.832 3.38-.186.402-.454.55-1.08.394-1.666-.156-.548-.61-1.032-.64-1.613-.03-.58.474-1.13.764-1.63a3.01 3.01 0 00.426-1.755 2.372 2.372 0 00-2.197-2.247 2.23 2.23 0 00-1.493.534 2.44 2.44 0 01-.694.437c-.324.098-.552-.13-.776-.326a2.272 2.272 0 00-3.091 3.33c.309.269.763-.182.452-.453-.666-.578-.81-1.706-.18-2.37a1.67 1.67 0 011.153-.49c.472-.012.928.17 1.265.501.384.337.813.593 1.337.427.476-.141.813-.523 1.231-.768.854-.5 1.957.072 2.25.962a2.248 2.248 0 01-.057 1.534c-.196.501-.576.906-.806 1.39a1.869 1.869 0 00-.117 1.47c.168.48.537.916.597 1.428.026.497-.235.966-.672 1.205a1.82 1.82 0 01-1.513.087c-.994-.33-1.604-1.46-2.709-1.506-.619-.023-1.099.427-1.694.482-.529.054-1.007-.334-1.233-.787-.555-1.092.519-2.159 1.543-2.346.405-.077.234-.694-.169-.617z"/><path d="M15.383 14.9c-.113-.538-.774-.792-1.26-.622a.864.864 0 00-.576.61c-.066.328.029.668.256.914a.969.969 0 001.632-.214.84.84 0 00-.143-.977.885.885 0 00-.854-.213.704.704 0 00-.413.343.75.75 0 00-.045.536c.04.157.127.297.25.403.158.134.37.187.573.143a.32.32 0 00.214-.393.326.326 0 00-.393-.213h.036-.027c-.032 0-.041-.02.04 0h-.051c.077.015.066.03.04.017l-.02-.013c-.059-.034.02 0 .02.02 0 .019-.042-.039-.044-.041l-.02-.021c-.025-.028.05.072.022.027l-.017-.06-.013-.023c.049.077.021.054 0 .024s0-.04-.017-.06c-.017-.062 0 .087 0 0a.482.482 0 010-.056v.045a.213.213 0 000-.038c.021-.07-.032.055 0 .013a.137.137 0 00.017-.03c.015-.032-.051.055-.026.032a.465.465 0 00.047-.045c-.051.055-.051.036-.03.023l.039-.02c.042-.026-.037.018-.037.014a.09.09 0 01.026 0c.015 0 .094-.02.028 0s.013 0 .03 0h.03c.057 0-.084-.017-.026 0 .02.003.039.008.058.013.014 0 .09.034.032 0-.058-.034.014 0 .027.017l.026.017c.028.017.04.043-.015-.015l.043.038.02.024c.04.038-.037-.058-.018-.026l.034.058c.01.02 0 .038-.013-.036 0 .015 0 .03.013.042a.213.213 0 010 .037v-.035.08c0 .025 0 .055 0 0 0-.056 0 0 0 0a.64.64 0 00-.026.085s.034-.073 0-.03l-.017.032a.557.557 0 01-.036.06c-.034.053.04-.045 0-.015a.877.877 0 01-.087.09c-.03.03.068-.046.014 0l-.03.018-.061.037c-.056.03.06-.022.019 0l-.034.013h-.043c-.015 0-.068.012 0 0 .068-.013-.023 0-.04 0h-.03c.079 0 .064.01.038 0h-.04c-.026 0-.05-.018-.075-.026-.026-.009.064.034.032.013l-.036-.017a.482.482 0 01-.056-.034l-.028-.02c-.049-.032.05.045.02.015a.708.708 0 01-.06-.055l-.05-.054c-.018-.02 0-.036.02.026a.128.128 0 00-.02-.028l-.033-.055-.02-.036a.23.23 0 100 .025c-.012-.047-.03-.092-.042-.138-.013-.047 0 .04 0 .038a.14.14 0 010-.032v-.077c0-.06-.013.07 0 .03v-.032c0-.021.019-.047.021-.068.002-.022-.036.074-.013.032l.013-.028c.01-.02.024-.036.036-.055-.055.09-.025.034 0 0a.239.239 0 01.043-.039s-.075.05-.032.028l.021-.015.056-.032c.036-.021-.039.017-.04.017-.003 0 .025 0 .036-.013a.525.525 0 01.061-.019h.026c.06-.013-.015 0-.032 0a.356.356 0 00.066 0 .343.343 0 01.066 0h-.005c.022.006.044.01.066.013l.064.019h.03c.036.01-.077-.036-.034-.015.021.01.042.022.062.034.015 0 .079.054.025.013-.053-.04 0 0 .02.021.019.022.061.073.02.02-.04-.054 0 .012.014.025l.012.024c.028.053-.02-.062-.012-.03s.015.047.019.07c.052.166.227.26.394.213a.326.326 0 00.214-.394l.01.006zm8.632 2.167a9.111 9.111 0 01-1.438-6.05c.04-.352.083-.894.459-1.067.375-.173.61.403.708.668.158.424.21.88.15 1.329a.335.335 0 00.213.388.322.322 0 00.392-.213c.113-.805 0-1.707-.514-2.377-.514-.67-1.406-.55-1.788.18a3.224 3.224 0 00-.27 1.168 9.491 9.491 0 00-.045 1.257 9.813 9.813 0 001.58 5.035c.227.343.78.023.553-.325v.007z"/><path d="M23.964 16.495c-.03-1.65.074-3.366.84-4.862a4.881 4.881 0 011.374-1.72c.228-.166.612-.392.898-.236.286.156.256.525.214.78a7.15 7.15 0 01-.756 2.147 14.871 14.871 0 01-1.194 1.975c-.457.64-.952 1.28-1.453 1.89-.173.214-.337.376-.363.64a68.642 68.642 0 00-.269 3.915c-.128 2.65-.159 5.302-.093 7.957a82.19 82.19 0 00.806 9.897c.063.427.129.848.198 1.265.069.405.685.235.617-.17-.663-4.159-1-8.362-1.01-12.572-.029-2.936.056-5.876.268-8.803a49.1 49.1 0 01.134-1.593l-.094.226c.825-.97 1.591-1.99 2.293-3.053.657-1.035 1.26-2.2 1.507-3.413.1-.489.115-1.082-.256-1.466-.412-.426-1.018-.36-1.494-.115-1.045.53-1.762 1.734-2.178 2.773-.567 1.428-.655 2.987-.64 4.519 0 .41.64.411.64 0l.01.019z"/><path d="M27.145 9.374c-.246-.905-.854-1.92-1.92-1.907-1.067.012-1.667 1.045-1.944 1.956-.12.395.5.565.619.17.185-.618.554-1.478 1.325-1.493.77-.015 1.137.822 1.303 1.438a.322.322 0 00.619-.17l-.002.006z"/></g></svg>