<svg xmlns="http://www.w3.org/2000/svg" width="48" height="48"><g fill="none"><path fill="#010101" d="M32.84 30.842c.072.337.175.667.31.985.025.088.06.171.107.25l.036.092c.19-.032.239-.075.151-.13-.04-.073-.183-.15-.247-.214l-1.041-.853-2.748-2.264-2.927-2.421-1.308-1.082c-.524-.437-1.066-.887-1.706-1.124-.578-.213-1.314-.156-1.494.553-.155.64.474 1.344.896 1.76.534.522 1.129.98 1.677 1.493a30.52 30.52 0 012.502 2.596c.058.066.267.243.257.335-.018.152-.188.036-.252 0a6.705 6.705 0 01-.928-.64l-1.099-.825-4.092-3.087c-.554-.427-1.175-.982-1.92-.839a1.007 1.007 0 00-.74 1.43c.15.303.364.57.627.782.337.295.692.572 1.037.854l1.946 1.602 2.026 1.668c.163.135 1.507 1.238 1.31 1.376-.085.06-.266-.062-.343-.096-.154-.068-.303-.14-.452-.213-.329-.17-.64-.363-.956-.563-.587-.378-1.15-.788-1.726-1.184a14.054 14.054 0 00-1.747-1.067c-.568-.282-1.37-.71-1.92-.158-.472.476-.145 1.163.213 1.583.463.496.978.94 1.536 1.327 1.11.817 2.317 1.493 3.441 2.293.54.376 1.046.799 1.513 1.263.049.05.213.165.175.252-.039.087-.141.04-.214.023a4.198 4.198 0 01-.936-.35c-1.144-.567-2.202-1.465-3.497-1.66a1.01 1.01 0 00-.88.189.79.79 0 00-.184.864c.213.618.894 1.066 1.376 1.476a30.332 30.332 0 007.577 4.693c.67.285 1.35.55 2.038.794.388.136.556-.482.17-.617a29.877 29.877 0 01-7.82-4.134 28.188 28.188 0 01-1.793-1.434 9.058 9.058 0 01-.718-.653c-.165-.177-.427-.586 0-.571.61.019 1.23.367 1.749.657.578.324 1.135.689 1.73.977.454.213 1.21.623 1.707.322a.74.74 0 00.341-.672c-.021-.337-.311-.572-.54-.79-.964-.927-2.112-1.638-3.234-2.357a31.538 31.538 0 01-1.677-1.128c-.544-.4-1.115-.81-1.493-1.338-.113-.16-.31-.473-.075-.614.235-.141.764.153 1 .269a13.16 13.16 0 011.752 1.053c1.125.77 2.225 1.656 3.51 2.134.601.228 1.297-.35.953-.984a3.183 3.183 0 00-.64-.73c-.283-.27-.593-.518-.896-.767l-3.89-3.2c-.317-.252-.64-.508-.957-.787-.232-.197-.614-.502-.612-.841.002-.34.371-.388.62-.333.372.081.688.37.982.591l4.054 3.053c.652.49 1.28 1.024 1.97 1.474.257.169.564.378.886.341a.73.73 0 00.617-.541.809.809 0 00-.229-.734c-.273-.331-.56-.653-.853-.969a28.408 28.408 0 00-1.707-1.707c-.55-.516-1.141-.987-1.694-1.493-.185-.175-1.292-1.28-.682-1.465.277-.086.712.174.94.309.32.199.624.424.907.672a2515.913 2515.913 0 004.087 3.39l2.793 2.3 1.086.893c.318.26.775.779 1.19.372.271-.267.107-.587-.012-.877a5.333 5.333 0 01-.312-.984c-.08-.403-.697-.232-.616.169l.013-.02z"/><path fill="#FFF" d="M37.737 33.404a15.418 15.418 0 01-1.477-2.667"/><path fill="#010101" d="M38.014 33.242a15.863 15.863 0 01-1.479-2.667.322.322 0 00-.426-.115.33.33 0 00-.115.44 15.95 15.95 0 001.478 2.666c.092.148.284.2.437.115a.326.326 0 00.116-.44h-.011zm-7.985-18.296c.442.623.835 1.28 1.175 1.963.427.793.896 1.57 1.372 2.346.969 1.568 1.988 3.104 2.965 4.666.491.78.971 1.57 1.408 2.383.197.363.75.038.555-.324-1.687-3.12-3.84-5.974-5.568-9.06-.427-.781-.81-1.573-1.355-2.287-.247-.325-.802 0-.552.322v-.009z"/><path fill="#010101" d="M14.848 18.176c-.363.09-.739.11-1.11.062l.214.224a14.933 14.933 0 01-.26-3.712l-.32.32c2.722-.175 5.448-.073 8.17.017 1.376.047 2.755.092 4.133.083 1.33 0 2.66-.064 3.991-.102 1.538-.045 3.079-.062 4.617.04l-.31-.403a14.063 14.063 0 00-.245 3.686l.32-.32a4.48 4.48 0 01-1.348-.117c-.4-.098-.57.519-.169.619.496.123 1.007.17 1.517.138a.322.322 0 00.32-.32 13.427 13.427 0 01.213-3.517.324.324 0 00-.307-.406c-2.694-.181-5.389.017-8.083.058-2.694.04-5.44-.13-8.16-.18a56.773 56.773 0 00-4.668.084.329.329 0 00-.32.32 15.507 15.507 0 00.284 3.883c.03.102.11.183.213.213.482.072.973.05 1.447-.064.4-.096.232-.713-.169-.617l.03.011z"/><path fill="#010101" d="M12.93 20.937l-2.088.238.32.32a99.26 99.26 0 01-.282-7.008c0-.58 0-1.158.015-1.738v-.427a1.35 1.35 0 01.015-.348c.068-.19.55-.147.725-.162a41.107 41.107 0 013.478-.126c4.693 0 9.386.099 14.06.152l7.998.092-.32-.32a99.979 99.979 0 01-.102 5.84 97.753 97.753 0 01-.246 3.623c0 .058.013.213-.027.273-.04.06-.154.032-.24.03-.492 0-.985-.021-1.478-.034-.411 0-.411.64 0 .64.549.013 1.11.062 1.658.038.457-.021.663-.298.71-.736a64.5 64.5 0 00.229-3.2c.12-2.154.165-4.311.136-6.47a.324.324 0 00-.32-.32l-14.686-.169c-2.389-.032-4.793-.074-7.2-.076-1.211 0-2.425.025-3.626.128-.45.038-1.067 0-1.28.484-.085.227-.122.47-.11.712 0 .316-.012.64-.014.95a91.528 91.528 0 00.267 8.166c.012.158.138.341.32.32l2.088-.239c.403-.047.41-.687 0-.64v.007z"/><path fill="#010101" d="M17.92 14.765a47.958 47.958 0 00-4.43 0 40.87 40.87 0 01.321 3.558h.89a.476.476 0 00.175-.021.365.365 0 00.14-.126l2.599-3.38m13.105.016a16.237 16.237 0 013.467-.058l-.113 3.593h-1.118a.655.655 0 01-.346-.064.64.64 0 01-.213-.252l-1.85-3.23m-9.564 16.211l1.76.026a.32.32 0 000-.64l-1.76-.026a.322.322 0 00-.32.32.329.329 0 00.32.32zm-10.956-4.838l.364 4.454a.324.324 0 00.32.32 79.826 79.826 0 017.098.086c.412.023.41-.617 0-.64a80.905 80.905 0 00-7.098-.086l.32.32-.364-4.454c-.034-.408-.674-.412-.64 0zm21.563 4.759l5.773.06a.329.329 0 00.32-.32 25.214 25.214 0 00-.066-4.61.329.329 0 00-.32-.32c-.98.036-1.958.072-2.938.094-.482 0-.972.045-1.452.013s-.896-.169-1.353-.214c-.456-.045-.82.165-1.248.169-.476 0-.958-.043-1.433-.068l-2.887-.137c-.412-.021-.41.619 0 .64l2.887.147c.475.026.957.073 1.433.068.427 0 .817-.213 1.248-.168.431.045.896.18 1.353.213.456.034.97 0 1.452-.013.98-.02 1.959-.057 2.938-.093l-.32-.32c.163 1.531.185 3.074.066 4.61l.32-.32-5.773-.07a.32.32 0 000 .64z"/><path fill="#010101" d="M10.479 26.334c2.68.034 5.36.038 8.043.013a.32.32 0 000-.64c-2.681.025-5.362.021-8.043-.013a.32.32 0 100 .64zm9.801-.049a7.627 7.627 0 012.225.06.32.32 0 10.17-.617 8.128 8.128 0 00-2.396-.083.329.329 0 00-.32.32.322.322 0 00.32.32z"/><path fill="#010101" d="M10.645 25.813c.083-.151.18-.294.29-.426l.414-.602.73-1.067 1.506-2.21c.233-.341.47-.68.687-1.032.218-.352.348-.73.57-1.067.12-.15.247-.292.384-.427a5.32 5.32 0 00.373-.484c.25-.358.495-.725.742-1.088.55-.81 1.11-1.615 1.645-2.436.226-.346-.326-.666-.552-.322-.48.734-.98 1.457-1.472 2.18l-.75 1.088c-.242.354-.522.64-.79.98a6.637 6.637 0 00-.555.987c-.214.367-.45.717-.687 1.067l-1.538 2.257-.854 1.24c-.262.383-.595.763-.768 1.196-.151.382.467.548.617.168l.008-.002zm8.918-17.066a17.045 17.045 0 00-2.496-1.733.32.32 0 00-.322.553 16.173 16.173 0 012.359 1.638.333.333 0 00.452 0 .322.322 0 000-.454l.007-.004zm8.902.945l2.392-1.46c.35-.213.03-.767-.325-.552l-2.39 1.46c-.351.213-.029.767.323.552zm-4.469-2.383v-3.45a.32.32 0 10-.64 0v3.45a.32.32 0 00.64 0z"/></g></svg>