<svg xmlns="http://www.w3.org/2000/svg" width="15" height="18" viewBox="0 0 15 18">
  <g fill="none" fill-rule="evenodd" transform="translate(0 .237)">
    <path fill="#FFF" d="M7.02723323,0.596299975 C6.99882626,0.596934798 6.9705016,0.59969736 6.94248306,0.60456583 L5.27726803,0.60456583 C5.06579668,0.601482283 4.86909663,0.716035955 4.76248818,0.904362006 C4.65587973,1.09268806 4.65587973,1.32560912 4.76248818,1.51393517 C4.86909663,1.70226122 5.06579668,1.81681489 5.27726803,1.81373135 L6.45003726,1.81373135 L6.45003726,3.05360967 C2.84471009,3.36272074 -0.000193506923,6.48237987 -0.000193506923,10.2777691 C-0.000193506923,14.2774467 3.15713582,17.5327622 7.03642188,17.5327622 C10.9157079,17.5327622 14.0730373,14.2774467 14.0730373,10.2777691 C14.0730373,8.49521725 13.4430256,6.86272288 12.4043626,5.59817758 L13.2553239,4.72080708 L13.6710589,5.14826523 C13.8182104,5.30585769 14.0364456,5.36921189 14.2417301,5.31393247 C14.4470146,5.25865305 14.6073305,5.09336186 14.660946,4.88170645 C14.7145615,4.67005105 14.6531142,4.44504305 14.5002654,4.29332475 L13.7466439,3.51752416 C13.7072128,3.45866801 13.6579652,3.40749283 13.6011912,3.36637847 L12.8407089,2.58229509 C12.7303088,2.46528902 12.5787136,2.39927804 12.4203885,2.39926975 C12.1817737,2.39933247 11.9669872,2.54845185 11.877198,2.77638953 C11.7874088,3.00432721 11.8405219,3.26562947 12.0115201,3.43721743 L12.4261116,3.86585451 L11.5751502,4.74322501 C10.4891073,3.79493696 9.12212745,3.18201096 7.62280063,3.05347666 L7.62280063,1.81359834 L8.79556986,1.81359834 C9.00704121,1.81668189 9.20374126,1.70212821 9.31034971,1.51380216 C9.41695816,1.32547611 9.41695816,1.09255505 9.31034971,0.904228998 C9.20374126,0.715902947 9.00704121,0.601349275 8.79556986,0.604432822 L7.12689516,0.604432822 C7.09397103,0.598758796 7.06063715,0.595993467 7.02725669,0.596166967 L7.02723323,0.596299975 Z"/>
    <path fill="#000" d="M7.02723323,6.64194619 C6.70382497,6.64715667 6.44557001,6.92135734 6.45000794,7.25481173 L6.45000794,9.22913719 C6.08782232,9.44548832 5.86439745,9.84502252 5.86362333,10.2777255 C5.86349931,10.5996224 5.98700383,10.9083791 6.20695416,11.1360399 C6.4269045,11.3637007 6.72527381,11.4916068 7.03639256,11.4916068 C7.34751131,11.4916068 7.64588062,11.3637007 7.86583095,11.1360399 C8.08578129,10.9083791 8.2092858,10.5996224 8.20916179,10.2777255 C8.20878355,9.84461196 7.98530566,9.44454517 7.62277717,9.22798848 L7.62277717,7.25481173 C7.62495203,7.09139256 7.5628707,6.93402589 7.45067868,6.81856846 C7.33848667,6.70311103 7.18574081,6.63939782 7.02724496,6.64194619 L7.02723323,6.64194619 Z"/>
  </g>
</svg>
