<svg xmlns="http://www.w3.org/2000/svg" xmlns:xlink="http://www.w3.org/1999/xlink" width="27" height="45"><defs><path id="a" d="M.746.076h46v27h-46z"/></defs><g fill="none" fill-rule="evenodd"><g transform="scale(1 -1) rotate(81 41.416 -11.212)"><mask id="b" fill="#fff"><use xlink:href="#a"/></mask><path fill="#2B2E30" d="M3.549 23.398c1.944-9.681 7.486-18.403 17.313-20.82 9.606-2.36 18.445 3.902 23.58 11.709.33.501 1.16-.294.875-.73-5.53-8.407-14.26-13.992-24.368-11.99C10.694 3.598 4.606 13.629 2.645 23.397c-.15.754.79.573.904.002" mask="url(#b)"/></g><path fill="#2B2E30" d="M16.45 9.485c.322-2.485-.595-4.648-.921-7.017-.077-.564.937-1.102 1.025-.462.339 2.466 1.25 4.683.914 7.268-.072.562-1.112.93-1.018.211"/><path fill="#2B2E30" d="M21.651 3.611c-2.422.122-4.613-.775-6.853-1.614-.676-.253.221-1.367.75-1.17 2.155.808 4.257 1.677 6.588 1.56.787-.039.084 1.195-.485 1.224"/></g></svg>